<svg width="76" height="96" viewBox="0 0 76 96" fill="none" xmlns="http://www.w3.org/2000/svg">
<path d="M75.7245 25.3309C75.7245 42.8882 49.9916 37.7953 47.5791 22.5163C45.3007 8.04154 40.3417 6.96934 38.1973 6.96934C32.8363 6.96934 27.8774 15.547 27.8774 19.7018C27.8774 39.4036 75.7245 37.9293 75.7245 67.683C75.7245 82.2918 62.59 95.8284 37.5272 95.8284C17.8254 95.8284 0 83.7661 0 67.951C0 50.3937 25.5989 55.4867 28.1454 70.7656C30.5579 85.2404 34.8467 88.8591 37.5272 88.8591C40.4758 88.8591 47.9812 84.3022 47.9812 73.3121C47.9812 55.0846 0 55.0846 0 25.3309C0.670129 10.588 18.7636 0 38.1973 0C57.8991 0 75.7245 9.51583 75.7245 25.3309Z" fill="black"/>
</svg>
