<svg width="23" height="25" viewBox="0 0 23 25" fill="none" xmlns="http://www.w3.org/2000/svg">
<path d="M16.8781 8.71469L23 2.44141C23 2.44141 21.2539 -0.0415231 18.4416 0.000528171C15.6293 0.0425794 12.9249 0.969619 12.7004 3.83388C12.4771 6.69815 15.7746 9.18299 15.7746 9.18299L6.31887 19.0918C6.31887 19.0918 3.21942 16.6261 4.47923 13.8555C5.25492 12.1495 7.03074 11.0648 8.48639 11.9498C8.48639 11.9498 6.97683 9.41236 4.55184 11.75C3.00817 13.2381 1.91011 16.2906 4.51224 20.8618L2.3051 22.9682C2.3051 22.9682 1.32807 21.7888 0.322424 22.8363C-0.683219 23.8837 0.984784 25 0.984784 25L4.83901 21.2507C4.83901 21.2507 7.23209 24.4323 11.6001 24.5996C15.9682 24.7678 18.2964 22.5773 19.5573 19.8392C20.8182 17.1011 21.2374 11.9297 16.8781 8.71469ZM14.4179 3.66281C14.6721 1.94062 16.7538 1.45416 18.0488 1.90621C19.4924 2.41083 20.4155 4.0623 20.4155 4.0623L16.3258 8.27411C16.3258 8.27411 14.0295 6.2977 14.419 3.66377L14.4179 3.66281ZM17.908 18.8242C14.528 23.4374 8.0771 21.1189 7.09236 19.6136L16.2477 10.0221C16.2477 10.0221 21.288 14.211 17.908 18.8242Z" fill="white"/>
</svg>
