<svg width="171" height="190" viewBox="0 0 171 190" fill="none" xmlns="http://www.w3.org/2000/svg">
<path d="M16.3389 96.2266H83.5118V107.119H16.3389V96.2266Z" fill="#CF713F"/>
<path d="M16.3389 119.828H83.5118V130.721H16.3389V119.828Z" fill="#CF713F"/>
<path d="M16.3389 141.609H83.5118V152.502H16.3389V141.609Z" fill="#CF713F"/>
<path d="M16.3389 161.578H83.5118V172.471H16.3389V161.578Z" fill="#CF713F"/>
<path d="M83.5118 18.1562H27.2804H16.3389V26.3798V34.6033C23.42 44.0076 37.7788 49.0195 52.2721 49.0195C64.479 49.0195 76.136 43.2503 83.5118 36.2281V18.1562Z" fill="#CF713F"/>
<mask id="mask0_1753_6677" style="mask-type:luminance" maskUnits="userSpaceOnUse" x="0" y="0" width="171" height="190">
<path d="M170.233 0H0V189.777H170.233V0Z" fill="white"/>
</mask>
<g mask="url(#mask0_1753_6677)">
<path d="M1.74231 79.0322C1.74231 79.0322 1.7423 79.0322 1.84823 79.0322C1.95416 79.0322 2.0601 78.9263 2.219 78.8203C2.58976 78.6085 3.06646 78.2907 3.54315 77.814C4.49654 76.8606 5.50289 75.1657 5.50289 72.1996C5.50289 69.2335 4.44357 67.4856 3.49019 66.4263C3.01349 65.8966 2.48383 65.5259 2.16604 65.314C2.00714 65.2081 1.84824 65.1021 1.74231 65.1021C1.74231 65.1021 1.68934 65.1021 1.63637 65.1021C0.947814 64.8373 0.471124 64.1487 0.471124 63.4072V58.1106C0.471124 57.2632 1.00078 56.6276 1.68934 56.3627C1.68934 56.3627 1.68934 56.3627 1.79527 56.3627C1.90121 56.3627 2.00714 56.2568 2.16604 56.1509C2.5368 55.939 3.01349 55.6212 3.49019 55.1445C4.44357 54.1911 5.44992 52.4962 5.44992 49.5301C5.44992 46.564 4.39061 44.8161 3.43722 43.7568C2.96052 43.2272 2.43086 42.8564 2.11307 42.6445C1.95417 42.5386 1.79527 42.4327 1.68934 42.4327C1.68934 42.4327 1.63637 42.4327 1.58341 42.4327C0.894847 42.1678 0.418157 41.4793 0.418157 40.7378V35.4412C0.418157 34.6467 0.894848 33.9581 1.63637 33.6933C1.63637 33.6933 1.63638 33.6933 1.74231 33.6933C1.84824 33.6933 1.95417 33.5874 2.11307 33.4814C2.48383 33.2696 2.96052 32.9518 3.43722 32.4751C4.39061 31.5217 5.39696 29.8268 5.39696 26.8607C5.39696 23.8946 4.33764 22.1467 3.38425 21.0874C2.90756 20.5577 2.3779 20.1869 2.0601 19.9751C1.9012 19.8691 1.7423 19.7632 1.63637 19.7632C1.63637 19.7632 1.5834 19.7632 1.53044 19.7632C0.84188 19.4984 0.365189 18.8098 0.365189 18.0683V12.1361C0.365189 11.1298 1.15968 10.2823 2.16604 10.2823C2.85459 10.2823 5.13213 10.1234 7.1978 9.01111C9.10458 7.95179 10.9054 5.99205 10.9054 2.07256C10.9054 1.06621 11.6999 0.21875 12.7063 0.21875H18.2147C19.0092 0.21875 19.6978 0.801378 19.9097 1.59587C19.9097 1.59587 19.9097 1.64883 19.9097 1.75476C19.9097 1.91366 20.0156 2.07256 20.1215 2.33739C20.3334 2.86705 20.7041 3.50264 21.2338 4.1912C22.2931 5.46239 23.988 6.78654 26.7952 6.78654C29.6024 6.78654 31.4033 5.46239 32.5685 4.1912C33.1512 3.50264 33.5219 2.81408 33.7867 2.33739C33.8927 2.07256 33.9986 1.86069 34.0516 1.75476C34.0516 1.70179 34.0516 1.64883 34.1046 1.59587C34.3164 0.801378 35.0579 0.271717 35.8524 0.271717H41.3609C42.1554 0.271717 42.8439 0.854345 43.0558 1.64884C43.0558 1.64884 43.0558 1.70179 43.0558 1.80773C43.0558 1.96663 43.1617 2.12553 43.2677 2.39036C43.4795 2.92002 43.8503 3.55561 44.38 4.24417C45.4393 5.51535 47.1342 6.8395 49.9414 6.8395C52.7486 6.8395 54.5494 5.51535 55.7147 4.24417C56.2973 3.55561 56.6681 2.86705 56.9329 2.39036C57.0388 2.12553 57.1448 1.91366 57.1977 1.80773C57.1977 1.75476 57.1977 1.7018 57.2507 1.64884C57.4626 0.854345 58.2041 0.324684 58.9986 0.324684H64.507C65.3015 0.324684 65.9901 0.907312 66.202 1.7018C66.202 1.7018 66.202 1.75476 66.202 1.86069C66.202 2.01959 66.3079 2.17849 66.4138 2.44332C66.6257 2.97298 66.9964 3.60858 67.5261 4.29714C68.5854 5.56832 70.2804 6.89247 73.0876 6.89247C75.8948 6.89247 77.6956 5.56832 78.8079 4.29714C79.3905 3.60858 79.7613 2.92002 80.0261 2.44332C80.132 2.17849 80.2379 1.96663 80.2909 1.86069C80.2909 1.80773 80.2909 1.75477 80.3439 1.7018C80.5558 0.907312 81.2973 0.377652 82.0918 0.377652H87.6532C88.6066 0.430618 89.3481 1.2251 89.3481 2.23145C89.3481 3.23781 88.6066 3.97933 87.6532 4.0323H83.31C82.9392 4.72086 82.4096 5.67425 81.6151 6.62764C79.9731 8.58738 77.2189 10.5471 73.0876 10.5471C68.9562 10.5471 66.2549 8.58739 64.666 6.57468C63.9244 5.62129 63.3948 4.72086 63.077 3.97933H60.1109C59.7401 4.66789 59.2105 5.62129 58.416 6.57468C56.774 8.53442 54.0198 10.4942 49.8884 10.4942C45.7571 10.4942 43.0558 8.53442 41.4668 6.52171C40.7253 5.56832 40.1956 4.6679 39.8779 3.92638H36.9117C36.541 4.61493 36.0113 5.56832 35.2168 6.52171C33.5749 8.48145 30.8207 10.4412 26.6893 10.4412C22.558 10.4412 19.8567 8.48145 18.2677 6.46874C17.5262 5.51535 16.9965 4.61493 16.6787 3.87341H14.2423C13.7126 8.16366 11.3292 10.759 8.73382 12.1891C6.98594 13.1425 5.13213 13.6192 3.75501 13.7781V16.956C4.33764 17.3268 5.0262 17.8564 5.76773 18.6509C7.30374 20.2929 8.73382 22.9412 8.73382 26.9136C8.73382 30.8861 7.30374 33.4285 5.71476 35.0704C5.0262 35.8119 4.28467 36.2886 3.75501 36.6594V39.7314C4.33764 40.1022 5.0262 40.6318 5.76773 41.4263C7.30374 43.0683 8.73382 45.7166 8.73382 49.689C8.73382 53.6615 7.30374 56.2038 5.71476 57.8458C5.0262 58.5873 4.28467 59.064 3.75501 59.4348V62.5068C4.33764 62.8776 5.0262 63.4072 5.76773 64.2017C7.30374 65.8437 8.73382 68.492 8.73382 72.4644C8.73382 76.4369 7.30374 78.9792 5.71476 80.6212C5.0262 81.3627 4.28467 81.8394 3.75501 82.2102V85.2822C4.33764 85.653 5.0262 86.1826 5.76773 86.9771C7.30374 88.6191 8.73382 91.2674 8.73382 95.2398C8.73382 99.2123 7.30374 101.755 5.71476 103.397C4.97323 104.191 4.17874 104.721 3.59611 105.039C3.27831 105.197 3.06645 105.303 2.85459 105.409C2.74866 105.409 2.6957 105.462 2.64273 105.515H2.58976C2.58976 105.515 2.58976 105.515 2.00713 103.767C1.61872 102.602 1.4245 102.019 1.4245 102.019H1.53044C1.53044 102.019 1.7423 101.861 1.9012 101.808C2.27196 101.596 2.74866 101.278 3.22535 100.801C4.17874 99.8479 5.1851 98.1529 5.1851 95.1868C5.1851 92.2207 4.12577 90.4729 3.17238 89.4135C2.69569 88.8839 2.16603 88.5131 1.84823 88.3013C1.68933 88.1953 1.53044 88.0894 1.4245 88.0894C1.4245 88.0894 1.37155 88.0894 1.31858 88.0894C0.630021 87.8246 0.15332 87.136 0.15332 86.3945V81.0979C0.15332 80.3034 0.630022 79.6148 1.37155 79.35L1.74231 79.0322Z" fill="#1E1E1E"/>
<path d="M5.50518 162.917C5.50518 159.951 4.44586 158.256 3.54544 157.302C3.06874 156.826 2.59205 156.455 2.22129 156.296C2.06239 156.19 1.90348 156.137 1.85052 156.084C1.85052 156.084 1.79756 156.084 1.74459 156.084C1.00307 155.819 0.526367 155.131 0.526367 154.336V149.04C0.526367 148.245 0.950101 147.662 1.63866 147.345H1.69163C1.69163 147.345 1.69163 147.345 1.79756 147.345C1.90349 147.345 2.00942 147.239 2.22129 147.133C2.59205 146.921 3.06874 146.55 3.54544 146.02C4.49883 144.961 5.55814 143.213 5.55814 140.247C5.55814 137.281 4.49882 135.586 3.5984 134.633C3.1217 134.156 2.64501 133.785 2.27425 133.626C2.11535 133.52 1.95645 133.467 1.90349 133.415H1.79756C1.05604 133.15 0.579334 132.461 0.579334 131.667V126.37C0.579334 125.629 1.05604 124.94 1.74459 124.675C1.74459 124.675 1.74459 124.675 1.85052 124.675C1.95645 124.675 2.06238 124.569 2.27425 124.463C2.64501 124.251 3.1217 123.881 3.5984 123.351C4.55178 122.292 5.61111 120.544 5.61111 117.578C5.61111 114.612 4.55179 112.917 3.65136 111.963C3.17467 111.487 2.69798 111.116 2.32721 110.957C2.16831 110.851 2.00942 110.798 1.95645 110.745C1.95645 110.745 1.90348 110.745 1.85052 110.745C1.10899 110.48 0.632302 109.792 0.632302 108.997V103.701C0.632302 102.959 1.109 102.27 1.79756 102.006C1.79756 102.006 1.79755 102.006 1.90349 102.006C2.00942 102.006 2.11535 101.9 2.32721 101.794C2.69798 101.582 3.17467 101.211 3.65136 100.682C4.60475 99.6222 5.66408 97.8743 5.66408 94.9082C5.66408 91.9421 4.60475 90.2472 3.70433 89.2938C3.22764 88.8171 2.75094 88.4464 2.38018 88.2875C2.22128 88.1815 2.06239 88.1286 2.00942 88.0756C2.00942 88.0756 1.95645 88.0756 1.90349 88.0756C1.90349 88.0756 1.90349 88.0756 1.95645 87.8637L3.01578 84.8447L3.06874 84.6328C3.06874 84.6328 3.06875 84.6328 3.12171 84.6328C3.17468 84.6328 3.2806 84.6858 3.33357 84.7387C3.54543 84.8447 3.7573 84.9506 4.07509 85.1095C4.65772 85.4273 5.45222 85.957 6.19374 86.7514C7.78272 88.3404 9.2128 90.9887 9.2128 94.9082C9.2128 98.8277 7.78271 101.476 6.2467 103.171C5.50517 103.965 4.81662 104.495 4.23399 104.866V107.938C4.81662 108.256 5.50518 108.785 6.19374 109.527C7.78272 111.116 9.2128 113.764 9.2128 117.684C9.2128 121.603 7.78271 124.251 6.2467 125.946C5.50517 126.741 4.81662 127.27 4.23399 127.641V130.713C4.81662 131.031 5.50518 131.561 6.19374 132.302C7.78272 133.891 9.2128 136.54 9.2128 140.459C9.2128 144.379 7.78271 147.027 6.2467 148.722C5.50517 149.516 4.81662 150.046 4.23399 150.417V153.489C4.81662 153.806 5.50518 154.336 6.19374 155.078C7.78272 156.667 9.2128 159.315 9.2128 163.234C9.2128 167.154 7.78271 169.802 6.2467 171.497C5.50517 172.292 4.81662 172.821 4.23399 173.192V176.37C5.61111 176.582 7.41196 177.006 9.2128 177.959C12.1789 179.601 14.8272 182.673 14.8272 188.128H11.1725C11.1725 184.156 9.3717 182.249 7.46492 181.19C5.39925 180.078 3.12171 179.919 2.43315 179.919C1.42679 179.919 0.632302 179.124 0.632302 178.065V172.133C0.632302 171.391 1.109 170.703 1.79756 170.438C1.79756 170.438 1.79755 170.438 1.90349 170.438C2.00942 170.438 2.11535 170.332 2.32721 170.226C2.69798 170.014 3.17467 169.643 3.65136 169.114C4.60475 168.054 5.66408 166.306 5.66408 163.34L5.50518 162.917Z" fill="#1E1E1E"/>
<path d="M87.9166 -0.0520358C88.7111 -0.0520358 89.3997 0.477623 89.6645 1.21915C89.6645 1.21915 89.6645 1.27211 89.7175 1.37804C89.7175 1.53694 89.8764 1.69584 89.9823 1.96067C90.2472 2.49033 90.6179 3.17889 91.2005 3.81448C92.3128 5.13863 94.1137 6.40982 96.9209 6.40982C99.7281 6.40982 101.476 5.13863 102.482 3.81448C103.012 3.12592 103.383 2.49033 103.595 1.96067C103.701 1.69584 103.806 1.48397 103.806 1.37804C103.806 1.32507 103.806 1.27211 103.806 1.21915C104.018 0.424657 104.76 -0.105003 105.554 -0.105003H111.063C111.857 -0.105003 112.493 0.424656 112.758 1.16618C112.758 1.16618 112.758 1.21914 112.811 1.32507C112.811 1.48397 112.97 1.64287 113.076 1.9077C113.34 2.43736 113.711 3.12592 114.294 3.76151C115.406 5.08567 117.207 6.35685 120.014 6.35685C122.821 6.35685 124.569 5.08567 125.576 3.76151C126.105 3.07296 126.476 2.43736 126.688 1.9077C126.794 1.64287 126.9 1.431 126.9 1.32507C126.9 1.27211 126.9 1.21915 126.9 1.16618C127.112 0.37169 127.853 -0.15797 128.648 -0.15797H134.05C134.845 -0.15797 135.533 0.371689 135.798 1.11321C135.798 1.11321 135.798 1.16618 135.851 1.27212C135.851 1.43101 136.01 1.5899 136.116 1.85473C136.381 2.38439 136.751 3.07296 137.334 3.70855C138.446 5.0327 140.247 6.30388 143.054 6.30388C145.861 6.30388 147.609 5.0327 148.616 3.70855C149.145 3.01999 149.516 2.38439 149.728 1.85473C149.834 1.5899 149.94 1.37805 149.94 1.27212C149.94 1.21915 149.94 1.16618 149.94 1.11321C150.152 0.318723 150.893 -0.210938 151.688 -0.210938H157.09C158.097 -0.210938 158.891 0.583555 158.891 1.64288C158.891 5.61533 160.692 7.5221 162.599 8.58142C164.664 9.69371 166.942 9.85261 167.631 9.85261C168.637 9.85261 169.431 10.6471 169.431 11.7064V17.6386H165.777V13.4013C164.4 13.1895 162.599 12.7657 160.798 11.8124C158.203 10.3823 155.819 7.78694 155.289 3.49669H152.853C152.535 4.18525 152.006 5.13863 151.264 6.09202C149.675 8.05177 147.027 10.0645 142.842 10.0645C138.658 10.0645 135.957 8.10473 134.315 6.14499C133.52 5.1916 132.938 4.2382 132.62 3.54965H129.654C129.336 4.2382 128.806 5.1916 128.065 6.14499C126.476 8.10473 123.828 10.1174 119.643 10.1174C115.459 10.1174 112.758 8.15769 111.116 6.19795C110.321 5.24456 109.739 4.29117 109.421 3.60261H106.455C106.137 4.29117 105.607 5.24456 104.866 6.19795C103.277 8.15769 100.629 10.1704 96.4442 10.1704C92.2599 10.1704 89.5586 8.21066 87.9166 6.25091C87.1222 5.29753 86.5395 4.34414 86.2217 3.65558H81.8785C80.9251 3.60261 80.1836 2.80812 80.1836 1.80177C80.1836 0.795413 80.9251 0.0538874 81.8785 0.000921375H87.44L87.9166 -0.0520358Z" fill="#1E1E1E"/>
<path d="M168.854 124.577C169.542 124.842 170.019 125.531 170.019 126.272V131.569C170.019 132.363 169.542 133.052 168.801 133.317C168.801 133.317 168.801 133.317 168.695 133.317C168.589 133.317 168.483 133.422 168.324 133.528C167.953 133.74 167.477 134.058 167 134.535C166.047 135.488 165.04 137.183 165.04 140.149C165.04 143.115 166.1 144.863 167.053 145.922C167.53 146.452 168.059 146.823 168.377 147.035C168.536 147.141 168.695 147.247 168.801 147.247C168.801 147.247 168.854 147.247 168.907 147.247C169.595 147.511 170.072 148.2 170.072 148.942V154.238C170.072 155.033 169.595 155.721 168.854 155.986C168.854 155.986 168.854 155.986 168.748 155.986C168.642 155.986 168.536 156.092 168.377 156.198C168.006 156.41 167.53 156.728 167.053 157.204C166.1 158.158 165.093 159.853 165.093 162.819C165.093 165.785 166.153 167.533 167.106 168.592C167.583 169.122 168.112 169.492 168.43 169.704C168.589 169.81 168.748 169.916 168.854 169.916C168.854 169.916 168.907 169.916 168.96 169.916C169.648 170.181 170.125 170.869 170.125 171.611V177.543C170.125 178.55 169.331 179.397 168.324 179.397C167.636 179.397 165.358 179.556 163.292 180.668C161.386 181.727 159.585 183.687 159.585 187.607C159.585 188.613 158.79 189.461 157.784 189.461H152.381C151.534 189.461 150.845 188.931 150.634 188.136C150.634 188.136 150.634 188.03 150.634 187.977C150.634 187.819 150.528 187.66 150.422 187.395C150.21 186.865 149.839 186.23 149.309 185.541C148.25 184.27 146.555 182.946 143.748 182.946C140.941 182.946 139.14 184.27 137.975 185.541C137.392 186.23 137.021 186.918 136.756 187.395C136.651 187.66 136.545 187.872 136.492 187.977C136.492 188.03 136.492 188.083 136.439 188.136C136.227 188.878 135.485 189.408 134.691 189.408H129.288C128.441 189.408 127.752 188.878 127.54 188.083C127.54 188.083 127.54 187.977 127.54 187.925C127.54 187.766 127.434 187.607 127.328 187.342C127.117 186.812 126.746 186.177 126.216 185.488C125.157 184.217 123.462 182.893 120.655 182.893C117.848 182.893 116.047 184.217 114.881 185.488C114.299 186.177 113.928 186.865 113.663 187.342C113.557 187.607 113.451 187.819 113.398 187.925C113.398 187.977 113.398 188.03 113.345 188.083C113.134 188.825 112.392 189.355 111.598 189.355H106.195C105.348 189.355 104.659 188.825 104.447 188.03C104.447 188.03 104.447 187.924 104.447 187.872C104.447 187.713 104.341 187.554 104.235 187.289C104.023 186.759 103.653 186.124 103.123 185.435C102.064 184.164 100.369 182.84 97.5616 182.84C94.7544 182.84 92.9535 184.164 91.7883 185.435C91.2057 186.124 90.8349 186.812 90.5701 187.289C90.4641 187.554 90.3582 187.766 90.3053 187.872C90.3053 187.924 90.3052 187.977 90.2523 188.03C90.0404 188.772 89.2989 189.302 88.5044 189.302H82.943C81.9896 189.249 81.248 188.454 81.248 187.448C81.248 186.441 81.9896 185.7 82.943 185.647H87.2862C87.6569 184.958 88.1866 184.005 88.9811 183.052C90.623 181.092 93.3773 179.132 97.5086 179.132C101.64 179.132 104.341 181.092 105.93 183.105C106.672 184.058 107.201 184.958 107.519 185.7H110.485C110.856 185.011 111.386 184.058 112.18 183.105C113.822 181.145 116.576 179.185 120.708 179.185C124.839 179.185 127.54 181.145 129.129 183.158C129.871 184.111 130.401 185.011 130.718 185.753H133.684C134.055 185.064 134.585 184.111 135.379 183.158C137.021 181.198 139.776 179.238 143.907 179.238C148.038 179.238 150.739 181.198 152.328 183.211C153.07 184.164 153.6 185.064 153.917 185.806H156.354C156.884 181.516 159.267 178.92 161.862 177.49C163.61 176.537 165.464 176.06 166.841 175.901V172.723C166.259 172.353 165.57 171.823 164.828 171.028C163.292 169.386 161.862 166.738 161.862 162.766C161.862 158.793 163.292 156.251 164.881 154.609C165.57 153.867 166.311 153.391 166.841 153.02V149.948C166.259 149.577 165.57 149.047 164.828 148.253C163.292 146.611 161.862 143.963 161.862 139.99C161.862 136.018 163.292 133.475 164.881 131.833C165.57 131.092 166.311 130.615 166.841 130.245V127.172C166.259 126.802 165.57 126.272 164.828 125.478C163.292 123.836 161.862 121.187 161.862 117.215C161.862 113.242 163.292 110.7 164.881 109.058C165.57 108.317 166.311 107.84 166.841 107.469V104.397C166.259 104.026 165.57 103.497 164.828 102.702C163.292 101.06 161.862 98.4119 161.862 94.4395C161.862 90.467 163.292 87.9246 164.881 86.2827C165.623 85.4882 166.417 84.9586 167 84.6408C167.318 84.4819 167.53 84.3759 167.742 84.27C167.848 84.27 167.9 84.217 167.953 84.1641H168.006C168.006 84.1641 168.201 84.7467 168.589 85.9119C169.172 87.6068 169.172 87.6598 169.172 87.6598C169.172 87.6598 169.172 87.6598 169.066 87.6598C168.96 87.6598 168.854 87.7658 168.695 87.8717C168.324 88.0836 167.848 88.4013 167.371 88.878C166.417 89.8314 165.411 91.5263 165.411 94.4924C165.411 97.4585 166.47 99.2064 167.424 100.266C167.9 100.795 168.43 101.166 168.748 101.378C168.907 101.484 169.066 101.59 169.172 101.59C169.172 101.59 169.225 101.59 169.278 101.59C169.966 101.855 170.443 102.543 170.443 103.285V108.581C170.443 109.376 169.966 110.064 169.225 110.329C169.225 110.329 169.225 110.329 169.119 110.329C169.013 110.329 168.907 110.435 168.748 110.541C168.377 110.753 167.9 111.071 167.424 111.547C166.47 112.501 165.464 114.196 165.464 117.162C165.464 120.128 166.523 121.876 167.477 122.935C167.953 123.465 168.483 123.836 168.801 124.047C168.96 124.153 169.119 124.259 169.225 124.259C169.225 124.259 169.278 124.259 169.331 124.259L168.854 124.577Z" fill="#1E1E1E"/>
<path d="M168.801 79.0101C169.542 79.2749 170.019 79.9635 170.019 80.758V86.0546C170.019 86.7961 169.542 87.4847 168.854 87.7495C168.854 87.7495 168.854 87.7495 168.748 87.7495C168.642 87.7495 168.536 87.8554 168.324 87.9614C167.953 88.1732 167.477 88.544 167 89.0736C166.047 90.133 164.987 91.8808 164.987 94.8469C164.987 97.813 166.047 99.5079 166.947 100.461C167.424 100.938 167.9 101.309 168.271 101.468C168.43 101.574 168.589 101.627 168.642 101.68C168.642 101.68 168.695 101.68 168.748 101.68C168.748 101.68 168.748 101.68 168.165 103.427C167.777 104.593 167.583 105.175 167.583 105.175C167.583 105.175 167.583 105.175 167.53 105.175C167.477 105.175 167.371 105.122 167.318 105.069C167.106 104.963 166.894 104.858 166.576 104.699C165.994 104.381 165.199 103.851 164.458 103.057C162.869 101.468 161.439 98.8194 161.439 94.8999C161.439 90.9804 162.869 88.3321 164.405 86.6372C165.146 85.8427 165.835 85.313 166.417 84.9423V81.8703C165.835 81.5525 165.146 81.0228 164.458 80.2813C162.869 78.6923 161.439 76.044 161.439 72.1245C161.439 68.205 162.869 65.5567 164.405 63.8618C165.146 63.0673 165.835 62.5376 166.417 62.1669V59.0949C165.835 58.7771 165.146 58.2474 164.458 57.5059C162.869 55.9169 161.439 53.2686 161.439 49.3491C161.439 45.4296 162.869 42.7813 164.405 41.0864C165.146 40.2919 165.835 39.7623 166.417 39.3915V36.3195C165.835 36.0017 165.146 35.472 164.458 34.7305C162.869 33.1415 161.439 30.4932 161.439 26.5737C161.439 22.6542 162.869 20.0059 164.405 18.311C165.146 17.5165 165.835 16.9869 166.417 16.6161V13.4381C165.04 13.2263 163.239 12.8026 161.439 11.8492C158.473 10.2072 155.824 7.13519 155.824 1.67969H159.479C159.479 5.65214 161.28 7.55891 163.186 8.61823C165.252 9.73052 167.53 9.88942 168.218 9.88942C169.225 9.88942 170.019 10.6839 170.019 11.7432V17.6754C170.019 18.4169 169.542 19.1055 168.854 19.3703C168.854 19.3703 168.854 19.3703 168.748 19.3703C168.642 19.3703 168.536 19.4763 168.324 19.5822C167.953 19.7941 167.477 20.1648 167 20.6945C166.047 21.7538 164.987 23.5017 164.987 26.4678C164.987 29.4339 166.047 31.1288 166.947 32.0822C167.424 32.5589 167.9 32.9296 168.271 33.0885C168.43 33.1945 168.589 33.2474 168.642 33.3004C168.642 33.3004 168.695 33.3004 168.748 33.3004C169.489 33.5652 169.966 34.2538 169.966 35.0483V40.3449C169.966 41.0864 169.489 41.775 168.801 42.0398C168.801 42.0398 168.801 42.0398 168.695 42.0398C168.589 42.0398 168.483 42.1457 168.271 42.2517C167.9 42.4635 167.424 42.8343 166.947 43.3639C165.994 44.4233 164.934 46.1711 164.934 49.1372C164.934 52.1033 165.994 53.7983 166.894 54.7517C167.371 55.2283 167.848 55.5991 168.218 55.758C168.377 55.8639 168.536 55.9169 168.589 55.9699C168.589 55.9699 168.642 55.9699 168.695 55.9699C169.436 56.2347 169.913 56.9232 169.913 57.7177V63.0143C169.913 63.7559 169.436 64.4444 168.748 64.7093C168.748 64.7093 168.748 64.7093 168.642 64.7093C168.536 64.7093 168.43 64.8152 168.218 64.9211C167.848 65.133 167.371 65.5037 166.894 66.0334C165.941 67.0927 164.881 68.8406 164.881 71.8067C164.881 74.7728 165.941 76.4677 166.841 77.4211C167.318 77.8978 167.795 78.2686 168.165 78.4275C168.324 78.5334 168.483 78.5864 168.536 78.6393C168.536 78.6393 168.589 78.6393 168.642 78.6393L168.801 79.0101Z" fill="#1E1E1E"/>
<path d="M80.8179 188.354C80.8179 188.354 80.8178 188.301 80.7649 188.195C80.7649 188.037 80.606 187.878 80.5001 187.613C80.2352 187.083 79.8645 186.395 79.2818 185.759C78.1696 184.435 76.3687 183.164 73.5615 183.164C70.7543 183.164 69.0064 184.435 68.0001 185.759C67.4704 186.448 67.0997 187.083 66.8878 187.613C66.7819 187.878 66.6759 188.089 66.6759 188.195C66.6759 188.248 66.6759 188.301 66.6759 188.354C66.4641 189.149 65.7225 189.731 64.9281 189.731H59.5255C58.731 189.731 58.0425 189.202 57.7776 188.46C57.7776 188.46 57.7776 188.407 57.7247 188.301C57.7247 188.142 57.5658 187.984 57.4598 187.719C57.195 187.189 56.8243 186.501 56.2416 185.865C55.1293 184.541 53.3285 183.27 50.4683 183.27C47.6082 183.27 45.9132 184.541 44.9069 185.865C44.3772 186.553 44.0065 187.189 43.7946 187.719C43.6887 187.984 43.5827 188.195 43.5827 188.301C43.5827 188.354 43.5827 188.407 43.5827 188.46C43.3709 189.255 42.6293 189.837 41.8349 189.837H36.4323C35.6378 189.837 34.9493 189.308 34.6845 188.566C34.6845 188.566 34.6844 188.513 34.6315 188.407C34.6315 188.248 34.4726 188.089 34.3667 187.825C34.1018 187.295 33.7311 186.606 33.1484 185.971C32.0361 184.647 30.2353 183.376 27.3751 183.376C24.515 183.376 22.8201 184.647 21.8137 185.971C21.284 186.659 20.9133 187.295 20.7014 187.825C20.5955 188.089 20.4895 188.301 20.4895 188.407C20.4895 188.46 20.4895 188.513 20.4895 188.566C20.2777 189.361 19.5362 189.943 18.7417 189.943H13.3391C12.3328 189.943 11.5383 189.149 11.5383 188.089C11.5383 184.117 9.73745 182.21 7.83067 181.151C5.76499 180.039 3.48745 179.88 2.79889 179.88C1.79254 179.88 0.998047 179.085 0.998047 178.026V172.094H4.65271V176.331C6.02982 176.543 7.83067 176.967 9.63151 177.92C12.2269 179.35 14.6103 181.945 15.14 186.236H17.5764C17.8942 185.547 18.4239 184.594 19.1654 183.64C20.7544 181.681 23.4027 179.668 27.587 179.668C31.7713 179.668 34.4726 181.628 36.1145 183.587C36.909 184.541 37.4916 185.494 37.8094 186.183H40.7226C41.0404 185.494 41.57 184.541 42.3116 183.587C43.9005 181.628 46.5488 179.615 50.7332 179.615C54.9175 179.615 57.6187 181.575 59.2607 183.534C60.0552 184.488 60.6378 185.441 60.9556 186.13H63.9217C64.2395 185.441 64.7692 184.488 65.5107 183.534C67.0997 181.575 69.748 179.562 73.9323 179.562C78.1166 179.562 80.8178 181.522 82.4598 183.481C83.2543 184.435 83.8369 185.388 84.1547 186.077H88.4979C89.4513 186.13 90.1928 186.924 90.1928 187.931C90.1928 188.937 89.4513 189.678 88.4979 189.731H82.9365C82.142 189.731 81.4534 189.202 81.1886 188.46L80.8179 188.354Z" fill="#1E1E1E"/>
<path d="M85.7465 16.5703V173.032H82.0918V16.5703H85.7465Z" fill="#1E1E1E"/>
<path d="M153.81 15.6719C154.816 15.6719 155.611 16.4664 155.611 17.5257V172.081C155.611 173.087 154.816 173.934 153.81 173.934H16.6807C15.6744 173.934 14.8799 173.14 14.8799 172.081V17.5257C14.8799 16.5193 15.6744 15.6719 16.6807 15.6719H153.81ZM18.4816 170.227H151.956V19.3795H18.4816V170.227Z" fill="#1E1E1E"/>
<path d="M82.1997 159.901C83.2061 159.901 84.0006 160.695 84.0006 161.754C84.0006 162.814 83.2061 163.608 82.1997 163.608H18.2697C17.2634 163.608 16.4689 162.814 16.4689 161.754C16.4689 160.695 17.2634 159.901 18.2697 159.901H82.1997ZM82.1997 149.572C83.2061 149.572 84.0006 150.367 84.0006 151.426C84.0006 152.485 83.2061 153.28 82.1997 153.28H18.2697C17.2634 153.28 16.4689 152.485 16.4689 151.426C16.4689 150.367 17.2634 149.572 18.2697 149.572H82.1997ZM82.1997 139.297C83.2061 139.297 84.0006 140.091 84.0006 141.151C84.0006 142.21 83.2061 143.004 82.1997 143.004H18.2697C17.2634 143.004 16.4689 142.21 16.4689 141.151C16.4689 140.091 17.2634 139.297 18.2697 139.297H82.1997ZM82.1997 128.439C83.2061 128.439 84.0006 129.233 84.0006 130.293C84.0006 131.352 83.2061 132.146 82.1997 132.146H18.2697C17.2634 132.146 16.4689 131.352 16.4689 130.293C16.4689 129.233 17.2634 128.439 18.2697 128.439H82.1997ZM82.1997 117.104C83.2061 117.104 84.0006 117.898 84.0006 118.958C84.0006 120.017 83.2061 120.812 82.1997 120.812H17.3693C16.3629 120.812 15.5684 120.017 15.5684 118.958C15.5684 117.898 16.3629 117.104 17.3693 117.104H82.1997ZM82.1997 105.61C83.2061 105.61 84.0006 106.405 84.0006 107.464C84.0006 108.523 83.2061 109.318 82.1997 109.318H18.2697C17.2634 109.318 16.4689 108.523 16.4689 107.464C16.4689 106.405 17.2634 105.61 18.2697 105.61H82.1997ZM17.793 33.0469C19.2231 34.5829 31.829 47.2418 50.3671 47.2418C63.1319 47.2418 74.6256 41.8922 82.7294 33.2587L85.3777 35.8011C82.4116 38.9791 78.9688 41.6803 75.2612 43.9579L85.3247 57.729C85.9073 58.5235 85.7484 59.6888 84.9539 60.2714C84.1595 60.854 82.9942 60.6951 82.4116 59.9006L72.0832 45.7587C69.4879 47.0829 66.7336 48.1422 63.8735 48.9897L79.6044 94.8053H83.8946C84.901 94.8053 85.6955 95.5998 85.6955 96.6591C85.6955 97.7184 84.901 98.5129 83.8946 98.5129H78.3332H16.6807C15.6744 98.5129 14.8799 97.7184 14.8799 96.6591C14.8799 95.5998 15.6744 94.8053 16.6807 94.8053H20.0176L36.543 48.7248C33.7358 47.8244 31.0875 46.7121 28.757 45.4939L18.2167 59.9006C17.6341 60.6951 16.4689 60.907 15.6744 60.2714C14.8799 59.6888 14.668 58.5235 15.3036 57.729L25.579 43.693C19.6468 40.1443 15.9922 36.3837 15.1977 35.5363L17.846 33.0469H17.793ZM60.3777 49.8901C57.7294 50.4727 54.9752 50.7905 52.168 50.8964V94.8582H75.8438L60.4307 49.943L60.3777 49.8901ZM23.8841 94.8053H48.4603V50.8435C45.4943 50.7375 42.687 50.3138 40.0387 49.6782L23.8841 94.8053Z" fill="#1E1E1E"/>
<path d="M115.032 135.012C115.032 135.012 115.085 135.33 115.19 135.224C119.057 131.41 125.307 130.933 129.597 130.933C131.292 130.933 133.464 131.41 133.464 132.999C133.464 134.747 132.087 135.542 130.762 135.436C122.765 134.641 119.11 137.342 117.044 138.825C113.813 140.626 107.987 146.664 105.445 149.101C101.631 152.702 96.7053 156.357 92.2562 159.164C90.1375 160.541 87.807 161.707 85.6884 163.031C85.5295 163.137 85.2646 163.031 85.2646 162.819V158.264C85.2646 158.264 85.3176 158.052 85.4235 157.999C97.4468 152.226 111.377 141.05 112.436 126.643C113.231 115.785 108.04 103.55 98.2413 98.4123C94.1629 96.2407 94.004 97.4589 92.1502 96.5055C90.6672 95.764 91.0909 93.3276 93.0506 93.2216C95.6989 93.0098 100.89 95.0755 103.114 96.7174C110.847 102.438 113.39 107.417 115.826 115.838C115.932 116.156 116.303 116.156 116.356 115.838L116.779 112.713V82.9992C116.779 82.8403 116.885 82.7344 117.044 82.7344H120.646C120.646 82.7344 120.911 82.8403 120.911 82.9992V114.779C120.911 115.097 121.335 115.203 121.493 114.938C123.506 111.018 128.803 96.6115 145.699 97.1411C145.858 97.1411 145.964 97.3 145.964 97.406C145.593 106.728 138.548 114.461 130.392 118.116C127.637 119.334 124.142 118.486 122.447 120.658" fill="#1E1E1E"/>
<path d="M120.914 83.6951C120.914 83.3244 121.285 82.9536 121.656 82.9006C127.959 81.8413 134.58 77.551 137.811 72.0426C142.419 64.1506 141.253 51.2269 139.823 42.4875C139.4 39.8922 138.87 37.2969 138.181 34.7545C138.075 34.3837 137.758 34.1719 137.387 34.1719H100.311C99.9399 34.1719 99.6221 34.3837 99.5162 34.7545C98.6687 37.8265 98.0861 40.9515 97.6094 44.1295C96.3912 52.71 95.4378 64.5214 99.9929 72.2015C103.224 77.657 109.792 81.8413 116.042 82.9006C116.412 82.9536 116.73 83.3244 116.73 83.6951H120.861H120.914ZM135.321 59.8074H102.429C102.006 59.8074 101.635 59.4367 101.635 59.0129C101.529 52.3922 102.323 45.7714 103.436 39.2566C103.489 38.8859 103.859 38.5681 104.23 38.5681H133.573C133.944 38.5151 134.315 38.7799 134.368 39.1507C135.48 45.6655 136.328 52.3392 136.169 58.96C136.169 59.3837 135.798 59.7545 135.374 59.7545L135.321 59.8074Z" fill="#1E1E1E"/>
</g>
<path d="M135.633 63.625H102.133C101.857 63.625 101.632 63.852 101.644 64.1279C102.057 73.3014 113.66 78.125 115.133 78.125H122.633C128.024 78.125 135.817 72.3601 136.124 64.1265C136.134 63.8506 135.909 63.625 135.633 63.625Z" fill="#CF713F"/>
</svg>
