<svg width="244" height="272" viewBox="0 0 244 272" fill="none" xmlns="http://www.w3.org/2000/svg">
<g clip-path="url(#clip0_1766_7822)">
<path d="M2.43691 113.306C2.43529 113.306 2.43394 113.307 2.43259 113.308L2.43219 113.307C2.45011 113.3 2.49096 113.284 2.55134 113.258C2.67247 113.204 2.87003 113.11 3.11873 112.968C3.6184 112.682 4.30689 112.212 4.99981 111.497C6.33764 110.118 7.83872 107.687 7.83874 103.471C7.83874 99.2496 6.33219 96.7004 4.95459 95.2071C4.24608 94.439 3.54227 93.9205 3.03104 93.6011C2.77651 93.4421 2.57382 93.3348 2.44832 93.2728C2.38574 93.2419 2.34267 93.2228 2.32288 93.2141C2.31633 93.2112 2.31236 93.2095 2.31109 93.209C2.31217 93.2094 2.31509 93.2104 2.31935 93.2121C2.32146 93.213 2.32391 93.2141 2.32682 93.2153C2.32829 93.2159 2.32986 93.2166 2.33153 93.2173C2.33237 93.2176 2.33387 93.2179 2.33429 93.218C1.33582 92.8222 0.6797 91.8553 0.679688 90.7789V83.1676L0.681654 83.0628C0.724427 81.9849 1.42359 81.0384 2.44832 80.6864C2.44779 80.6866 2.4464 80.6869 2.44556 80.6872C2.4438 80.6878 2.44201 80.6886 2.44045 80.6891C2.43746 80.6902 2.43484 80.6911 2.43259 80.6919L2.43219 80.6915C2.45013 80.6845 2.49099 80.6684 2.55134 80.6418C2.67248 80.5885 2.87007 80.4948 3.11873 80.3526C3.6184 80.0669 4.30685 79.5962 4.99981 78.8818C6.33768 77.5024 7.83874 75.0713 7.83874 70.8551C7.83874 66.6337 6.33219 64.0845 4.95459 62.5912C4.24608 61.8231 3.54226 61.3046 3.03104 60.9852C2.77657 60.8262 2.57383 60.7193 2.44832 60.6573C2.38573 60.6264 2.34267 60.6069 2.32288 60.5982C2.31628 60.5953 2.3123 60.5936 2.31109 60.5931C2.31217 60.5935 2.31509 60.5945 2.31935 60.5962C2.32145 60.5971 2.32391 60.5982 2.32682 60.5994C2.32828 60.6 2.32987 60.6007 2.33153 60.6013C2.33237 60.6017 2.33387 60.6024 2.33429 60.6025L2.33468 60.6021C1.33603 60.2064 0.679688 59.2395 0.679688 58.163V50.5521C0.679688 49.4309 1.39065 48.4337 2.44871 48.0705C2.44827 48.0706 2.44645 48.0709 2.44556 48.0713C2.44379 48.0719 2.44202 48.0727 2.44045 48.0732C2.43746 48.0743 2.43484 48.0752 2.43259 48.076C2.42792 48.0776 2.42466 48.079 2.42315 48.0795C2.42021 48.0806 2.42374 48.0794 2.43259 48.076C2.4505 48.069 2.49096 48.0525 2.55134 48.0259C2.67248 47.9726 2.8701 47.8788 3.11873 47.7367C3.6184 47.4509 4.30686 46.9803 4.99981 46.2659C6.33767 44.8865 7.83874 42.4554 7.83874 38.2392C7.83871 34.0179 6.33216 31.469 4.95459 29.9756C4.2461 29.2076 3.54227 28.6891 3.03104 28.3697C2.77654 28.2107 2.57383 28.1033 2.44832 28.0414C2.38573 28.0105 2.34267 27.991 2.32288 27.9823L2.31935 27.9807C2.32145 27.9816 2.32393 27.9827 2.32682 27.9839C2.32812 27.9844 2.32968 27.9845 2.33114 27.985C1.33452 27.5884 0.679757 26.6227 0.679688 25.5475V17.0199C0.67978 15.5713 1.85149 14.3968 3.29685 14.3968C4.27186 14.3968 7.55371 14.1694 10.494 12.5398C13.2345 11.0209 15.8188 8.2396 15.8188 2.56859C15.8188 1.11992 16.9906 -0.0544708 18.436 -0.0545573H26.1911L26.3016 -0.0521927C27.4396 -0.00432181 28.4216 0.778784 28.7186 1.88955C28.7185 1.88922 28.7184 1.88788 28.7182 1.88719C28.7179 1.8858 28.7177 1.88435 28.7174 1.88324C28.7168 1.88104 28.7162 1.87926 28.7159 1.87812C28.7153 1.87627 28.7153 1.87597 28.7159 1.87812C28.717 1.88196 28.7202 1.89362 28.7261 1.9132C28.738 1.95253 28.7598 2.02217 28.7925 2.11773C28.8584 2.30961 28.9676 2.60292 29.128 2.96308C29.4514 3.68936 29.9683 4.65327 30.7342 5.60712C32.2247 7.46327 34.6608 9.31202 38.7371 9.31207C42.8255 9.31207 45.3762 7.4508 46.9747 5.55746C47.7908 4.59081 48.3535 3.61538 48.7103 2.88229C48.8873 2.5185 49.0095 2.22224 49.0842 2.02788C49.1214 1.93101 49.1466 1.86021 49.1605 1.81979L49.1707 1.78984C49.5108 0.693126 50.5236 -0.0544958 51.6699 -0.0545573H59.4251L59.5355 -0.0521927C60.6736 -0.00431666 61.6555 0.778786 61.9526 1.88955C61.9525 1.88922 61.9524 1.88788 61.9522 1.88719C61.9518 1.8858 61.9513 1.88435 61.951 1.88324C61.9504 1.88108 61.9501 1.87925 61.9498 1.87812C61.9493 1.87626 61.9492 1.87597 61.9498 1.87812C61.9509 1.88197 61.9541 1.89362 61.96 1.9132C61.9719 1.95253 61.9937 2.02217 62.0265 2.11773C62.0923 2.30961 62.2015 2.60292 62.3619 2.96308C62.6853 3.68936 63.2022 4.65327 63.9681 5.60712C65.4586 7.46327 67.8947 9.31202 71.971 9.31207C76.0595 9.31207 78.6101 7.4508 80.2086 5.55746C81.0247 4.59081 81.5875 3.61538 81.9442 2.88229C82.1212 2.51849 82.2434 2.22224 82.3181 2.02788C82.3554 1.93101 82.3805 1.86021 82.3944 1.81979L82.4046 1.78984C82.7448 0.693124 83.7576 -0.0545012 84.9038 -0.0545573H92.659L92.7695 -0.0521927C93.9054 -0.00439658 94.8859 0.775812 95.1849 1.88324C95.1844 1.88108 95.1841 1.87925 95.1838 1.87812C95.1849 1.88198 95.1881 1.89363 95.194 1.9132C95.2059 1.95253 95.2276 2.02217 95.2604 2.11773C95.3263 2.30961 95.4354 2.60292 95.5958 2.96308C95.9193 3.68936 96.4362 4.65327 97.2021 5.60712C98.6925 7.46328 101.129 9.31203 105.205 9.31207C109.293 9.31207 111.844 7.45077 113.442 5.55746C114.258 4.59078 114.821 3.61541 115.178 2.88229C115.355 2.51849 115.477 2.22224 115.552 2.02788C115.589 1.93101 115.614 1.86021 115.628 1.81979L115.639 1.78984C115.979 0.693123 116.991 -0.0545039 118.138 -0.0545573H126.078V-0.0470693C127.437 0.0482853 128.51 1.18236 128.51 2.56859C128.51 3.95481 127.437 5.08889 126.078 5.18425V5.19173H119.878C119.38 6.21375 118.595 7.57582 117.438 8.94635C115.083 11.7363 111.166 14.5584 105.205 14.5584C99.2316 14.5583 95.3947 11.7238 93.1246 8.89669C92.0427 7.54937 91.3188 6.21106 90.8577 5.19173H86.6438C86.1457 6.21375 85.3614 7.57582 84.2043 8.94635C81.8489 11.7363 77.9324 14.5584 71.971 14.5584C65.9977 14.5583 62.1608 11.7238 59.8906 8.89669C58.8087 7.54936 58.0848 6.21106 57.6238 5.19173H53.4098C52.9117 6.21375 52.1275 7.57582 50.9704 8.94635C48.6149 11.7363 44.6985 14.5584 38.7371 14.5584C32.7638 14.5583 28.9268 11.7238 26.6567 8.89669C25.5748 7.54936 24.8509 6.21106 24.3899 5.19173H20.8986C20.148 11.3633 16.7585 15.0627 13.0267 17.1311C10.4986 18.5322 7.87038 19.1634 5.91401 19.4397V23.9908C6.72892 24.5114 7.76604 25.2949 8.79816 26.4138C11 28.8006 13.073 32.5977 13.0731 38.2392C13.0731 43.886 10.9945 47.6116 8.75294 49.9227C7.74201 50.9651 6.72653 51.6897 5.91401 52.1743V56.6063C6.72894 57.1269 7.76599 57.9108 8.79816 59.0297C11 61.4166 13.0731 65.2136 13.0731 70.8551C13.0731 76.5019 10.9945 80.2275 8.75294 82.5387C7.74208 83.5809 6.72649 84.3053 5.91401 84.7898V89.2222C6.72893 89.7429 7.76601 90.5267 8.79816 91.6456C11 94.0325 13.0731 97.8295 13.0731 103.471C13.073 109.118 10.9945 112.843 8.75294 115.154C7.74203 116.196 6.72652 116.921 5.91401 117.406V121.838C6.72892 122.359 7.76604 123.142 8.79816 124.261C11 126.648 13.073 130.445 13.0731 136.087C13.0731 141.733 10.9945 145.459 8.75294 147.77C7.65621 148.901 6.55491 149.659 5.7123 150.141C5.2899 150.383 4.92808 150.557 4.65773 150.676C4.52235 150.736 4.40928 150.782 4.32232 150.816C4.27883 150.833 4.24155 150.846 4.21144 150.857C4.19643 150.863 4.18325 150.868 4.17173 150.872C4.16595 150.874 4.16049 150.875 4.15561 150.877C4.15319 150.878 4.15072 150.879 4.14853 150.88C4.14743 150.88 4.14591 150.881 4.14538 150.881C4.14352 150.88 4.12509 150.831 3.29685 148.399C2.45128 145.917 2.44975 145.917 2.44832 145.918C2.44783 145.918 2.44642 145.919 2.44556 145.919C2.44383 145.92 2.44199 145.92 2.44045 145.921C2.43737 145.922 2.43449 145.923 2.43219 145.923L2.55134 145.873C2.67248 145.82 2.8701 145.726 3.11873 145.584C3.6184 145.298 4.30686 144.828 4.99981 144.113C6.33767 142.734 7.83874 140.303 7.83874 136.087C7.83871 131.865 6.33216 129.316 4.95459 127.823C4.24609 127.055 3.54227 126.536 3.03104 126.217C2.77653 126.058 2.57382 125.951 2.44832 125.889C2.38573 125.858 2.34267 125.839 2.32288 125.83C2.31344 125.826 2.30949 125.824 2.31109 125.824C2.31217 125.825 2.31509 125.826 2.31935 125.828C2.32145 125.829 2.32392 125.83 2.32682 125.831C2.32801 125.832 2.32941 125.832 2.33075 125.832C1.33431 125.436 0.679747 124.47 0.679688 123.395V115.784C0.679688 114.667 1.38532 113.672 2.43691 113.306ZM2.44635 113.303L2.44556 113.303C2.44505 113.303 2.44449 113.303 2.44399 113.303C2.44477 113.303 2.44557 113.303 2.44635 113.303Z" fill="white"/>
<path d="M7.83874 233.551C7.83872 229.334 6.33764 226.904 4.99981 225.524C4.30689 224.81 3.6184 224.339 3.11873 224.053C2.87003 223.911 2.67247 223.817 2.55134 223.764C2.49096 223.737 2.45011 223.721 2.43219 223.714L2.43259 223.714C2.43487 223.715 2.43741 223.716 2.44045 223.717C2.442 223.717 2.44382 223.718 2.44556 223.718C2.44644 223.719 2.44786 223.72 2.44832 223.72L2.44871 223.719C1.39069 223.356 0.679688 222.359 0.679688 221.238V213.627L0.681654 213.526C0.71987 212.523 1.32705 211.629 2.24424 211.225L2.33153 211.189C2.3299 211.189 2.32826 211.19 2.32682 211.19C2.32392 211.192 2.32145 211.193 2.31935 211.194C2.31509 211.195 2.31217 211.197 2.31109 211.197C2.30949 211.198 2.31344 211.196 2.32288 211.192C2.34267 211.183 2.38573 211.164 2.44832 211.133C2.57382 211.071 2.77653 210.964 3.03104 210.805C3.54227 210.485 4.24609 209.967 4.95459 209.199C6.33216 207.705 7.83871 205.156 7.83874 200.935C7.83874 196.719 6.33767 194.288 4.99981 192.908C4.30686 192.194 3.6184 191.723 3.11873 191.438C2.8701 191.295 2.67248 191.202 2.55134 191.148L2.43219 191.098C2.43449 191.099 2.43737 191.1 2.44045 191.101C2.44199 191.102 2.44383 191.102 2.44556 191.103C2.44642 191.103 2.44783 191.104 2.44832 191.104C2.44839 191.104 2.44849 191.104 2.44871 191.103C1.39071 190.74 0.679688 189.743 0.679688 188.622V181.011C0.679688 179.935 1.33596 178.967 2.33468 178.572C2.33426 178.572 2.33237 178.573 2.33153 178.573C2.32987 178.574 2.32828 178.574 2.32682 178.575C2.32391 178.576 2.32145 178.577 2.31935 178.578C2.31509 178.58 2.31217 178.581 2.31109 178.581C2.31229 178.581 2.31627 178.579 2.32288 178.576C2.34267 178.567 2.38573 178.548 2.44832 178.517C2.57383 178.455 2.77657 178.348 3.03104 178.189C3.54225 177.87 4.24608 177.351 4.95459 176.583C6.33218 175.09 7.83873 172.54 7.83874 168.319C7.83874 164.103 6.33768 161.672 4.99981 160.292C4.30685 159.578 3.6184 159.107 3.11873 158.822C2.87007 158.679 2.67248 158.586 2.55134 158.532C2.491 158.506 2.45013 158.49 2.43219 158.483L2.43259 158.482C2.43484 158.483 2.43746 158.484 2.44045 158.485C2.44201 158.486 2.4438 158.486 2.44556 158.487L2.44832 158.488C1.3905 158.124 0.67974 157.128 0.679688 156.007V148.395C0.679693 147.319 1.33581 146.352 2.33429 145.956C2.33387 145.956 2.33237 145.957 2.33153 145.957C2.32986 145.958 2.32829 145.958 2.32682 145.959C2.32391 145.96 2.32146 145.961 2.31935 145.962C2.31509 145.964 2.31217 145.965 2.31109 145.965C2.31234 145.965 2.31632 145.963 2.32288 145.96C2.34267 145.951 2.38573 145.932 2.44832 145.901C2.57383 145.839 2.7766 145.732 3.03104 145.573C3.54226 145.254 4.24608 144.735 4.95459 143.967C6.33219 142.474 7.83874 139.925 7.83874 135.703C7.83872 131.487 6.33764 129.056 4.99981 127.677C4.30689 126.962 3.6184 126.492 3.11873 126.206C2.87004 126.064 2.67247 125.97 2.55134 125.916C2.49096 125.89 2.45011 125.874 2.43219 125.867C2.4345 125.868 2.43735 125.868 2.44045 125.87C2.442 125.87 2.44381 125.871 2.44556 125.871C2.44645 125.871 2.44787 125.872 2.44832 125.872C2.44903 125.873 2.44989 125.872 2.55605 125.563L4.03764 121.219C4.13659 120.93 4.1442 120.911 4.14538 120.909C4.1459 120.91 4.14744 120.91 4.14853 120.91C4.15073 120.911 4.15318 120.912 4.15561 120.913C4.16049 120.915 4.16595 120.916 4.17173 120.918C4.18322 120.923 4.19649 120.927 4.21144 120.933C4.24155 120.944 4.27883 120.958 4.32232 120.974C4.40927 121.008 4.52237 121.054 4.65773 121.114C4.92808 121.233 5.2899 121.408 5.7123 121.649C6.55491 122.131 7.65622 122.889 8.75294 124.02C10.9945 126.331 13.073 130.057 13.0731 135.703C13.0731 141.345 11 145.142 8.79816 147.529C7.76609 148.647 6.72891 149.431 5.91401 149.952V154.384C6.72652 154.869 7.742 155.593 8.75294 156.636C10.9945 158.947 13.0731 162.672 13.0731 168.319C13.0731 173.961 11 177.758 8.79816 180.145C7.76606 181.263 6.72892 182.047 5.91401 182.567V187C6.72656 187.484 7.74194 188.209 8.75294 189.251C10.9945 191.563 13.0731 195.288 13.0731 200.935C13.073 206.577 11 210.374 8.79816 212.76C7.76611 213.879 6.7289 214.662 5.91401 215.183V219.615C6.72655 220.1 7.74196 220.825 8.75294 221.867C10.9945 224.179 13.073 227.904 13.0731 233.551C13.0731 239.192 11 242.989 8.79816 245.376C7.76609 246.495 6.72891 247.278 5.91401 247.799V252.35C7.8704 252.626 10.4985 253.258 13.0267 254.659C17.2599 257.005 21.0531 261.45 21.0531 269.222H15.8188C15.8188 263.551 13.2345 260.769 10.494 259.25C7.55371 257.621 4.27186 257.393 3.29685 257.393C1.85143 257.393 0.679688 256.219 0.679688 254.77V246.243C0.679698 245.166 1.33582 244.199 2.33429 243.804C2.33387 243.804 2.33237 243.804 2.33153 243.804C2.32986 243.805 2.32829 243.806 2.32682 243.806C2.32391 243.807 2.32146 243.809 2.31935 243.809C2.31509 243.811 2.31217 243.812 2.31109 243.813C2.31235 243.812 2.31633 243.81 2.32288 243.807C2.34267 243.799 2.38574 243.78 2.44832 243.749C2.57382 243.687 2.77651 243.579 3.03104 243.42C3.54227 243.101 4.24608 242.583 4.95459 241.814C6.33219 240.321 7.83874 237.772 7.83874 233.551Z" fill="white"/>
<path d="M126.026 -0.0585938C127.169 -0.0585938 128.18 0.685885 128.522 1.77871C128.522 1.77658 128.522 1.77665 128.522 1.77871C128.524 1.78298 128.528 1.79558 128.535 1.81576C128.549 1.85615 128.574 1.92695 128.611 2.02384C128.686 2.21821 128.809 2.51445 128.986 2.87826C129.342 3.61136 129.905 4.58677 130.721 5.55342C132.32 7.44675 134.87 9.30802 138.958 9.30804C143.035 9.30804 145.471 7.45926 146.961 5.60308C147.727 4.64918 148.244 3.68535 148.568 2.95905C148.728 2.59889 148.837 2.30558 148.903 2.1137C148.936 2.01814 148.957 1.94852 148.969 1.90916C148.975 1.88951 148.979 1.87749 148.98 1.87369C149.29 0.733388 150.324 -0.0585938 151.505 -0.0585938H159.259L159.367 -0.0562291C160.47 -0.011206 161.431 0.725102 161.759 1.78935C161.759 1.78903 161.759 1.78766 161.759 1.78699L161.756 1.77871C161.756 1.77658 161.756 1.77665 161.756 1.77871C161.758 1.78299 161.762 1.79559 161.769 1.81576C161.783 1.85616 161.808 1.92696 161.845 2.02384C161.92 2.21821 162.042 2.51445 162.22 2.87826C162.576 3.61136 163.139 4.58678 163.955 5.55342C165.554 7.44675 168.104 9.30802 172.192 9.30804C176.269 9.30804 178.705 7.45926 180.195 5.60308C180.961 4.64918 181.478 3.68535 181.802 2.95905C181.962 2.59889 182.071 2.30558 182.137 2.1137C182.17 2.01814 182.191 1.94851 182.203 1.90916C182.209 1.8895 182.213 1.87749 182.214 1.87369C182.524 0.733391 183.558 -0.0585938 184.739 -0.0585938H192.493C193.641 -0.0585938 194.654 0.690739 194.993 1.78935C194.993 1.78903 194.993 1.78766 194.993 1.78699L194.99 1.77871C194.99 1.77658 194.99 1.77665 194.99 1.77871C194.992 1.78299 194.996 1.79559 195.003 1.81576C195.017 1.85616 195.042 1.92696 195.079 2.02384C195.154 2.21821 195.276 2.51445 195.453 2.87826C195.81 3.61136 196.373 4.58678 197.189 5.55342C198.788 7.44676 201.338 9.30803 205.426 9.30804C209.503 9.30804 211.939 7.45926 213.429 5.60308C214.195 4.64918 214.712 3.68535 215.036 2.95905C215.196 2.59889 215.305 2.30558 215.371 2.1137C215.404 2.01814 215.425 1.94851 215.437 1.90916C215.443 1.8895 215.447 1.87749 215.448 1.87369C215.758 0.733391 216.792 -0.0585938 217.973 -0.0585938H225.727C227.173 -0.0585938 228.345 1.11583 228.345 2.56455C228.345 8.23566 230.929 11.0168 233.67 12.5357C236.61 14.1654 239.892 14.3927 240.867 14.3927C242.312 14.3928 243.484 15.5673 243.484 17.0159V25.5435H238.25V19.4357C236.293 19.1593 233.665 18.5283 231.137 17.127C227.405 15.0587 224.016 11.3593 223.265 5.1877H219.774C219.313 6.20703 218.589 7.5453 217.507 8.89265C215.237 11.7198 211.4 14.5543 205.426 14.5543C199.465 14.5543 195.549 11.7323 193.193 8.94231C192.036 7.57178 191.252 6.20973 190.754 5.1877H186.54C186.079 6.20703 185.355 7.5453 184.273 8.89265C182.003 11.7198 178.166 14.5543 172.192 14.5543C166.231 14.5543 162.315 11.7323 159.959 8.94231C158.802 7.57178 158.018 6.20973 157.52 5.1877H153.306C152.845 6.20703 152.121 7.5453 151.039 8.89265C148.769 11.7198 144.932 14.5543 138.958 14.5543C132.997 14.5543 129.081 11.7323 126.725 8.94231C125.568 7.57178 124.784 6.20973 124.286 5.1877H118.086V5.18021C116.727 5.08494 115.654 3.95084 115.654 2.56455C115.654 1.17826 116.727 0.0441595 118.086 -0.0511058V-0.0585938H126.026Z" fill="white"/>
<path d="M242.029 178.56C243.026 178.957 243.681 179.923 243.681 180.999V188.61C243.681 189.731 242.97 190.728 241.912 191.091L241.912 191.092C241.913 191.091 241.914 191.091 241.915 191.09C241.917 191.09 241.919 191.089 241.92 191.089C241.923 191.088 241.926 191.087 241.928 191.086C241.933 191.084 241.936 191.083 241.938 191.083C241.941 191.082 241.937 191.083 241.928 191.086C241.911 191.093 241.87 191.11 241.81 191.136C241.689 191.19 241.491 191.283 241.242 191.425C240.743 191.711 240.054 192.182 239.361 192.896C238.023 194.276 236.522 196.707 236.522 200.923C236.522 205.144 238.028 207.693 239.406 209.186C240.115 209.955 240.819 210.473 241.33 210.792C241.584 210.951 241.787 211.059 241.913 211.121C241.975 211.152 242.018 211.171 242.038 211.18C242.037 211.179 242.035 211.179 242.034 211.178C242.033 211.178 242.032 211.178 242.031 211.177C243.027 211.574 243.681 212.54 243.681 213.615V221.226C243.681 222.347 242.97 223.344 241.912 223.707L241.912 223.708C241.913 223.707 241.914 223.707 241.915 223.706C241.917 223.706 241.919 223.705 241.92 223.705C241.923 223.704 241.926 223.702 241.928 223.702L241.929 223.702C241.911 223.709 241.87 223.725 241.81 223.752C241.689 223.805 241.491 223.899 241.242 224.041C240.743 224.327 240.054 224.798 239.361 225.512C238.023 226.892 236.522 229.322 236.522 233.538C236.522 237.76 238.028 240.309 239.406 241.802C240.115 242.57 240.819 243.089 241.33 243.408C241.584 243.567 241.787 243.675 241.913 243.737C241.975 243.767 242.018 243.787 242.038 243.795C242.044 243.798 242.048 243.8 242.05 243.8L242.034 243.794C242.032 243.794 242.031 243.793 242.029 243.792L242.027 243.791C243.025 244.187 243.681 245.154 243.681 246.231V254.758C243.681 256.206 242.509 257.381 241.064 257.381C240.089 257.381 236.807 257.609 233.867 259.238C231.126 260.757 228.542 263.538 228.542 269.209C228.542 270.658 227.37 271.833 225.925 271.833H218.17C216.989 271.833 215.956 271.041 215.645 269.9L215.635 269.865C215.623 269.825 215.601 269.756 215.568 269.66C215.502 269.468 215.393 269.175 215.233 268.815C214.91 268.089 214.392 267.124 213.626 266.171C212.136 264.314 209.7 262.466 205.624 262.466C201.535 262.466 198.985 264.327 197.386 266.221C196.57 267.187 196.007 268.163 195.651 268.896C195.474 269.259 195.351 269.555 195.276 269.75C195.239 269.847 195.214 269.918 195.2 269.958C195.193 269.978 195.189 269.991 195.188 269.995L195.19 269.987C195.19 269.986 195.191 269.985 195.191 269.985L195.191 269.985C194.852 271.083 193.838 271.833 192.691 271.833H184.936C183.755 271.833 182.722 271.041 182.411 269.9L182.401 269.865C182.389 269.825 182.367 269.756 182.334 269.66C182.268 269.468 182.159 269.175 181.999 268.815C181.676 268.089 181.158 267.124 180.392 266.171C178.902 264.314 176.466 262.466 172.39 262.466C168.301 262.466 165.751 264.327 164.152 266.221C163.336 267.187 162.774 268.163 162.417 268.896C162.24 269.259 162.117 269.555 162.042 269.75C162.005 269.847 161.98 269.918 161.966 269.958C161.959 269.978 161.955 269.991 161.954 269.995L161.956 269.987C161.957 269.986 161.957 269.985 161.957 269.985L161.957 269.985C161.618 271.083 160.604 271.833 159.457 271.833H151.702C150.522 271.833 149.488 271.041 149.177 269.9L149.167 269.865C149.155 269.825 149.133 269.756 149.1 269.66C149.034 269.468 148.926 269.175 148.765 268.815C148.442 268.089 147.925 267.124 147.159 266.171C145.668 264.314 143.232 262.466 139.156 262.466C135.067 262.466 132.517 264.327 130.918 266.221C130.102 267.187 129.54 268.163 129.183 268.896C129.006 269.259 128.883 269.555 128.809 269.75C128.771 269.847 128.746 269.918 128.732 269.958C128.725 269.978 128.721 269.991 128.72 269.995L128.722 269.987L128.723 269.985C128.384 271.083 127.37 271.833 126.223 271.833H118.283V271.825C116.924 271.73 115.851 270.596 115.851 269.209C115.851 267.823 116.924 266.688 118.283 266.593V266.586H124.483C124.981 265.564 125.766 264.202 126.923 262.832C129.278 260.042 133.194 257.22 139.156 257.22C145.129 257.22 148.966 260.054 151.236 262.881C152.318 264.229 153.042 265.567 153.503 266.586H157.717C158.215 265.564 159 264.202 160.157 262.832C162.512 260.042 166.428 257.22 172.39 257.22C178.363 257.22 182.2 260.054 184.47 262.881C185.552 264.229 186.276 265.567 186.737 266.586H190.951C191.449 265.564 192.233 264.202 193.391 262.832C195.746 260.042 199.662 257.22 205.624 257.22C211.597 257.22 215.434 260.054 217.704 262.881C218.786 264.229 219.51 265.567 219.971 266.586H223.462C224.213 260.415 227.602 256.715 231.334 254.647C233.862 253.246 236.491 252.614 238.447 252.338V247.787C237.632 247.266 236.595 246.483 235.563 245.364C233.361 242.977 231.288 239.18 231.288 233.538C231.288 227.892 233.366 224.166 235.608 221.855C236.619 220.813 237.634 220.088 238.447 219.603V215.171C237.632 214.65 236.595 213.867 235.563 212.748C233.361 210.361 231.288 206.564 231.288 200.923C231.288 195.276 233.366 191.551 235.608 189.239C236.619 188.197 237.634 187.472 238.447 186.987V182.555C237.632 182.035 236.595 181.251 235.563 180.132C233.361 177.746 231.288 173.949 231.288 168.307C231.288 162.66 233.366 158.935 235.608 156.623C236.619 155.581 237.634 154.856 238.447 154.372V149.939C237.632 149.419 236.595 148.635 235.563 147.517C233.361 145.13 231.288 141.333 231.288 135.691C231.288 130.044 233.366 126.319 235.608 124.008C236.705 122.877 237.806 122.119 238.649 121.637C239.071 121.395 239.433 121.221 239.703 121.102C239.839 121.042 239.952 120.996 240.039 120.962C240.082 120.945 240.119 120.931 240.149 120.921C240.164 120.915 240.178 120.91 240.189 120.906C240.195 120.904 240.2 120.903 240.205 120.901C240.207 120.9 240.21 120.899 240.212 120.898C240.213 120.898 240.215 120.898 240.215 120.897C240.217 120.897 240.219 120.896 241.064 123.379C241.892 125.809 241.911 125.86 241.912 125.86C241.913 125.86 241.914 125.859 241.915 125.859C241.917 125.858 241.919 125.858 241.92 125.857C241.923 125.856 241.926 125.855 241.928 125.854L241.929 125.855C241.911 125.862 241.87 125.878 241.81 125.904C241.689 125.958 241.491 126.052 241.242 126.194C240.743 126.48 240.054 126.95 239.361 127.665C238.023 129.044 236.522 131.475 236.522 135.691C236.522 139.912 238.028 142.462 239.406 143.955C240.115 144.723 240.819 145.242 241.33 145.561C241.584 145.72 241.787 145.827 241.913 145.889C241.975 145.92 242.018 145.939 242.038 145.948C242.044 145.951 242.048 145.953 242.05 145.953L242.034 145.947C242.032 145.946 242.031 145.945 242.029 145.945L242.027 145.944C243.025 146.34 243.681 147.307 243.681 148.383V155.994C243.681 157.112 242.975 158.106 241.922 158.472C241.924 158.471 241.927 158.471 241.928 158.47C241.91 158.477 241.87 158.494 241.81 158.52C241.689 158.574 241.491 158.667 241.242 158.81C240.743 159.095 240.054 159.566 239.361 160.28C238.023 161.66 236.522 164.091 236.522 168.307C236.522 172.528 238.028 175.078 239.406 176.571C240.115 177.339 240.819 177.857 241.33 178.177C241.584 178.336 241.787 178.443 241.913 178.505C241.975 178.536 242.018 178.555 242.038 178.564C242.048 178.568 242.052 178.57 242.05 178.569L242.034 178.563C242.032 178.562 242.031 178.561 242.029 178.561L242.029 178.56ZM242.042 211.181C242.046 211.183 242.048 211.185 242.05 211.185L242.038 211.18C242.039 211.18 242.04 211.181 242.042 211.181Z" fill="white"/>
<path d="M241.928 113.291C242.977 113.659 243.681 114.652 243.681 115.767V123.379C243.681 124.453 243.027 125.418 242.032 125.815C242.032 125.815 242.033 125.815 242.034 125.815L242.038 125.813C242.018 125.822 241.975 125.842 241.913 125.873C241.787 125.935 241.585 126.042 241.33 126.201C240.819 126.52 240.115 127.039 239.406 127.807C238.029 129.3 236.522 131.849 236.522 136.07C236.522 140.287 238.023 142.718 239.361 144.097C240.054 144.812 240.743 145.282 241.242 145.568C241.491 145.71 241.689 145.804 241.81 145.857C241.87 145.884 241.911 145.9 241.928 145.907L241.92 145.904C241.919 145.904 241.917 145.903 241.915 145.903C241.914 145.903 241.913 145.902 241.912 145.902C241.911 145.902 241.895 145.942 241.064 148.383C240.218 150.866 240.217 150.865 240.215 150.865C240.215 150.864 240.213 150.864 240.212 150.863C240.21 150.863 240.208 150.862 240.205 150.861C240.2 150.859 240.195 150.858 240.189 150.856C240.177 150.851 240.164 150.846 240.149 150.841C240.119 150.83 240.082 150.816 240.039 150.8C239.952 150.766 239.839 150.72 239.703 150.66C239.433 150.541 239.071 150.366 238.648 150.125C237.806 149.643 236.704 148.885 235.608 147.754C233.366 145.443 231.288 141.717 231.288 136.07C231.288 130.429 233.361 126.632 235.563 124.245C236.595 123.126 237.632 122.343 238.447 121.822V117.39C237.634 116.905 236.619 116.18 235.608 115.138C233.366 112.827 231.288 109.101 231.288 103.455C231.288 97.8133 233.361 94.0163 235.563 91.6294C236.595 90.5107 237.632 89.7271 238.447 89.2065V84.7736C237.634 84.2891 236.619 83.5647 235.608 82.5225C233.366 80.2113 231.288 76.4857 231.288 70.839C231.288 65.1973 233.361 61.4004 235.563 59.0135C236.595 57.8948 237.632 57.1112 238.447 56.5906V52.1581C237.634 51.6736 236.619 50.9489 235.608 49.9066C233.366 47.5954 231.288 43.8698 231.288 38.223C231.288 32.5815 233.361 28.7845 235.563 26.3976C236.595 25.2789 237.632 24.4953 238.447 23.9747V19.4236C236.49 19.1472 233.862 18.5161 231.334 17.1149C227.101 14.7687 223.308 10.3239 223.308 2.55245H228.542C228.542 8.22356 231.127 11.0047 233.867 12.5236C236.807 14.1532 240.089 14.3806 241.064 14.3806C242.509 14.3806 243.681 15.5551 243.681 17.0038V25.5314C243.681 26.6059 243.027 27.571 242.032 27.9681C242.032 27.9678 242.033 27.968 242.034 27.9677L242.038 27.9661C242.018 27.9749 241.975 27.9944 241.913 28.0253C241.787 28.0872 241.585 28.1945 241.33 28.3535C240.819 28.673 240.115 29.1914 239.406 29.9595C238.029 31.4528 236.522 34.0018 236.522 38.223C236.522 42.4393 238.023 44.8703 239.361 46.2497C240.054 46.9642 240.743 47.4348 241.242 47.7205C241.491 47.8627 241.689 47.9564 241.81 48.0098C241.87 48.0363 241.911 48.0529 241.928 48.0598L241.92 48.0571C241.919 48.0565 241.917 48.0557 241.915 48.0551C241.914 48.0548 241.913 48.0545 241.912 48.0543C242.971 48.4176 243.681 49.4148 243.681 50.536V58.1469C243.681 59.2233 243.025 60.1902 242.026 60.586C242.027 60.5858 242.028 60.5855 242.029 60.5852C242.031 60.5845 242.032 60.5838 242.034 60.5832L242.05 60.5769C242.052 60.5761 242.048 60.5777 242.038 60.582C242.018 60.5908 241.975 60.6103 241.913 60.6412C241.787 60.7031 241.584 60.8101 241.33 60.9691C240.819 61.2885 240.115 61.807 239.406 62.575C238.028 64.0684 236.522 66.6176 236.522 70.839C236.522 75.0552 238.023 77.4862 239.361 78.8656C240.054 79.5801 240.743 80.0507 241.242 80.3364C241.491 80.4786 241.689 80.5723 241.81 80.6257C241.87 80.6522 241.911 80.6684 241.928 80.6754C241.926 80.6745 241.923 80.6741 241.92 80.673C241.919 80.6724 241.917 80.6716 241.915 80.671L241.914 80.6706C242.971 81.0345 243.681 82.0311 243.681 83.1515V90.7628C243.681 91.8391 243.025 92.806 242.027 93.2019C242.027 93.2017 242.028 93.2014 242.029 93.2011C242.031 93.2005 242.032 93.1997 242.034 93.1991L242.05 93.1928C242.048 93.1934 242.044 93.1951 242.038 93.198C242.018 93.2067 241.975 93.2259 241.913 93.2567C241.787 93.3186 241.585 93.426 241.33 93.585C240.819 93.9044 240.115 94.4228 239.406 95.1909C238.028 96.6843 236.522 99.2335 236.522 103.455C236.522 107.671 238.023 110.102 239.361 111.481C240.054 112.196 240.743 112.666 241.242 112.952C241.491 113.094 241.689 113.188 241.81 113.242C241.87 113.268 241.91 113.284 241.928 113.291C241.932 113.293 241.936 113.294 241.938 113.295C241.936 113.294 241.933 113.293 241.928 113.292L241.928 113.291ZM242.042 125.812C242.041 125.812 242.039 125.813 242.038 125.813C242.047 125.809 242.052 125.808 242.05 125.808C242.049 125.809 242.046 125.81 242.042 125.812ZM242.042 27.9646C242.041 27.965 242.039 27.9656 242.038 27.9661C242.047 27.9619 242.052 27.9602 242.05 27.961C242.049 27.9615 242.046 27.9629 242.042 27.9646ZM241.915 113.287L241.914 113.287C241.915 113.287 241.916 113.287 241.917 113.287C241.916 113.287 241.916 113.287 241.915 113.287Z" fill="white"/>
<path d="M115.835 269.99V269.991C115.833 269.984 115.83 269.975 115.826 269.962C115.812 269.922 115.787 269.851 115.749 269.754C115.675 269.559 115.552 269.263 115.375 268.9C115.019 268.167 114.456 267.191 113.639 266.225C112.041 264.331 109.491 262.47 105.402 262.47C101.326 262.47 98.8898 264.318 97.3994 266.175C96.6334 267.129 96.1166 268.093 95.7931 268.819C95.6327 269.179 95.5236 269.472 95.4577 269.664C95.4249 269.76 95.4032 269.83 95.3913 269.869C95.3854 269.888 95.3821 269.901 95.3811 269.904C95.3806 269.906 95.3804 269.906 95.3811 269.904C95.3814 269.902 95.3816 269.901 95.3822 269.898C95.3825 269.897 95.3831 269.896 95.3834 269.895C95.3836 269.894 95.3837 269.893 95.3838 269.893C95.0772 271.039 94.0407 271.837 92.8563 271.837H85.1011C83.9537 271.837 82.9399 271.087 82.6008 269.989C82.6009 269.989 82.6017 269.99 82.6019 269.991C82.6022 269.992 82.6021 269.993 82.6023 269.993C82.6002 269.987 82.5966 269.977 82.5917 269.962C82.5778 269.922 82.5527 269.851 82.5154 269.754C82.4407 269.559 82.3184 269.263 82.1415 268.9C81.7848 268.167 81.2216 267.191 80.4055 266.225C78.807 264.331 76.2568 262.47 72.1683 262.47C68.092 262.47 65.6559 264.318 64.1654 266.175C63.3994 267.129 62.8826 268.093 62.5592 268.819C62.3988 269.179 62.2896 269.472 62.2238 269.664C62.191 269.76 62.1692 269.83 62.1573 269.869C62.1514 269.888 62.1482 269.901 62.1471 269.904C62.1466 269.906 62.1465 269.906 62.1471 269.904C62.1474 269.902 62.1477 269.901 62.1483 269.898L62.1503 269.893L62.1499 269.892C61.8433 271.039 60.8069 271.837 59.6224 271.837H51.8672C50.7197 271.837 49.7059 271.087 49.3668 269.989C49.3669 269.989 49.3678 269.99 49.368 269.991C49.3683 269.992 49.3682 269.993 49.3684 269.993C49.3663 269.987 49.3627 269.977 49.3578 269.962C49.3439 269.922 49.3188 269.851 49.2815 269.754C49.2068 269.559 49.0845 269.263 48.9076 268.9C48.5508 268.167 47.988 267.191 47.172 266.225C45.5735 264.331 43.0228 262.47 38.9344 262.47C34.8581 262.47 32.422 264.318 30.9315 266.175C30.1655 267.129 29.6487 268.093 29.3252 268.819C29.1649 269.179 29.0557 269.472 28.9898 269.664C28.957 269.76 28.9353 269.83 28.9234 269.869C28.9175 269.888 28.9142 269.901 28.9132 269.904C28.9127 269.906 28.9126 269.906 28.9132 269.904C28.9135 269.902 28.9142 269.901 28.9147 269.898C28.915 269.897 28.9152 269.896 28.9155 269.895C28.9157 269.894 28.9162 269.893 28.9163 269.893L28.9159 269.892C28.6094 271.039 27.573 271.837 26.3884 271.837H18.6333C17.188 271.837 16.0162 270.662 16.0161 269.214C16.0161 263.543 13.4318 260.761 10.6913 259.242C7.751 257.613 4.46916 257.385 3.49415 257.385C2.04873 257.385 0.876983 256.211 0.876983 254.762V246.235H6.11131V252.342C8.0677 252.618 10.6958 253.25 13.224 254.651C16.9559 256.719 20.3453 260.419 21.0959 266.59H24.5871C25.0482 265.571 25.772 264.233 26.854 262.885C29.1241 260.058 32.961 257.224 38.9344 257.224C44.8958 257.224 48.8122 260.046 51.1677 262.836C52.3248 264.206 53.1094 265.568 53.6075 266.59H57.8211C58.2821 265.571 59.006 264.233 60.0879 262.885C62.3581 260.058 66.1949 257.224 72.1683 257.224C78.1297 257.224 82.0462 260.046 84.4016 262.836C85.5588 264.206 86.3434 265.568 86.8415 266.59H91.055C91.5161 265.571 92.2399 264.233 93.3218 262.885C95.592 260.058 99.4289 257.224 105.402 257.224C111.364 257.224 115.28 260.046 117.636 262.836C118.793 264.206 119.577 265.568 120.075 266.59H126.275V266.597C127.634 266.692 128.707 267.827 128.707 269.214C128.707 270.6 127.634 271.734 126.275 271.829V271.837H118.335C117.188 271.837 116.174 271.088 115.835 269.99Z" fill="white"/>
<path d="M122.889 23.7999V248.047H117.655V23.7999H122.889Z" fill="white"/>
<path d="M220.433 22.5005C221.878 22.5005 223.05 23.6749 223.05 25.1236V246.634C223.05 248.083 221.878 249.257 220.433 249.257H23.8637C22.4183 249.257 21.2466 248.083 21.2466 246.634V25.1236C21.2466 23.6749 22.4183 22.5005 23.8637 22.5005H220.433ZM26.4809 244.011H217.816V27.7467H26.4809V244.011Z" fill="white"/>
<path d="M117.775 229.245C119.221 229.245 120.393 230.419 120.393 231.868C120.393 233.317 119.221 234.491 117.775 234.491H26.1629C24.7175 234.491 23.5458 233.317 23.5458 231.868C23.5458 230.419 24.7175 229.245 26.1629 229.245H117.775ZM117.828 214.462C119.273 214.462 120.445 215.637 120.445 217.085C120.445 218.534 119.273 219.709 117.828 219.709H26.2152C24.7698 219.709 23.5981 218.534 23.5981 217.085C23.5981 215.637 24.7698 214.462 26.2152 214.462H117.828ZM117.768 199.68C119.213 199.68 120.385 200.854 120.385 202.303C120.385 203.752 119.213 204.926 117.768 204.926H26.1547C24.7093 204.926 23.5376 203.752 23.5375 202.303C23.5375 200.854 24.7093 199.68 26.1547 199.68H117.768ZM117.768 184.143C119.213 184.143 120.385 185.317 120.385 186.766C120.385 188.215 119.213 189.389 117.768 189.389H26.1547C24.7093 189.389 23.5376 188.215 23.5375 186.766C23.5375 185.317 24.7093 184.143 26.1547 184.143H117.768ZM117.768 167.895C119.213 167.895 120.385 169.07 120.385 170.518C120.385 171.967 119.213 173.141 117.768 173.141H24.8583C23.4129 173.141 22.2411 171.967 22.2411 170.518C22.2412 169.07 23.4129 167.895 24.8583 167.895H117.768ZM117.812 151.434C119.257 151.434 120.429 152.608 120.429 154.057C120.429 155.506 119.257 156.68 117.812 156.68H26.1991C24.7537 156.68 23.5819 155.506 23.5819 154.057C23.582 152.608 24.7537 151.434 26.1991 151.434H117.812ZM25.513 47.4157C27.5564 49.6047 45.6464 67.7435 72.233 67.7435C90.51 67.7435 106.992 60.0625 118.65 47.7381L122.449 51.3477C118.172 55.8692 113.292 59.8129 107.939 63.0517L122.383 82.7951C123.237 83.9634 122.985 85.6048 121.819 86.4614C120.654 87.318 119.016 87.0656 118.162 85.8975L103.32 65.6106C99.5892 67.4945 95.6649 69.0498 91.5849 70.239L114.143 135.929H120.272C121.717 135.929 122.889 137.104 122.889 138.552C122.889 140.001 121.717 141.175 120.272 141.175H112.289C112.264 141.176 112.24 141.176 112.215 141.175H23.8639C22.4185 141.175 21.2467 140.001 21.2467 138.552C21.2468 137.104 22.4185 135.929 23.8639 135.929H28.6802L52.3385 69.8512C48.2771 68.5565 44.5528 66.9567 41.2045 65.2382L26.091 85.8975C25.2362 87.0656 23.5986 87.318 22.433 86.4614C21.2674 85.6048 21.0152 83.9634 21.8699 82.7951L36.5934 62.6687C28.0906 57.5511 22.8179 52.2075 21.691 51.0005L25.513 47.4157ZM86.4878 71.5151C82.6602 72.3188 78.7165 72.8049 74.685 72.9457V135.929H108.607L86.4878 71.5151ZM34.2417 135.929H69.4507V72.9287C65.205 72.7436 61.1788 72.143 57.3978 71.2522L34.2417 135.929Z" fill="white"/>
<path d="M164.872 193.554C164.748 193.756 164.981 194.026 165.134 193.877C170.686 188.445 179.657 187.763 185.781 187.763C188.221 187.763 191.294 188.433 191.346 190.741C191.402 193.219 189.345 194.409 187.473 194.224C175.981 193.065 170.779 196.923 167.775 199.054C163.121 201.609 154.802 210.289 151.158 213.772C145.727 218.966 138.612 224.208 132.254 228.228C129.182 230.173 125.905 231.836 122.857 233.773C122.595 233.938 122.253 233.752 122.253 233.442V226.876C122.253 226.722 122.337 226.589 122.474 226.521C139.736 218.215 159.706 202.21 161.176 181.548C162.283 165.978 154.875 148.436 140.839 141.055C134.992 137.979 134.735 139.662 132.101 138.322C129.947 137.229 130.575 133.798 133.378 133.585C137.207 133.294 144.612 136.244 147.772 138.573C158.869 146.757 162.521 153.908 166.012 165.958C166.145 166.414 166.733 166.447 166.793 165.978L167.385 161.491C167.385 161.491 167.385 161.455 167.385 161.438L167.341 118.871C167.341 118.653 167.514 118.475 167.731 118.475L172.873 118.447C173.09 118.447 173.267 118.625 173.267 118.843V164.409C173.267 164.897 173.912 165.054 174.133 164.626C177.012 159.017 184.622 138.347 208.845 139.121C209.066 139.13 209.243 139.319 209.235 139.537C208.72 152.867 198.638 163.957 186.941 169.239C183.015 171.011 177.962 169.764 175.55 172.895" fill="white"/>
<path d="M173.267 120.005C173.267 119.444 173.795 118.96 174.346 118.867C183.362 117.329 192.888 111.203 197.498 103.285C204.106 91.9412 202.402 73.4742 200.389 60.8952C199.797 57.1865 199.057 53.4415 198.042 49.8175C197.901 49.3211 197.446 48.9781 196.927 48.9781H143.758C143.243 48.9781 142.788 49.3171 142.647 49.8134C141.402 54.1921 140.561 58.7241 139.921 63.2278C138.161 75.5566 136.776 92.4577 143.315 103.499C147.949 111.32 157.347 117.349 166.342 118.863C166.894 118.956 167.337 119.44 167.337 120.001H173.263L173.267 120.005ZM193.939 85.7465H146.754C146.125 85.7465 145.61 85.2461 145.598 84.6165C145.417 75.1127 146.564 65.6492 148.147 56.3068C148.239 55.7498 148.722 55.3463 149.282 55.3422L191.334 55.2454C191.898 55.2454 192.381 55.6489 192.477 56.2059C194.068 65.5564 195.264 75.0764 195.095 84.6125C195.082 85.2421 194.567 85.7465 193.939 85.7465Z" fill="white"/>
</g>
<defs>
<clipPath id="clip0_1766_7822">
<rect width="244" height="272" fill="white"/>
</clipPath>
</defs>
</svg>
