<svg width="119" height="138" viewBox="0 0 119 138" fill="none" xmlns="http://www.w3.org/2000/svg">
<path d="M3.73547 86.9766H59.2332V94.4474H3.73547V86.9766Z" fill="#F5F1EE"/>
<path d="M2.13452 79.5078H59.2332V87.5123H2.13452V79.5078Z" fill="#D74646"/>
<path d="M10.6727 103.523H59.2332V110.461H10.6727V103.523Z" fill="#F5F1EE"/>
<path d="M6.93726 95.5156H59.2332V102.453H6.93726V95.5156Z" fill="#D74646"/>
<path d="M22.4125 120.602H60.3004V127.539H27.9986L22.4125 120.602Z" fill="#F5F1EE"/>
<path d="M14.4081 112.062H60.3005V119H21.1743L14.4081 112.062Z" fill="#D74646"/>
<path d="M35.2197 128.602H60.3004V135.539L40.0898 132.318L35.2197 128.602Z" fill="#D74646"/>
<path d="M59.2332 1.0625H10.9884L8.09996 8.08158L1.60089 9.7359V18.4093C7.67632 28.328 19.9957 33.6141 32.4305 33.6141C42.9037 33.6141 52.905 27.5293 59.2332 20.1229V1.0625Z" fill="#D74646"/>
<path d="M0.745033 17.3094C1.48162 16.8589 2.4466 17.0866 2.90032 17.8179C8.6176 27.0351 20.3542 32.1108 32.433 32.1108C42.3411 32.1108 51.9524 26.3955 58.0795 19.3142C58.6433 18.6627 59.6323 18.5883 60.2885 19.148C60.9446 19.7078 61.0195 20.6898 60.4558 21.3414C53.9115 28.9048 43.4962 35.2216 32.433 35.2216C19.6125 35.2216 6.681 29.8447 0.232922 19.4495C-0.220748 18.7181 0.00849701 17.7599 0.745033 17.3094Z" fill="black"/>
<path d="M117.434 78.6489L118.8 78.7542C118.995 78.7695 118.995 78.7701 118.995 78.7706C118.995 78.7713 118.995 78.7726 118.995 78.7739C118.995 78.7766 118.995 78.7802 118.994 78.7845C118.994 78.7933 118.993 78.8057 118.991 78.8213C118.989 78.8525 118.985 78.8974 118.98 78.9553C118.969 79.071 118.953 79.2392 118.929 79.4562C118.882 79.8902 118.807 80.5201 118.693 81.3177C118.464 82.9125 118.078 85.181 117.445 87.8991C116.182 93.329 113.928 100.588 109.963 107.863C102.002 122.47 87.1117 137.143 59.7324 137.143C58.8673 137.143 58.166 136.442 58.166 135.576C58.166 134.71 58.8673 134.008 59.7324 134.008C85.6996 134.008 99.6602 120.218 107.213 106.362C111.004 99.405 113.174 92.4321 114.394 87.1881C115.003 84.5694 115.374 82.3905 115.592 80.8721C115.701 80.1132 115.771 79.52 115.814 79.1201C115.836 78.9203 115.85 78.7688 115.86 78.6691C115.863 78.6339 115.865 78.605 115.867 78.5829V11.4554H114.077C110.128 11.4554 107.225 8.61571 107.225 4.76302V3.13515H59.7324C58.8673 3.13515 58.166 2.43332 58.166 1.56757C58.166 0.701827 58.8673 0 59.7324 0H108.792C109.657 3.97746e-05 110.358 0.701852 110.358 1.56757V4.76302C110.358 6.81888 111.793 8.32021 114.077 8.32021H117.434C118.299 8.32021 119 9.02203 119 9.88778V78.6489C119 78.6888 118.999 78.7287 118.996 78.7685L117.434 78.6489Z" fill="black"/>
<path d="M1.56642 78.6489L0.00443388 78.7697C0.00445875 78.77 0.00461919 78.7707 0.00466923 78.7713C0.00477257 78.7727 0.00497849 78.7745 0.00513992 78.7765C0.00546195 78.7806 0.0057564 78.7861 0.00631665 78.793C0.00744248 78.8069 0.00910397 78.8264 0.0112589 78.8514C0.015578 78.9016 0.0220316 78.974 0.031028 79.0676C0.049022 79.2548 0.0772366 79.5272 0.118341 79.8771C0.20054 80.5768 0.334865 81.5876 0.544788 82.85C0.964454 85.3736 1.68733 88.9092 2.90272 92.9784C5.32866 101.101 9.74302 111.437 17.7057 120.078C26.5782 129.705 39.7854 137.143 59.2676 137.143C60.1327 137.143 60.834 136.442 60.834 135.576C60.834 134.71 60.1327 134.008 59.2676 134.008C40.6942 134.008 28.3116 126.962 20.0088 117.952C12.483 109.786 8.25166 99.9398 5.90432 92.0807C4.73307 88.1592 4.03739 84.7544 3.63511 82.3354C3.43409 81.1265 3.30671 80.1654 3.22985 79.5111C3.19142 79.184 3.16556 78.9335 3.1496 78.7673C3.14178 78.686 3.13634 78.6249 3.13289 78.5848V11.4554H4.6824C8.63262 11.4554 11.7748 8.37255 11.7748 4.52185V3.13515H59.2676C60.1327 3.13515 60.834 2.43332 60.834 1.56757C60.834 0.701827 60.1327 0 59.2676 0H10.2083C9.34323 3.97746e-05 8.64186 0.701852 8.64186 1.56757V4.52185C8.64186 6.5797 6.9643 8.32021 4.6824 8.32021H1.56642C0.701291 8.32021 -3.769e-05 9.02203 -3.769e-05 9.88778V78.6489C-3.69409e-05 78.6888 0.00138923 78.7287 0.00443388 78.7685L1.56642 78.6489Z" fill="black"/>
<path d="M60.8341 1.0625V135.538H58.166V1.0625H60.8341Z" fill="black"/>
<path d="M89.8963 57.1132C89.8963 57.1132 90.4487 83.6751 88.7916 88.6632C88.7916 88.6632 89.2349 89.7206 90.0393 88.8139C90.0393 88.8115 94.1602 73.8958 108.323 73.3415C108.323 73.3513 109.021 85.6416 92.4498 91.7382C92.4498 91.7382 88.0793 94.6625 84.9662 105.045C84.9662 105.045 84.8645 105.75 85.8699 105.499C86.4634 105.351 87.1127 104.945 88.1932 104.646C88.7552 104.49 89.5378 104.357 91.1779 104.291C93.9882 104.177 94.3661 104.17 95.5944 104.42C96.8227 104.67 97.1498 105.025 97.3654 105.441C97.6828 106.051 97.6658 106.598 97.2806 107.159C97.0577 107.485 96.7185 107.728 96.2704 107.881C95.9166 108.001 95.5411 108.039 95.1705 108.025C93.9422 107.976 89.688 107.894 87.1611 108.89C84.1861 110.062 75.5202 119.323 75.5202 119.323C75.5202 119.323 69.8318 124.995 67.6078 125.751C65.3838 126.507 61.1272 130.513 61.1272 131.269H60.834L60.9528 124.642L61.9557 125.449C66.0428 123.103 70.8978 119.513 75.1665 114.109C77.674 110.932 80.9979 106.63 82.5508 99.9958C82.8391 98.7682 84.2515 92.3897 82.2989 85.0777C81.4921 82.0513 80.5763 80.6219 80.0894 79.9364C77.4729 76.261 73.3956 74.9629 71.9517 74.4938C70.5102 74.0246 69.0808 74.2264 68.3322 73.801C67.5836 73.3756 67.1524 72.7484 67.1524 72.0337C67.1524 71.3191 67.6369 70.5242 68.5478 70.4172C69.4587 70.3103 70.4981 70.4707 71.8887 70.7114C73.2793 70.952 78.2506 72.8627 80.2372 74.3917C84.0383 77.316 85.7269 81.0838 86.2429 82.6322V57.0938" fill="black"/>
<path d="M88.0469 16.0102H72.2964C72.0533 16.0102 71.8442 16.1709 71.7858 16.4034C71.1585 18.9091 67.8859 32.8638 70.1738 43.0541C72.6952 54.2898 85.1341 57.0975 86.1431 57.0975H88.0493V16.0078L88.0469 16.0102Z" fill="black"/>
<path d="M88.3516 15.5479L87.7577 16.1549C86.1352 16.1459 84.5127 16.1368 82.8903 16.1278C79.4954 16.1088 76.1005 16.09 72.7055 16.071C72.6982 16.0711 72.7009 16.0668 72.6968 16.0727C70.67 24.8481 69.2569 34.1159 70.9521 43.0067C72.3895 50.4471 79.373 55.7315 86.4606 57.1443C87.0159 57.1474 87.5712 57.1505 88.1266 57.1536C88.1923 45.1233 88.2582 33.0931 88.324 21.0628C88.3329 19.428 88.3417 17.7931 88.3506 16.1583H88.3516C88.3513 16.1583 88.3509 16.158 88.3506 16.158C88.3517 15.9539 88.353 15.7497 88.3542 15.5455L88.3844 21.0628C88.4506 33.1706 88.5167 45.2785 88.583 57.3863L88.5818 57.6188L88.3542 57.6176C87.723 57.6211 87.0918 57.6246 86.4606 57.6281C79.0194 56.2478 71.879 50.9405 70.2419 43.1657C68.4104 34.0596 69.7482 24.742 71.6998 15.8238C71.7995 15.3694 72.2462 15.0162 72.7055 15.025C76.1005 15.006 79.4954 14.987 82.8903 14.968L88.3516 14.9375V15.5479ZM88.3506 16.158V16.1583L87.7513 16.1616L87.7577 16.1549C87.9553 16.156 88.153 16.1569 88.3506 16.158Z" fill="black"/>
<path d="M88.0518 16.0078H103.8C104.043 16.0078 104.255 16.1685 104.313 16.4034C104.943 18.9114 108.211 32.8638 105.925 43.0541C103.404 54.2898 90.9136 57.0975 89.9556 57.0975C88.9976 57.0975 88.0493 57.0975 88.0493 57.0975V16.0078H88.0518Z" fill="black"/>
<path d="M88.2805 14.9375L93.7417 14.968C97.1361 14.987 100.531 15.006 103.925 15.025C104.386 15.0166 104.834 15.3699 104.933 15.8258C106.886 24.7439 108.22 34.0606 106.391 43.1663C104.751 50.9418 97.6058 56.2266 90.1717 57.6281C89.5404 57.6246 88.9088 57.6211 88.2781 57.6176L88.0505 57.6188L88.0493 57.3863C88.1155 45.2794 88.1817 33.1725 88.2479 21.0656C88.258 19.2264 88.268 17.3871 88.2781 15.5479C88.2789 15.6915 88.2797 15.8352 88.2805 15.9789V14.9375ZM103.925 16.0707C100.531 16.0897 97.1361 16.1087 93.7417 16.1277C91.9216 16.1379 90.1015 16.1478 88.2814 16.158C88.2904 17.7938 88.2994 19.4297 88.3083 21.0656C88.3741 33.0949 88.4397 45.1243 88.5055 57.1536C89.0606 57.1505 89.6163 57.1474 90.1717 57.1443C97.2512 55.7111 104.241 50.4471 105.681 43.0075C107.374 34.1172 105.964 24.8492 103.936 16.074C103.932 16.068 103.933 16.0707 103.925 16.0707Z" fill="black"/>
<path d="M74.2785 19.0207C73.9639 21.4305 71.9047 35.9463 72.796 40.5586H88.0493V18.6797H74.5811C74.431 18.6797 74.3047 18.8231 74.2785 19.0207Z" fill="#F5F1EE"/>
<path d="M102.295 19.0207C102.62 21.4305 104.751 35.9463 103.829 40.5586H88.0493V18.6797H101.982C102.137 18.6797 102.268 18.8231 102.295 19.0207Z" fill="#F5F1EE"/>
<path d="M29.3497 77.3924V33.5985C29.3497 32.7243 30.0665 32.0156 30.9506 32.0156C31.8348 32.0156 32.5515 32.7243 32.5515 33.5985V77.3924C32.5515 78.2666 31.8348 78.9753 30.9506 78.9753C30.0665 78.9753 29.3497 78.2666 29.3497 77.3924Z" fill="black"/>
<path d="M20.4161 31.9937C20.7105 31.1712 21.6141 30.7436 22.4343 31.0387C23.2546 31.3339 23.681 32.2401 23.3867 33.0627L7.33274 77.924C7.03836 78.7465 6.13477 79.174 5.31453 78.8788C4.49427 78.5836 4.06783 77.6774 4.36221 76.8548L20.4161 31.9937Z" fill="black"/>
<path d="M39.9966 31.5709C40.8025 31.2865 41.6807 31.7259 41.958 32.5523L57.0143 77.4137C57.2916 78.24 56.8631 79.1403 56.0573 79.4247C55.2514 79.7091 54.3732 79.2699 54.0959 78.4436L39.0396 33.5822C38.7623 32.7558 39.1908 31.8553 39.9966 31.5709Z" fill="black"/>
<path d="M49.1832 28.0618C49.8616 27.5358 50.8147 27.6911 51.3119 28.4088L60.5394 41.7286C61.0366 42.4464 60.8897 43.4547 60.2113 43.9808C59.5329 44.5069 58.5798 44.3514 58.0826 43.6337L48.8553 30.314C48.3581 29.5963 48.5048 28.5879 49.1832 28.0618Z" fill="black"/>
<path d="M10.4702 28.4088C10.9891 27.6911 11.9836 27.5357 12.6913 28.0619C13.399 28.5881 13.552 29.5964 13.0332 30.3141L3.40416 43.6339C2.88532 44.3515 1.89101 44.5068 1.18328 43.9808C0.475539 43.4546 0.322334 42.4461 0.841188 41.7284L10.4702 28.4088Z" fill="black"/>
<path d="M59.2676 76.8359C60.1328 76.8359 60.8341 77.5527 60.8341 78.4368C60.8341 79.321 60.1328 80.0377 59.2676 80.0377H1.56646C0.701329 80.0377 0 79.321 0 78.4368C0 77.5527 0.701329 76.8359 1.56646 76.8359H59.2676Z" fill="black"/>
<path d="M58.1914 125.938C59.0615 125.938 59.7668 126.654 59.7668 127.538C59.7668 128.423 59.0615 129.139 58.1914 129.139H29.3244C28.4543 129.139 27.7489 128.423 27.7489 127.538C27.7489 126.654 28.4543 125.938 29.3244 125.938H58.1914Z" fill="black"/>
<path d="M58.1853 117.93C59.0587 117.93 59.7668 118.646 59.7668 119.531C59.7668 120.415 59.0587 121.131 58.1853 121.131H19.725C18.8516 121.131 18.1435 120.415 18.1435 119.531C18.1435 118.646 18.8516 117.93 19.725 117.93H58.1853Z" fill="black"/>
<path d="M58.1871 109.922C59.0595 109.922 59.7668 110.639 59.7668 111.523C59.7668 112.407 59.0595 113.124 58.1871 113.124H13.3197C12.4472 113.124 11.7399 112.407 11.7399 111.523C11.7399 110.639 12.4472 109.922 13.3197 109.922H58.1871Z" fill="black"/>
<path d="M58.1805 84.8438C59.0566 84.8438 59.7668 85.5605 59.7668 86.4446C59.7668 87.3288 59.0566 88.0455 58.1805 88.0455H2.65354C1.77746 88.0455 1.06726 87.3288 1.06726 86.4446C1.06726 85.5605 1.77746 84.8438 2.65354 84.8438H58.1805Z" fill="black"/>
<path d="M58.1933 93.3828C59.0623 93.3828 59.7668 94.0996 59.7668 94.9837C59.7668 95.8679 59.0623 96.5846 58.1933 96.5846H5.84252C4.97351 96.5846 4.26904 95.8679 4.26904 94.9837C4.26904 94.0996 4.97351 93.3828 5.84252 93.3828H58.1933Z" fill="black"/>
<path d="M58.1786 101.383C59.0557 101.383 59.7668 102.1 59.7668 102.984C59.7668 103.868 59.0557 104.585 58.1786 104.585H7.99175C7.11462 104.585 6.40356 103.868 6.40356 102.984C6.40356 102.1 7.11462 101.383 7.99175 101.383H58.1786Z" fill="black"/>
<path d="M104.058 37.9144L72.574 37.8828C72.574 47.7237 80.6469 52.3 84.5622 53.3581H91.7067C101.394 51.1147 104.058 44.3111 104.058 37.9144Z" fill="#D74646"/>
<path d="M104.058 36.2891V39.4909H72.574V36.2891H104.058Z" fill="black"/>
</svg>
