<svg width="133" height="148" viewBox="0 0 133 148" fill="none" xmlns="http://www.w3.org/2000/svg">
<path d="M12.7161 74.8906H64.9939V83.3681H12.7161V74.8906Z" fill="#D74646"/>
<path d="M12.7161 93.2578H64.9939V101.735H12.7161V93.2578Z" fill="#D74646"/>
<path d="M12.7161 110.219H64.9939V118.696H12.7161V110.219Z" fill="#D74646"/>
<path d="M12.7161 125.75H64.9939V134.227H12.7161V125.75Z" fill="#D74646"/>
<path d="M64.9939 14.1328H21.2314H12.7161V20.5328V26.9329C18.227 34.2518 29.4018 38.1524 40.6814 38.1524C50.1815 38.1524 59.2537 33.6624 64.9939 28.1974V14.1328Z" fill="#D74646"/>
<mask id="mask0_1783_10984" style="mask-type:luminance" maskUnits="userSpaceOnUse" x="0" y="0" width="133" height="148">
<path d="M132.485 0H0V147.696H132.485V0Z" fill="white"/>
</mask>
<g mask="url(#mask0_1783_10984)">
<path d="M1.35603 61.5169C1.35603 61.5169 1.35602 61.5169 1.43846 61.5169C1.52091 61.5169 1.60335 61.4344 1.72702 61.352C2.01557 61.1871 2.38656 60.9398 2.75755 60.5688C3.49953 59.8268 4.28273 58.5077 4.28273 56.1993C4.28273 53.891 3.45831 52.5307 2.71633 51.7062C2.34534 51.294 1.93312 51.0055 1.6858 50.8406C1.56213 50.7581 1.43847 50.6757 1.35603 50.6757C1.35603 50.6757 1.3148 50.6757 1.27358 50.6757C0.737706 50.4696 0.366718 49.9337 0.366718 49.3566V45.2345C0.366718 44.575 0.778928 44.0803 1.3148 43.8742C1.3148 43.8742 1.31481 43.8742 1.39725 43.8742C1.47969 43.8742 1.56213 43.7918 1.6858 43.7093C1.97434 43.5444 2.34534 43.2971 2.71633 42.9261C3.45831 42.1841 4.24151 40.865 4.24151 38.5567C4.24151 36.2483 3.41709 34.888 2.6751 34.0635C2.30411 33.6513 1.8919 33.3628 1.64457 33.1979C1.52091 33.1155 1.39725 33.033 1.3148 33.033C1.3148 33.033 1.27358 33.033 1.23236 33.033C0.696484 32.8269 0.325496 32.291 0.325496 31.7139V27.5918C0.325496 26.9735 0.696485 26.4376 1.27358 26.2315C1.27358 26.2315 1.27358 26.2315 1.35603 26.2315C1.43847 26.2315 1.52091 26.1491 1.64457 26.0666C1.93312 25.9017 2.30411 25.6544 2.6751 25.2834C3.41709 24.5414 4.20029 23.2224 4.20029 20.914C4.20029 18.6056 3.37587 17.2453 2.63388 16.4209C2.26289 16.0086 1.85068 15.7201 1.60335 15.5552C1.47969 15.4728 1.35602 15.3903 1.27358 15.3903C1.27358 15.3903 1.23236 15.3903 1.19114 15.3903C0.655262 15.1842 0.284273 14.6483 0.284273 14.0712V9.45447C0.284273 8.67126 0.902593 8.01172 1.6858 8.01172C2.22167 8.01172 3.99418 7.88806 5.60181 7.02241C7.08577 6.19799 8.4873 4.6728 8.4873 1.62243C8.4873 0.839229 9.10562 0.179688 9.88882 0.179688H14.1758C14.7941 0.179688 15.33 0.633122 15.4949 1.25144C15.4949 1.25144 15.4949 1.29266 15.4949 1.3751C15.4949 1.49876 15.5774 1.62243 15.6598 1.82854C15.8247 2.24075 16.1132 2.7354 16.5254 3.27128C17.3499 4.26059 18.6689 5.29112 20.8537 5.29112C23.0384 5.29112 24.4399 4.26059 25.3468 3.27128C25.8002 2.7354 26.0888 2.19953 26.2949 1.82854C26.3773 1.62243 26.4598 1.45754 26.501 1.3751C26.501 1.33388 26.501 1.29266 26.5422 1.25144C26.7071 0.633122 27.2842 0.22091 27.9025 0.22091H32.1895C32.8078 0.22091 33.3437 0.674344 33.5086 1.29266C33.5086 1.29266 33.5086 1.33388 33.5086 1.41632C33.5086 1.53999 33.591 1.66365 33.6735 1.86976C33.8384 2.28197 34.1269 2.77663 34.5391 3.3125C35.3635 4.30181 36.6826 5.33234 38.8673 5.33234C41.0521 5.33234 42.4536 4.30181 43.3605 3.3125C43.8139 2.77663 44.1024 2.24075 44.3085 1.86976C44.391 1.66365 44.4734 1.49876 44.5147 1.41632C44.5147 1.3751 44.5147 1.33388 44.5559 1.29266C44.7208 0.674344 45.2979 0.262132 45.9162 0.262132H50.2032C50.8215 0.262132 51.3574 0.715566 51.5223 1.33388C51.5223 1.33388 51.5223 1.3751 51.5223 1.45754C51.5223 1.58121 51.6047 1.70487 51.6872 1.91098C51.852 2.32319 52.1406 2.81785 52.5528 3.35372C53.3772 4.34303 54.6963 5.37356 56.881 5.37356C59.0658 5.37356 60.4673 4.34303 61.3329 3.35372C61.7864 2.81785 62.0749 2.28197 62.281 1.91098C62.3635 1.70487 62.4459 1.53999 62.4871 1.45754C62.4871 1.41632 62.4871 1.37511 62.5283 1.33388C62.6932 0.715566 63.2703 0.303354 63.8886 0.303354H68.2169C68.9589 0.344575 69.536 0.962888 69.536 1.74609C69.536 2.52929 68.9589 3.10639 68.2169 3.14761H64.8367C64.5482 3.68349 64.136 4.42547 63.5176 5.16745C62.2398 6.69264 60.0963 8.21783 56.881 8.21783C53.6658 8.21783 51.5635 6.69265 50.3269 5.12624C49.7498 4.38426 49.3375 3.68349 49.0902 3.10639H46.7818C46.4933 3.64227 46.0811 4.38426 45.4628 5.12624C44.1849 6.65142 42.0414 8.17661 38.8261 8.17661C35.6109 8.17661 33.5086 6.65142 32.272 5.08502C31.6949 4.34303 31.2826 3.64227 31.0353 3.06518H28.7269C28.4384 3.60105 28.0262 4.34303 27.4078 5.08502C26.13 6.6102 23.9865 8.13539 20.7712 8.13539C17.556 8.13539 15.4537 6.6102 14.217 5.04379C13.64 4.30181 13.2277 3.60105 12.9804 3.02396H11.0842C10.672 6.36288 8.81707 8.38271 6.79723 9.49569C5.43693 10.2377 3.99418 10.6087 2.92243 10.7323V13.2056C3.37586 13.4941 3.91174 13.9064 4.48884 14.5247C5.68426 15.8025 6.79723 17.8636 6.79723 20.9552C6.79723 24.0468 5.68426 26.0254 4.44762 27.3033C3.91174 27.8804 3.33464 28.2513 2.92243 28.5399V30.9307C3.37586 31.2193 3.91174 31.6315 4.48884 32.2498C5.68426 33.5277 6.79723 35.5887 6.79723 38.6803C6.79723 41.7719 5.68426 43.7505 4.44762 45.0284C3.91174 45.6055 3.33464 45.9765 2.92243 46.265V48.6559C3.37586 48.9444 3.91174 49.3566 4.48884 49.9749C5.68426 51.2528 6.79723 53.3139 6.79723 56.4055C6.79723 59.4971 5.68426 61.4757 4.44762 62.7535C3.91174 63.3306 3.33464 63.7016 2.92243 63.9902V66.381C3.37586 66.6695 3.91174 67.0818 4.48884 67.7001C5.68426 68.9779 6.79723 71.039 6.79723 74.1306C6.79723 77.2222 5.68426 79.2008 4.44762 80.4787C3.87052 81.097 3.2522 81.5092 2.79876 81.7565C2.55144 81.8802 2.38655 81.9626 2.22167 82.0451C2.13923 82.0451 2.09801 82.0863 2.05679 82.1275H2.01557C2.01557 82.1275 2.01556 82.1275 1.56213 80.7672C1.25984 79.8603 1.10869 79.4069 1.10869 79.4069H1.19114C1.19114 79.4069 1.35602 79.2832 1.47969 79.242C1.76823 79.0771 2.13923 78.8298 2.51022 78.4588C3.2522 77.7168 4.03541 76.3977 4.03541 74.0894C4.03541 71.781 3.21098 70.4207 2.46899 69.5962C2.098 69.184 1.68579 68.8955 1.43846 68.7306C1.3148 68.6482 1.19114 68.5657 1.10869 68.5657C1.10869 68.5657 1.06748 68.5657 1.02626 68.5657C0.490381 68.3596 0.119385 67.8237 0.119385 67.2466V63.1245C0.119385 62.5062 0.490382 61.9703 1.06748 61.7642L1.35603 61.5169Z" fill="#1E1E1E"/>
<path d="M4.28447 126.792C4.28447 124.484 3.46005 123.165 2.75928 122.423C2.38829 122.052 2.0173 121.763 1.72875 121.64C1.60509 121.557 1.48142 121.516 1.4402 121.475C1.4402 121.475 1.39898 121.475 1.35776 121.475C0.780665 121.269 0.409668 120.733 0.409668 120.114V115.992C0.409668 115.374 0.739442 114.92 1.27532 114.673H1.31654C1.31654 114.673 1.31654 114.673 1.39898 114.673C1.48143 114.673 1.56387 114.591 1.72875 114.508C2.0173 114.343 2.38829 114.055 2.75928 113.643C3.50127 112.818 4.32569 111.458 4.32569 109.149C4.32569 106.841 3.50126 105.522 2.8005 104.78C2.42951 104.409 2.05852 104.12 1.76997 103.997C1.6463 103.914 1.52264 103.873 1.48142 103.832H1.39898C0.821887 103.626 0.45089 103.09 0.45089 102.472V98.3495C0.45089 97.7724 0.821886 97.2365 1.35776 97.0304C1.35776 97.0304 1.35776 97.0304 1.4402 97.0304C1.52264 97.0304 1.60508 96.948 1.76997 96.8656C2.05852 96.7007 2.42951 96.4121 2.8005 95.9999C3.54248 95.1755 4.36691 93.8152 4.36691 91.5068C4.36691 89.1984 3.54248 87.8793 2.84172 87.1373C2.47073 86.7664 2.09974 86.4778 1.81119 86.3541C1.68753 86.2717 1.56386 86.2305 1.52264 86.1893C1.52264 86.1893 1.48142 86.1893 1.4402 86.1893C0.863101 85.9832 0.492112 85.4473 0.492112 84.829V80.7068C0.492112 80.1297 0.863108 79.5939 1.39898 79.3877C1.39898 79.3877 1.39898 79.3877 1.48142 79.3877C1.56386 79.3877 1.64631 79.3053 1.81119 79.2229C2.09974 79.058 2.47073 78.7694 2.84172 78.3572C3.5837 77.5328 4.40813 76.1725 4.40813 73.8641C4.40813 71.5557 3.5837 70.2366 2.88294 69.4947C2.51195 69.1237 2.14096 68.8351 1.85241 68.7114C1.72875 68.629 1.60509 68.5878 1.56387 68.5466C1.56387 68.5466 1.52264 68.5466 1.48142 68.5466C1.48142 68.5466 1.48142 68.5466 1.52264 68.3817L2.34707 66.0321L2.38829 65.8672C2.38829 65.8672 2.38829 65.8672 2.42952 65.8672C2.47074 65.8672 2.55317 65.9084 2.5944 65.9496C2.75928 66.0321 2.92416 66.1145 3.17149 66.2382C3.62492 66.4855 4.24325 66.8977 4.82035 67.516C6.05698 68.7527 7.16995 70.8137 7.16995 73.8641C7.16995 76.9145 6.05698 78.9755 4.86156 80.2946C4.28446 80.9129 3.74859 81.3252 3.29516 81.6137V84.0045C3.74859 84.2518 4.28447 84.6641 4.82035 85.2412C6.05698 86.4778 7.16995 88.5389 7.16995 91.5892C7.16995 94.6396 6.05698 96.7007 4.86156 98.0197C4.28446 98.6381 3.74859 99.0503 3.29516 99.3388V101.73C3.74859 101.977 4.28447 102.389 4.82035 102.966C6.05698 104.203 7.16995 106.264 7.16995 109.314C7.16995 112.365 6.05698 114.426 4.86156 115.745C4.28446 116.363 3.74859 116.775 3.29516 117.064V119.455C3.74859 119.702 4.28447 120.114 4.82035 120.691C6.05698 121.928 7.16995 123.989 7.16995 127.04C7.16995 130.09 6.05698 132.151 4.86156 133.47C4.28446 134.088 3.74859 134.501 3.29516 134.789V137.262C4.36691 137.427 5.76843 137.757 7.16995 138.499C9.47834 139.777 11.5394 142.168 11.5394 146.413H8.69514C8.69514 143.322 7.29362 141.838 5.80965 141.014C4.20203 140.148 2.42951 140.024 1.89363 140.024C1.11043 140.024 0.492112 139.406 0.492112 138.581V133.965C0.492112 133.388 0.863108 132.852 1.39898 132.646C1.39898 132.646 1.39898 132.646 1.48142 132.646C1.56386 132.646 1.64631 132.563 1.81119 132.481C2.09974 132.316 2.47073 132.027 2.84172 131.615C3.5837 130.791 4.40813 129.43 4.40813 127.122L4.28447 126.792Z" fill="#1E1E1E"/>
<path d="M68.4219 -0.0482085C69.0402 -0.0482085 69.5761 0.364003 69.7822 0.9411C69.7822 0.9411 69.7822 0.982316 69.8234 1.06476C69.8234 1.18842 69.9471 1.31209 70.0295 1.51819C70.2356 1.93041 70.5242 2.46628 70.9776 2.96094C71.8432 3.99147 73.2448 4.98078 75.4295 4.98078C77.6142 4.98078 78.9745 3.99147 79.7577 2.96094C80.1699 2.42506 80.4585 1.93041 80.6234 1.51819C80.7058 1.31209 80.7882 1.1472 80.7882 1.06476C80.7882 1.02354 80.7882 0.982321 80.7882 0.9411C80.9531 0.322782 81.5302 -0.0894307 82.1485 -0.0894307H86.4356C87.0539 -0.0894307 87.5485 0.322781 87.7546 0.899878C87.7546 0.899878 87.7546 0.941094 87.7959 1.02354C87.7959 1.1472 87.9195 1.27087 88.002 1.47697C88.2081 1.88918 88.4966 2.42506 88.9501 2.91972C89.8157 3.95025 91.2172 4.93956 93.4019 4.93956C95.5867 4.93956 96.947 3.95025 97.7302 2.91972C98.1424 2.38384 98.4309 1.88918 98.5958 1.47697C98.6783 1.27087 98.7607 1.10598 98.7607 1.02354C98.7607 0.982315 98.7607 0.941099 98.7607 0.899878C98.9256 0.281559 99.5027 -0.130653 100.121 -0.130653H104.326C104.944 -0.130653 105.48 0.281559 105.686 0.858656C105.686 0.858656 105.686 0.89988 105.727 0.982322C105.727 1.10599 105.851 1.22964 105.933 1.43575C106.139 1.84796 106.428 2.38384 106.881 2.87849C107.747 3.90903 109.148 4.89833 111.333 4.89833C113.518 4.89833 114.878 3.90903 115.661 2.87849C116.074 2.34262 116.362 1.84796 116.527 1.43575C116.609 1.22964 116.692 1.06476 116.692 0.982322C116.692 0.941101 116.692 0.899877 116.692 0.858656C116.857 0.240337 117.434 -0.171875 118.052 -0.171875H122.257C123.04 -0.171875 123.658 0.446445 123.658 1.27087C123.658 4.36246 125.06 5.84642 126.544 6.67085C128.151 7.53649 129.924 7.66016 130.46 7.66016C131.243 7.66016 131.861 8.27848 131.861 9.1029V13.7197H129.017V10.422C127.945 10.2571 126.544 9.92733 125.142 9.18535C123.122 8.07237 121.267 6.05253 120.855 2.71361H118.959C118.712 3.24949 118.3 3.99147 117.722 4.73345C116.486 6.25864 114.425 7.82505 111.168 7.82505C107.912 7.82505 105.81 6.29986 104.532 4.77468C103.913 4.03269 103.46 3.2907 103.213 2.75483H100.904C100.657 3.2907 100.245 4.03269 99.6676 4.77468C98.4309 6.29986 96.3699 7.86627 93.1134 7.86627C89.8569 7.86627 87.7546 6.34108 86.4768 4.81589C85.8584 4.07391 85.405 3.33193 85.1577 2.79605H82.8493C82.602 3.33193 82.1898 4.07391 81.6127 4.81589C80.376 6.34108 78.315 7.90748 75.0585 7.90748C71.802 7.90748 69.6997 6.3823 68.4219 4.85711C67.8036 4.11513 67.3501 3.37315 67.1028 2.83727H63.7227C62.9807 2.79605 62.4036 2.17773 62.4036 1.39453C62.4036 0.611325 62.9807 0.034227 63.7227 -0.00699418H68.0509L68.4219 -0.0482085Z" fill="#1E1E1E"/>
<path d="M131.412 96.9518C131.948 97.1579 132.319 97.6938 132.319 98.2709V102.393C132.319 103.011 131.948 103.547 131.371 103.753C131.371 103.753 131.371 103.753 131.288 103.753C131.206 103.753 131.123 103.836 131 103.918C130.711 104.083 130.34 104.33 129.969 104.701C129.227 105.443 128.444 106.762 128.444 109.071C128.444 111.379 129.268 112.74 130.01 113.564C130.381 113.976 130.794 114.265 131.041 114.43C131.165 114.512 131.288 114.594 131.371 114.594C131.371 114.594 131.412 114.594 131.453 114.594C131.989 114.801 132.36 115.336 132.36 115.914V120.036C132.36 120.654 131.989 121.19 131.412 121.396C131.412 121.396 131.412 121.396 131.329 121.396C131.247 121.396 131.165 121.478 131.041 121.561C130.752 121.726 130.381 121.973 130.01 122.344C129.268 123.086 128.485 124.405 128.485 126.714C128.485 129.022 129.31 130.382 130.052 131.207C130.423 131.619 130.835 131.907 131.082 132.072C131.206 132.155 131.329 132.237 131.412 132.237C131.412 132.237 131.453 132.237 131.494 132.237C132.03 132.443 132.401 132.979 132.401 133.556V138.173C132.401 138.956 131.783 139.616 131 139.616C130.464 139.616 128.691 139.739 127.084 140.605C125.6 141.43 124.198 142.955 124.198 146.005C124.198 146.788 123.58 147.448 122.797 147.448H118.592C117.933 147.448 117.397 147.036 117.232 146.417C117.232 146.417 117.232 146.335 117.232 146.294C117.232 146.17 117.149 146.046 117.067 145.84C116.902 145.428 116.613 144.933 116.201 144.397C115.377 143.408 114.058 142.378 111.873 142.378C109.688 142.378 108.287 143.408 107.38 144.397C106.926 144.933 106.638 145.469 106.432 145.84C106.349 146.046 106.267 146.211 106.226 146.294C106.226 146.335 106.226 146.376 106.184 146.417C106.02 146.994 105.442 147.407 104.824 147.407H100.62C99.9601 147.407 99.4242 146.994 99.2593 146.376C99.2593 146.376 99.2593 146.294 99.2593 146.252C99.2593 146.129 99.1769 146.005 99.0944 145.799C98.9295 145.387 98.641 144.892 98.2288 144.356C97.4043 143.367 96.0853 142.336 93.9005 142.336C91.7158 142.336 90.3143 143.367 89.4074 144.356C88.954 144.892 88.6654 145.428 88.4593 145.799C88.3769 146.005 88.2944 146.17 88.2532 146.252C88.2532 146.294 88.2532 146.335 88.212 146.376C88.0471 146.953 87.47 147.365 86.8517 147.365H82.6471C81.9876 147.365 81.4517 146.953 81.2868 146.335C81.2868 146.335 81.2868 146.252 81.2868 146.211C81.2868 146.088 81.2044 145.964 81.1219 145.758C80.9571 145.346 80.6685 144.851 80.2563 144.315C79.4319 143.326 78.1128 142.295 75.9281 142.295C73.7434 142.295 72.3418 143.326 71.435 144.315C70.9815 144.851 70.693 145.387 70.4869 145.758C70.4044 145.964 70.322 146.129 70.2808 146.211C70.2808 146.252 70.2808 146.294 70.2395 146.335C70.0747 146.912 69.4976 147.324 68.8793 147.324H64.551C63.809 147.283 63.2319 146.665 63.2319 145.881C63.2319 145.098 63.809 144.521 64.551 144.48H67.9312C68.2197 143.944 68.6319 143.202 69.2502 142.46C70.5281 140.935 72.6716 139.41 75.8869 139.41C79.1021 139.41 81.2044 140.935 82.441 142.501C83.0181 143.243 83.4303 143.944 83.6777 144.521H85.9861C86.2746 143.985 86.6868 143.243 87.3051 142.501C88.583 140.976 90.7265 139.451 93.9418 139.451C97.157 139.451 99.2593 140.976 100.496 142.542C101.073 143.284 101.485 143.985 101.733 144.562H104.041C104.33 144.026 104.742 143.284 105.36 142.542C106.638 141.017 108.781 139.492 111.997 139.492C115.212 139.492 117.314 141.017 118.551 142.584C119.128 143.326 119.54 144.026 119.787 144.604H121.684C122.096 141.265 123.951 139.245 125.971 138.132C127.331 137.39 128.774 137.019 129.845 136.895V134.422C129.392 134.133 128.856 133.721 128.279 133.103C127.084 131.825 125.971 129.764 125.971 126.672C125.971 123.581 127.084 121.602 128.32 120.324C128.856 119.747 129.433 119.376 129.845 119.088V116.697C129.392 116.408 128.856 115.996 128.279 115.378C127.084 114.1 125.971 112.039 125.971 108.947C125.971 105.856 127.084 103.877 128.32 102.599C128.856 102.022 129.433 101.651 129.845 101.362V98.9716C129.392 98.6831 128.856 98.2709 128.279 97.6526C127.084 96.3747 125.971 94.3136 125.971 91.222C125.971 88.1305 127.084 86.1518 128.32 84.874C128.856 84.2969 129.433 83.9259 129.845 83.6373V81.2465C129.392 80.958 128.856 80.5458 128.279 79.9274C127.084 78.6496 125.971 76.5885 125.971 73.4969C125.971 70.4053 127.084 68.4267 128.32 67.1488C128.897 66.5305 129.516 66.1183 129.969 65.871C130.216 65.7473 130.381 65.6649 130.546 65.5824C130.629 65.5824 130.67 65.5412 130.711 65.5H130.752C130.752 65.5 130.903 65.9534 131.206 66.8603C131.659 68.1794 131.659 68.2206 131.659 68.2206C131.659 68.2206 131.659 68.2206 131.577 68.2206C131.494 68.2206 131.412 68.303 131.288 68.3855C131 68.5504 130.629 68.7977 130.258 69.1687C129.516 69.9107 128.732 71.2298 128.732 73.5381C128.732 75.8465 129.557 77.2068 130.299 78.0313C130.67 78.4435 131.082 78.732 131.329 78.8969C131.453 78.9793 131.577 79.0618 131.659 79.0618C131.659 79.0618 131.7 79.0618 131.742 79.0618C132.278 79.2679 132.648 79.8038 132.648 80.3809V84.503C132.648 85.1213 132.278 85.6572 131.7 85.8633C131.7 85.8633 131.7 85.8633 131.618 85.8633C131.536 85.8633 131.453 85.9457 131.329 86.0282C131.041 86.1931 130.67 86.4404 130.299 86.8114C129.557 87.5534 128.774 88.8724 128.774 91.1808C128.774 93.4892 129.598 94.8495 130.34 95.6739C130.711 96.0862 131.123 96.3747 131.371 96.5396C131.494 96.622 131.618 96.7045 131.7 96.7045C131.7 96.7045 131.742 96.7045 131.783 96.7045L131.412 96.9518Z" fill="#1E1E1E"/>
<path d="M131.371 61.4955C131.948 61.7016 132.319 62.2375 132.319 62.8558V66.9779C132.319 67.555 131.948 68.0909 131.412 68.297C131.412 68.297 131.412 68.297 131.329 68.297C131.247 68.297 131.165 68.3795 131 68.4619C130.711 68.6268 130.34 68.9153 129.969 69.3275C129.227 70.152 128.403 71.5123 128.403 73.8207C128.403 76.129 129.227 77.4481 129.928 78.1901C130.299 78.5611 130.67 78.8496 130.958 78.9733C131.082 79.0558 131.206 79.097 131.247 79.1382C131.247 79.1382 131.288 79.1382 131.329 79.1382C131.329 79.1382 131.329 79.1382 130.876 80.4985C130.574 81.4054 130.423 81.8588 130.423 81.8588C130.423 81.8588 130.423 81.8588 130.381 81.8588C130.34 81.8588 130.258 81.8176 130.216 81.7764C130.052 81.6939 129.887 81.6115 129.639 81.4878C129.186 81.2405 128.568 80.8283 127.991 80.2099C126.754 78.9733 125.641 76.9122 125.641 73.8619C125.641 70.8115 126.754 68.7504 127.949 67.4314C128.526 66.813 129.062 66.4008 129.516 66.1123V63.7215C129.062 63.4741 128.526 63.0619 127.991 62.4848C126.754 61.2482 125.641 59.1871 125.641 56.1367C125.641 53.0864 126.754 51.0253 127.949 49.7062C128.526 49.0879 129.062 48.6757 129.516 48.3871V45.9963C129.062 45.749 128.526 45.3368 127.991 44.7597C126.754 43.5231 125.641 41.462 125.641 38.4116C125.641 35.3612 126.754 33.3002 127.949 31.9811C128.526 31.3628 129.062 30.9506 129.516 30.662V28.2712C129.062 28.0239 128.526 27.6116 127.991 27.0346C126.754 25.7979 125.641 23.7368 125.641 20.6865C125.641 17.6361 126.754 15.575 127.949 14.256C128.526 13.6376 129.062 13.2254 129.516 12.9369V10.4636C128.444 10.2987 127.042 9.96896 125.641 9.22698C123.333 7.94912 121.271 5.55829 121.271 1.3125H124.116C124.116 4.40409 125.517 5.88806 127.001 6.71248C128.609 7.57813 130.381 7.70179 130.917 7.70179C131.7 7.70179 132.319 8.32011 132.319 9.14453V13.7613C132.319 14.3384 131.948 14.8743 131.412 15.0804C131.412 15.0804 131.412 15.0804 131.329 15.0804C131.247 15.0804 131.165 15.1628 131 15.2453C130.711 15.4102 130.34 15.6987 129.969 16.1109C129.227 16.9353 128.403 18.2956 128.403 20.604C128.403 22.9124 129.227 24.2315 129.928 24.9735C130.299 25.3445 130.67 25.633 130.958 25.7567C131.082 25.8391 131.206 25.8804 131.247 25.9216C131.247 25.9216 131.288 25.9216 131.329 25.9216C131.907 26.1277 132.278 26.6636 132.278 27.2819V31.404C132.278 31.9811 131.907 32.517 131.371 32.7231C131.371 32.7231 131.371 32.7231 131.288 32.7231C131.206 32.7231 131.123 32.8055 130.958 32.888C130.67 33.0529 130.299 33.3414 129.928 33.7536C129.186 34.578 128.362 35.9383 128.362 38.2467C128.362 40.5551 129.186 41.8742 129.887 42.6162C130.258 42.9872 130.629 43.2757 130.917 43.3994C131.041 43.4818 131.165 43.523 131.206 43.5643C131.206 43.5643 131.247 43.5643 131.288 43.5643C131.865 43.7704 132.236 44.3062 132.236 44.9246V49.0467C132.236 49.6238 131.865 50.1597 131.329 50.3658C131.329 50.3658 131.329 50.3658 131.247 50.3658C131.165 50.3658 131.082 50.4482 130.917 50.5307C130.629 50.6955 130.258 50.9841 129.887 51.3963C129.145 52.2207 128.32 53.581 128.32 55.8894C128.32 58.1978 129.145 59.5169 129.845 60.2589C130.216 60.6299 130.587 60.9184 130.876 61.0421C131 61.1245 131.123 61.1657 131.165 61.207C131.165 61.207 131.206 61.207 131.247 61.207L131.371 61.4955Z" fill="#1E1E1E"/>
<path d="M62.8973 146.585C62.8973 146.585 62.8973 146.543 62.856 146.461C62.856 146.337 62.7324 146.214 62.6499 146.008C62.4438 145.595 62.1553 145.059 61.7018 144.565C60.8362 143.534 59.4347 142.545 57.2499 142.545C55.0652 142.545 53.7049 143.534 52.9217 144.565C52.5095 145.101 52.221 145.595 52.0561 146.008C51.9736 146.214 51.8912 146.379 51.8912 146.461C51.8912 146.502 51.8912 146.543 51.8912 146.585C51.7263 147.203 51.1492 147.656 50.5309 147.656H46.3263C45.708 147.656 45.1721 147.244 44.966 146.667C44.966 146.667 44.966 146.626 44.9248 146.543C44.9248 146.42 44.8011 146.296 44.7187 146.09C44.5126 145.678 44.224 145.142 43.7706 144.647C42.905 143.617 41.5034 142.627 39.2775 142.627C37.0516 142.627 35.7325 143.617 34.9493 144.647C34.537 145.183 34.2485 145.678 34.0836 146.09C34.0012 146.296 33.9187 146.461 33.9187 146.543C33.9187 146.585 33.9187 146.626 33.9187 146.667C33.7538 147.285 33.1768 147.739 32.5584 147.739H28.3539C27.7355 147.739 27.1997 147.327 26.9936 146.749C26.9936 146.749 26.9936 146.708 26.9523 146.626C26.9523 146.502 26.8287 146.379 26.7462 146.172C26.5401 145.76 26.2516 145.224 25.7982 144.73C24.9325 143.699 23.531 142.71 21.305 142.71C19.0791 142.71 17.76 143.699 16.9768 144.73C16.5646 145.266 16.276 145.76 16.1112 146.172C16.0287 146.379 15.9463 146.543 15.9463 146.626C15.9463 146.667 15.9463 146.708 15.9463 146.749C15.7814 147.368 15.2043 147.821 14.586 147.821H10.3814C9.5982 147.821 8.97988 147.203 8.97988 146.379C8.97988 143.287 7.57836 141.803 6.0944 140.979C4.48677 140.113 2.71425 139.989 2.17838 139.989C1.39517 139.989 0.776855 139.371 0.776855 138.546V133.93H3.62112V137.227C4.69288 137.392 6.0944 137.722 7.49592 138.464C9.51576 139.577 11.3707 141.597 11.7829 144.936H13.6791C13.9264 144.4 14.3386 143.658 14.9157 142.916C16.1524 141.391 18.2134 139.824 21.4699 139.824C24.7264 139.824 26.8287 141.35 28.1065 142.875C28.7249 143.617 29.1783 144.359 29.4256 144.895H31.6928C31.9401 144.359 32.3523 143.617 32.9294 142.875C34.1661 141.35 36.2271 139.783 39.4836 139.783C42.7401 139.783 44.8424 141.308 46.1202 142.833C46.7385 143.575 47.192 144.317 47.4393 144.853H49.7477C49.995 144.317 50.4072 143.575 50.9843 142.833C52.221 141.308 54.282 139.742 57.5385 139.742C60.795 139.742 62.8973 141.267 64.1751 142.792C64.7934 143.534 65.2469 144.276 65.4942 144.812H68.8743C69.6163 144.853 70.1934 145.472 70.1934 146.255C70.1934 147.038 69.6163 147.615 68.8743 147.656H64.5461C63.9278 147.656 63.3919 147.244 63.1858 146.667L62.8973 146.585Z" fill="#1E1E1E"/>
<path d="M66.7329 12.8906V134.658H63.8887V12.8906H66.7329Z" fill="#1E1E1E"/>
<path d="M119.704 12.2031C120.487 12.2031 121.105 12.8214 121.105 13.6459V133.929C121.105 134.713 120.487 135.372 119.704 135.372H12.9821C12.1989 135.372 11.5806 134.754 11.5806 133.929V13.6459C11.5806 12.8627 12.1989 12.2031 12.9821 12.2031H119.704ZM14.3836 132.487H118.261V15.0886H14.3836V132.487Z" fill="#1E1E1E"/>
<path d="M63.9728 124.451C64.756 124.451 65.3743 125.07 65.3743 125.894C65.3743 126.719 64.756 127.337 63.9728 127.337H14.2187C13.4355 127.337 12.8172 126.719 12.8172 125.894C12.8172 125.07 13.4355 124.451 14.2187 124.451H63.9728ZM63.9728 116.413C64.756 116.413 65.3743 117.032 65.3743 117.856C65.3743 118.68 64.756 119.299 63.9728 119.299H14.2187C13.4355 119.299 12.8172 118.68 12.8172 117.856C12.8172 117.032 13.4355 116.413 14.2187 116.413H63.9728ZM63.9728 108.416C64.756 108.416 65.3743 109.035 65.3743 109.859C65.3743 110.684 64.756 111.302 63.9728 111.302H14.2187C13.4355 111.302 12.8172 110.684 12.8172 109.859C12.8172 109.035 13.4355 108.416 14.2187 108.416H63.9728ZM63.9728 99.966C64.756 99.966 65.3743 100.584 65.3743 101.409C65.3743 102.233 64.756 102.852 63.9728 102.852H14.2187C13.4355 102.852 12.8172 102.233 12.8172 101.409C12.8172 100.584 13.4355 99.966 14.2187 99.966H63.9728ZM63.9728 91.1447C64.756 91.1447 65.3743 91.763 65.3743 92.5874C65.3743 93.4118 64.756 94.0301 63.9728 94.0301H13.518C12.7348 94.0301 12.1164 93.4118 12.1164 92.5874C12.1164 91.763 12.7348 91.1447 13.518 91.1447H63.9728ZM63.9728 82.1997C64.756 82.1997 65.3743 82.818 65.3743 83.6424C65.3743 84.4668 64.756 85.0851 63.9728 85.0851H14.2187C13.4355 85.0851 12.8172 84.4668 12.8172 83.6424C12.8172 82.818 13.4355 82.1997 14.2187 82.1997H63.9728ZM13.8477 25.7266C14.9607 26.922 24.7714 36.7738 39.1988 36.7738C49.1331 36.7738 58.0781 32.6105 64.385 25.8914L66.446 27.8701C64.1377 30.3433 61.4583 32.4456 58.5728 34.2181L66.4048 44.9357C66.8582 45.554 66.7346 46.4608 66.1163 46.9143C65.4979 47.3677 64.5911 47.244 64.1376 46.6257L56.0995 35.6197C54.0797 36.6502 51.9362 37.4746 49.7102 38.1342L61.9529 73.7905H65.2918C66.075 73.7905 66.6934 74.4088 66.6934 75.2333C66.6934 76.0577 66.075 76.676 65.2918 76.676H60.9636H12.9821C12.1989 76.676 11.5806 76.0577 11.5806 75.2333C11.5806 74.4088 12.1989 73.7905 12.9821 73.7905H15.579L28.4401 37.9281C26.2553 37.2273 24.1943 36.3616 22.3805 35.4136L14.1775 46.6257C13.7241 47.244 12.8172 47.4089 12.1989 46.9143C11.5806 46.4608 11.4157 45.554 11.9103 44.9357L19.9073 34.012C15.2905 31.2502 12.4462 28.3235 11.8279 27.664L13.889 25.7266H13.8477ZM46.9896 38.8349C44.9286 39.2883 42.7851 39.5357 40.6003 39.6181V73.8317H59.0262L47.0308 38.8761L46.9896 38.8349ZM18.5882 73.7905H37.7148V39.5769C35.4064 39.4945 33.2217 39.1647 31.1607 38.67L18.5882 73.7905Z" fill="#1E1E1E"/>
<path d="M89.5242 105.076C89.5242 105.076 89.5655 105.323 89.6479 105.241C92.6571 102.273 97.5212 101.902 100.86 101.902C102.179 101.902 103.869 102.273 103.869 103.51C103.869 104.87 102.797 105.488 101.767 105.406C95.5425 104.787 92.6983 106.89 91.0907 108.044C88.5762 109.445 84.0418 114.145 82.0632 116.041C79.0953 118.844 75.2617 121.688 71.7991 123.873C70.1503 124.945 68.3365 125.851 66.6877 126.882C66.564 126.964 66.3579 126.882 66.3579 126.717V123.172C66.3579 123.172 66.3991 123.007 66.4816 122.966C75.8388 118.473 86.68 109.775 87.5044 98.563C88.1227 90.1127 84.083 80.5906 76.4571 76.5921C73.2831 74.902 73.1594 75.8501 71.7167 75.1081C70.5625 74.531 70.8922 72.6349 72.4174 72.5524C74.4785 72.3875 78.5182 73.9952 80.2495 75.273C86.2678 79.7249 88.2464 83.5997 90.1426 90.1539C90.225 90.4012 90.5136 90.4012 90.5548 90.1539L90.8845 87.7218V64.5967C90.8845 64.4731 90.967 64.3906 91.0907 64.3906H93.8937C93.8937 64.3906 94.0998 64.4731 94.0998 64.5967V89.3295C94.0998 89.5768 94.4296 89.6593 94.5532 89.4531C96.1196 86.4028 100.242 75.1906 113.391 75.6028C113.515 75.6028 113.597 75.7265 113.597 75.8089C113.309 83.0638 107.826 89.0821 101.478 91.9264C99.3349 92.8745 96.6143 92.215 95.2952 93.905" fill="#1E1E1E"/>
<path d="M94.1026 65.1434C94.1026 64.8549 94.3911 64.5663 94.6797 64.5251C99.585 63.7007 104.738 60.3618 107.252 56.0747C110.838 49.9328 109.932 39.8748 108.819 33.0733C108.489 31.0535 108.077 29.0336 107.541 27.055C107.458 26.7664 107.211 26.6016 106.922 26.6016H78.0675C77.779 26.6016 77.5317 26.7664 77.4492 27.055C76.7897 29.4458 76.3362 31.8779 75.9653 34.3512C75.0172 41.029 74.2752 50.2213 77.8202 56.1984C80.3347 60.4442 85.4461 63.7007 90.3102 64.5251C90.5988 64.5663 90.8461 64.8549 90.8461 65.1434H94.0614H94.1026ZM105.315 46.5526H79.7164C79.3866 46.5526 79.0981 46.2641 79.0981 45.9343C79.0156 40.7817 79.634 35.629 80.4996 30.5588C80.5408 30.2703 80.8294 30.0229 81.1179 30.0229H103.954C104.243 29.9817 104.532 30.1878 104.573 30.4764C105.438 35.5466 106.098 40.7404 105.974 45.8931C105.974 46.2229 105.686 46.5114 105.356 46.5114L105.315 46.5526Z" fill="#1E1E1E"/>
</g>
<path d="M105.446 49.5156H79.5964C79.3203 49.5156 79.0949 49.7416 79.1109 50.0173C79.5192 57.085 88.4622 60.8004 89.6029 60.8004H95.4399C99.6115 60.8004 105.631 56.3652 105.934 50.0163C105.948 49.7405 105.722 49.5156 105.446 49.5156Z" fill="#D74646"/>
</svg>
