<svg width="39" height="39" viewBox="0 0 39 39" fill="none" xmlns="http://www.w3.org/2000/svg">
<path d="M18.5697 1.35871C18.9027 0.514568 20.0973 0.514571 20.4303 1.35872L25.1389 13.2977C25.2406 13.5554 25.4446 13.7594 25.7023 13.8611L37.6413 18.5697C38.4854 18.9027 38.4854 20.0973 37.6413 20.4303L25.7023 25.1389C25.4446 25.2406 25.2406 25.4446 25.1389 25.7023L20.4303 37.6413C20.0973 38.4854 18.9027 38.4854 18.5697 37.6413L13.8611 25.7023C13.7594 25.4446 13.5554 25.2406 13.2977 25.1389L1.35871 20.4303C0.514568 20.0973 0.514571 18.9027 1.35872 18.5697L13.2977 13.8611C13.5554 13.7594 13.7594 13.5554 13.8611 13.2977L18.5697 1.35871Z" fill="black"/>
</svg>
