<svg width="87" height="112" viewBox="0 0 87 112" fill="none" xmlns="http://www.w3.org/2000/svg">
<g opacity="0.4" clip-path="url(#clip0_1618_190)">
<path d="M-22.6273 -11.0625V122.275H110.426V122.405H-22.7578V-11.0625H-22.6273Z" fill="#F7A481"/>
<path d="M69.6241 26.0443L81.4963 30.3599C83.4906 30.9501 83.4705 33.4919 81.0546 33.1465C78.6387 32.8011 74.5196 30.6953 71.8627 29.857C70.705 29.4914 69.5271 29.1561 68.3359 28.9113C66.9773 31.6677 65.9333 34.7092 66.114 37.8344C66.2412 40.0778 67.1212 42.244 67.2885 44.4706C67.9611 53.5681 60.9944 62.8601 56.872 70.6196C53.238 77.457 51.2872 84.3916 48.2121 91.3698C46.2044 95.9269 43.6647 100.246 41.6938 104.823C43.996 104.736 46.3516 104.813 48.6505 104.699C50.7184 104.599 52.8097 104.253 54.8776 104.166C58.612 104.012 66.8435 105.169 69.3498 102.134C70.3938 100.866 69.6007 98.1769 69.0419 96.7518C66.3683 89.9278 61.0915 89.1566 54.9546 86.6517C53.6563 85.5216 54.4426 84.1434 56.1525 84.4117C57.4006 84.6062 61.6536 86.4404 63.0021 87.0541C65.9735 88.4088 68.115 90.0083 69.8684 92.805C74.0879 99.535 73.3852 105.578 64.615 106.761C60.9275 107.258 56.2295 107.194 52.4216 107.305C48.3158 107.425 44.1833 107.305 40.0943 107.58C37.7018 110.702 34.6033 112.831 30.5243 111.791C26.1643 110.678 17.8257 106.51 14.165 103.837C13.6062 103.432 13.0942 102.811 12.5521 102.459C11.1769 101.567 9.22941 101.249 7.73702 100.645C5.38468 99.696 3.0591 97.7142 0.763636 96.5674C-0.139826 95.6318 0.619751 94.542 1.84779 94.8304C2.19914 94.9142 3.22975 95.7559 3.67144 95.9973C5.51183 96.9999 8.39621 98.187 10.4106 98.7504C10.6114 98.8074 10.8121 98.8845 11.0263 98.8308C11.5884 95.8598 12.9303 93.147 13.8973 90.3135C15.5938 85.3473 16.9657 80.2637 19.0704 75.445C21.1618 70.6598 23.8153 66.1195 26.1777 61.4718C30.5913 52.7901 35.925 40.2924 43.5911 34.129C47.1681 31.2519 49.7011 31.3559 53.5961 29.8301C55.239 29.1863 57.4642 27.3319 57.9293 25.5714C57.9896 25.3468 57.8892 25.434 57.7855 25.3635C56.5039 24.4783 54.4393 24.0021 52.9068 23.7473C51.1266 23.4522 48.2088 23.0833 46.4788 23.479C44.8392 23.8546 43.5041 25.8867 42.3597 27.0335C39.3983 29.9911 37.3706 32.9554 32.7997 32.7005C30.3035 32.5597 25.4549 31.034 23.9291 33.8239C22.5069 36.4294 24.3072 37.479 24.7756 39.8296C26.3784 47.8708 20.4859 54.9027 15.3328 60.2378C13.4656 62.1726 11.2338 63.9532 9.54729 66.0256C5.24414 71.3171 13.3351 69.3822 15.915 69.674C17.3405 69.8349 18.7492 71.6859 17.0494 72.5041C15.3495 73.3223 9.53056 72.8931 7.74706 72.0045C6.50898 71.3875 5.3579 69.456 5.46833 68.0677C5.68917 65.2711 10.9794 60.8682 12.9336 58.873C17.6115 54.0979 22.7546 48.6421 22.2192 41.3587C22.0351 38.8371 20.4123 37.8546 20.6632 35.239C21.0447 31.2653 24.4678 29.2936 28.1285 29.0488C32.6893 28.7403 34.2084 30.8864 38.3343 27.2984C40.0341 25.8196 43.0222 21.8862 44.7622 21.1082C47.4291 19.9178 54.6033 20.9473 57.3705 22.0203C58.1468 22.3221 58.8763 22.7446 59.5723 23.1973C60.4958 21.685 61.2688 20.0821 62.0016 18.4658C63.1861 15.8603 64.1097 12.6411 65.4649 10.2167C66.0973 9.0833 67.051 7.82917 68.4764 7.82917C68.3426 7.1518 67.68 6.77288 67.2852 6.09551C65.4916 3.00378 67.4458 -1.25826 71.3675 -0.728439C72.8532 -0.527241 79.8299 2.97024 80.8906 4.05C82.7176 5.91108 82.6373 7.83923 81.0178 9.78414C80.4623 10.4514 78.8261 12.4031 78.033 11.2093C76.6109 9.06988 80.7802 8.12761 79.1339 6.19947C78.4413 5.38797 73.4287 2.873 72.2408 2.43036C71.4445 2.13527 70.2097 1.74294 69.6108 2.52426C69.0118 3.30557 69.2092 4.19084 69.7747 4.90174C70.4105 5.69982 70.444 5.17 71.1366 5.09288C73.0941 4.87156 75.8279 7.5542 76.4068 9.32473C77.0091 11.1724 76.196 12.0375 76.1759 13.7813C74.0779 17.9159 71.6084 21.8627 69.6442 26.061L69.6241 26.0443ZM73.6295 12.3997C72.5453 11.8431 69.9755 9.46222 68.7742 10.1564C68.5132 10.3073 68.1117 10.9947 67.9544 11.2864C66.81 13.399 65.8932 16.199 64.8425 18.4558C62.6441 23.1805 58.6521 31.7482 53.3551 33.3746C51.662 33.8943 50.0692 34.0352 48.3627 34.7494C39.3414 38.5353 33.6396 52.5353 29.4168 60.8179C26.1074 67.3132 22.2259 73.9595 19.733 80.8002C18.6555 83.7544 17.916 86.8227 16.8787 89.7904C16.1058 92.0035 15.0718 94.1463 14.3691 96.393C13.8504 98.0562 13.4489 98.6062 14.3858 100.229C16.1124 103.224 24.615 106.745 27.9612 108.109C30.4608 109.125 32.5588 110.249 35.1855 108.793C36.9255 107.831 38.3711 105.524 39.2913 103.794C42.2995 98.1535 45.4984 91.5575 47.7671 85.5954C49.9822 79.7741 51.8293 74.6134 54.794 69.0704C58.177 62.7393 64.5179 53.7156 64.8258 46.5731C64.9496 43.7061 63.8152 40.9463 63.6513 38.1027C63.2163 30.4907 68.1886 23.5092 71.5147 17.0775C72.1003 15.9441 73.1677 14.1267 73.5525 13.0033C73.6128 12.8256 73.7332 12.5908 73.6295 12.4131V12.3997Z" fill="#F7A481"/>
<path d="M72.9671 44.0435C73.8472 43.8356 74.503 44.409 75.0819 44.9925C76.32 46.2366 77.7321 48.4766 78.4414 50.0895C82.845 60.0957 75.5604 66.3396 70.4274 73.7939C69.5005 75.1386 68.6472 76.9024 67.7304 78.123C66.6228 79.6018 64.7389 78.7199 65.3078 77.2545C65.7796 76.0339 67.4226 73.7872 68.2189 72.6203C73.71 64.5891 81.6671 57.9295 74.2253 47.8026C73.71 47.1017 72.3648 45.9147 72.3414 45.1233C72.3247 44.627 72.4317 44.1709 72.9638 44.0435H72.9671Z" fill="#F7A481"/>
<path d="M46.8599 41.8386C49.8748 41.5502 53.8333 43.6795 54.1478 46.959C54.3486 49.0616 53.9571 50.4532 52.4044 51.8213C48.6266 55.1545 44.1127 56.6568 41.3253 61.4218C38.4175 66.3947 40.8167 69.6743 42.2121 74.4158C43.5304 78.9025 42.2623 82.4704 40.5825 86.5883C39.8028 88.4963 36.6608 95.6522 35.2588 96.618C34.4858 97.1512 33.3213 96.9533 33.2511 95.887C33.1975 95.109 35.1851 91.9703 35.6536 91.0247C37.2397 87.8122 40.1308 81.7998 40.2613 78.3258C40.3918 74.8517 37.6278 70.8915 37.2899 67.2431C36.8047 61.9751 40.7063 57.3006 44.5644 54.2525C46.4383 52.7703 48.8709 51.5296 50.5875 50.0038C51.4909 49.2024 51.7754 48.8201 51.5077 47.5258C51.0961 45.5272 46.9636 43.3274 45.5883 45.383C44.638 46.8014 47.2112 46.892 47.9373 47.0664C48.9111 47.3044 49.0851 48.3876 48.5564 49.1387C47.2781 50.9595 42.8646 48.3104 42.6069 46.6774C42.2288 44.2529 44.5878 42.0599 46.8599 41.8419V41.8386Z" fill="#F7A481"/>
<path d="M27.6185 82.3211C28.4182 82.0797 29.4321 82.7906 29.3451 83.649C29.2447 84.645 26.9392 87.6931 26.4507 89.2256C25.0453 93.6184 25.6978 97.022 29.827 99.329C30.8977 99.9259 32.7816 100.07 32.4369 101.606C32.0053 103.541 28.2275 101.458 27.3039 100.818C20.7254 96.2474 22.6628 88.4342 26.9526 82.9583C27.0831 82.7906 27.4411 82.3815 27.6185 82.3245V82.3211Z" fill="#F7A481"/>
</g>
<defs>
<clipPath id="clip0_1618_190">
<rect width="87" height="112" fill="white"/>
</clipPath>
</defs>
</svg>
