<svg width="185" height="203" viewBox="0 0 185 203" fill="none" xmlns="http://www.w3.org/2000/svg">
<g opacity="0.4" clip-path="url(#clip0_1618_196)">
<path d="M173.832 62.6201C174.101 62.818 176.812 60.4835 177.162 60.1384C177.669 59.641 178.537 58.6565 178.989 58.0932C180.171 56.6265 182.237 52.3026 183.252 51.5058C184.196 50.7649 186.114 50.912 186.236 52.1656C186.302 52.8659 184.581 55.9667 184.109 56.7584C182.445 59.5649 180.354 62.1176 177.821 64.1629C176.994 64.8328 174.244 66.3705 174.086 67.147L174.868 79.0174C175.228 88.7665 175.101 98.5663 175.116 108.351C179.999 105.078 184.886 100.576 190.093 97.8812C191.067 97.3737 195.548 95.3386 195.528 97.6223C195.508 99.4138 191.813 100.855 190.534 101.682C185.15 105.149 179.978 109.016 174.903 112.918C174.579 127.509 172.909 142.008 170.722 156.406C176.289 152.514 181.288 147.535 184.114 141.257C184.607 140.166 185.997 135.629 186.586 135.203C187.093 134.837 188.317 134.863 188.743 135.284C190.23 136.766 186.713 144.048 185.749 145.728C181.988 152.305 175.878 156.939 169.996 161.496C167.798 171.027 166.205 181.659 162.155 190.601C155.837 204.568 138.465 203 125.645 202.898C106.147 202.751 70.2416 203.335 53.961 192.165C41.106 183.339 38.1168 165.414 35.6707 151.032C33.6508 139.151 32.0827 126.682 30.9459 114.674C30.7784 112.929 30.682 111.137 30.687 109.376C26.1145 110.224 19.7859 112.837 16.8881 116.633C15.9086 117.912 14.2491 121.927 13.2189 122.525C11.6304 123.444 10.1333 122.003 10.7321 120.297C11.0823 119.303 12.9601 116.171 13.6249 115.187C17.0607 110.107 24.3991 107.214 30.1592 105.752L29.3929 90.2585C24.2367 90.9944 17.8219 93.1208 13.7721 96.4652C13.1529 96.9778 11.6406 98.8353 11.128 98.9875C9.57504 99.4595 8.62094 97.8152 9.21979 96.5667C11.737 91.3243 23.2319 87.5586 28.7078 86.8532L29.1036 86.4726C28.4794 71.9022 28.4439 57.3319 30.1491 42.8225C28.9818 41.1883 27.4086 39.8638 26.3428 38.1433C25.6526 37.0268 24.1149 34.7177 25.6729 33.7027C27.9009 32.2513 28.9565 37.3922 30.682 38.0672C31.7173 31.3733 32.7576 24.6337 34.6354 18.1174C35.5489 14.9455 36.3457 11.9614 38.6903 9.51018C42.1159 5.92216 48.8251 3.43033 53.6311 2.49146C54.8237 2.25801 60.4874 1.34958 61.1827 1.76573C61.3045 1.83678 62.553 4.02411 62.6088 4.21188C63.2026 6.15561 61.8019 9.19553 61.9084 11.2864C58.0311 13.9153 58.5843 7.51571 59.1121 5.26241C54.6309 5.56691 49.3021 6.75953 45.3386 8.92656C26.3378 19.3202 57.3714 33.4084 66.0243 36.7173C89.4352 45.6645 114.374 46.2227 138.693 40.5286C142.824 39.5593 158.379 35.0374 160.353 31.7032C161.592 29.6123 160.257 28.7394 158.709 27.4858C152.756 22.6595 143.692 19.9139 136.196 18.7416C109.953 14.6258 82.4622 22.5225 58.4067 32.3426C57.3409 32.5964 55.8387 31.8097 56.4021 30.5867C56.869 29.5717 60.8478 27.9578 62.0404 27.4351C87.3646 16.3513 127.406 8.12979 153.335 20.2032C157.887 22.3195 162.272 25.2528 165.301 29.2925C164.484 26.1663 164.119 19.5485 162.048 17.1734C155.045 9.13464 127.66 5.47048 117.119 4.49101C103.686 3.24256 85.9386 2.37473 72.6776 4.22711C70.3177 4.55698 74.1138 6.54131 74.1138 7.45988C74.1138 7.96738 72.4949 9.43913 71.9569 9.34271C71.3784 9.24121 68.9373 6.76968 68.4197 6.16576C68.1253 5.82066 68.0289 5.36391 67.7599 5.01881C67.2879 4.40981 65.6233 3.75513 66.9885 2.40518C67.6077 1.79111 72.0432 1.26331 73.2054 1.13136C89.0394 -0.695642 106.944 -0.162767 122.778 1.67946C133.542 2.93298 157.324 6.58191 164.667 14.8186C166.91 17.3308 168.067 24.7301 168.808 28.2471C171.193 39.5846 172.68 51.0897 173.838 62.6201H173.832ZM165.565 31.6169C165.525 31.6524 165.469 32.1548 165.195 32.4035C156.034 40.691 139.987 44.3298 127.929 46.0502C104.904 49.3337 83.2488 47.6234 61.7054 38.7168C52.7227 35.0019 43.2578 29.7391 37.1577 22.0607L33.8234 41.2645C40.3194 46.0908 47.8659 49.6484 55.4378 52.4853C73.8702 59.3873 93.0486 61.6507 112.74 60.8286C115.013 60.7322 119.048 59.8694 120.997 60.0318C122.945 60.1942 123.367 62.1938 121.738 63.1123C120.109 64.0258 115.805 64.1172 113.775 64.1933C97.9257 64.7871 82.1374 63.7518 66.816 59.7172C55.0724 56.6214 43.5877 51.9372 33.4174 45.3194L32.2806 63.8939C37.2592 65.7107 42.2276 67.5885 47.2975 69.1617C69.2469 75.9673 92.5767 79.2864 115.561 78.383C119.484 78.2308 124.016 78.3272 127.858 77.505C134.862 76.0079 137.815 67.5276 145.286 66.7714C149.934 66.2994 153.431 68.6035 152.903 73.6176C152.71 75.4497 149.782 81.4179 147.585 78.6723C146.402 77.1904 148.513 75.8658 149.077 74.4397C151.152 69.2176 145.463 69.5474 142.23 71.4709C137.262 74.4245 135.262 79.5147 128.629 80.8647C118.079 83.0063 101.646 82.1537 90.77 81.2352C70.7998 79.5503 50.9058 74.6275 32.2501 67.5479L32.5039 85.3764C39.6393 84.879 46.0795 86.0869 52.5755 88.9492C62.558 93.3441 64.0247 97.8304 60.797 108.371C59.513 112.563 56.128 117.765 57.8789 122.145C58.8685 124.621 60.5585 123.353 62.081 122.064C68.4603 116.664 68.6937 104.94 71.5763 97.7137C72.7994 94.6585 75.7683 91.8673 79.3309 92.4205C82.8936 92.9736 84.6495 95.5467 87.1413 97.2722C87.3596 97.4244 87.3951 97.6325 87.7909 97.5259C89.7753 87.2186 98.8697 82.2857 108.634 86.6299C118.261 90.9132 120.784 101.068 120.083 110.827C119.703 116.136 116.607 123.373 121.773 127.489C123.864 129.153 125.123 129.042 127.498 128.057C133.588 125.535 140.571 115.852 147.285 117.217C151.365 118.049 149.396 123.561 150.168 124.667C151.081 125.966 155.852 122.464 156.857 121.764C161.779 118.349 166.301 114.278 171.442 111.162C172.036 104.494 171.64 97.7594 171.757 91.0604C170.909 90.223 163.794 93.5014 162.536 94.1155C154.01 98.277 146.362 104.078 137.455 107.529C133.476 109.072 129.325 110.021 125.3 111.396C124.788 111.568 124.082 112.183 123.783 112.208C122.56 112.33 122.326 109.478 122.9 108.732C123.326 108.178 132.096 105.824 133.649 105.27C138.074 103.707 142.236 101.606 146.346 99.3681C154.461 94.9529 162.439 88.9086 171.747 87.4368L170.711 68.5781C168.524 69.6845 166.413 70.9837 164.17 71.9834C163.104 72.4554 158.871 74.3839 158.054 73.8764C157.917 73.7901 157.014 72.5112 157.014 72.3285C157.014 72.2372 157.79 70.7705 157.861 70.7147C158.313 70.3341 162.297 69.0247 163.312 68.5426C165.743 67.3956 168.128 66.1117 170.463 64.7871C169.331 53.9824 168.509 42.6043 166.058 32.0178C165.981 31.6981 165.997 31.2312 165.55 31.6321L165.565 31.6169ZM165.428 29.5514V29.8102C165.596 29.7239 165.596 29.6376 165.428 29.5514ZM171.498 115.324C166.555 118.298 162.282 122.292 157.476 125.459C153.735 127.92 146.93 131.361 146.463 123.941C146.326 121.739 147.691 119.318 143.677 120.962C136.298 123.982 126.965 138.735 118.287 128.884C112.653 122.49 117.15 113.269 116.739 105.631C116.414 99.5407 114.085 93.6232 108.634 90.4818C103.6 87.584 97.403 87.3708 93.6272 92.3545C92.4701 93.8821 90.0696 99.7285 90.4198 101.444C90.5873 102.261 94.4493 107.478 95.236 108.787C98.0018 113.38 102.539 125.322 105.619 128.118C106.741 129.138 109.537 130.082 108.34 132.122C107.284 133.914 104.254 131.579 103.295 130.701C98.9559 126.748 97.3573 118.724 94.1347 113.771L89.0952 105.509C85.1367 118.075 77.377 131.777 65.6589 138.527C59.2694 142.206 51.6975 144.343 49.0585 135.33C46.6936 127.25 51.9767 121.125 48.9672 111.908C48.3633 110.056 47.668 108.077 45.6837 107.437C42.1413 106.296 37.5383 106.184 34.0873 107.6C33.6305 108.123 34.9145 119.709 35.0921 121.389C36.5182 134.929 38.4315 149.834 41.4663 163.07C46.2267 183.826 53.489 191.875 74.5655 196.113C92.1504 199.645 111.846 199.604 129.792 199.538C139.957 199.498 153.791 200.249 158.892 189.388C162.464 181.786 164.129 172.352 165.819 164.156L152.995 170.834C129.274 181.228 101.965 182.38 76.6818 177.721C76.2098 177.447 76.225 176.351 75.9611 175.859C75.1237 174.306 73.6672 173.93 75.6718 172.311C76.2402 171.854 76.9812 171.479 77.7171 171.387C77.7526 172.25 79.1888 174.504 79.8892 174.793C81.2188 175.351 85.289 175.808 86.9231 176.006C94.5661 176.929 103.219 177.112 110.928 176.823C130.634 176.087 150.259 170.342 166.611 159.39C169.311 144.886 170.762 130.087 171.498 115.319V115.324ZM33.5392 104.215C37.3657 102.631 46.2165 102.799 49.3021 105.631C52.7328 108.782 53.7884 116.983 53.4281 121.394C53.017 126.398 49.9467 132.295 53.5753 137.014C55.9098 140.044 62.2535 136.649 64.7758 135.071C74.2153 129.153 81.3914 117.582 84.954 107.194C85.3194 106.123 86.6237 102.383 86.507 101.52C86.3344 100.246 81.3051 96.6835 79.9551 96.1658C75.5551 94.486 74.4538 99.6473 73.6012 102.819C71.5408 110.472 69.9675 121.394 62.4768 125.799C59.9952 127.26 57.8231 127.89 55.7525 125.276C49.3427 117.186 62.1064 105.438 58.1276 96.8053C57.3206 95.0493 54.2452 93.4811 52.4892 92.6285C46.5616 89.751 39.4871 87.9697 32.9099 88.9441L33.5341 104.215H33.5392Z" fill="#F7A481"/>
<path d="M165.43 29.5547C165.597 29.641 165.597 29.7272 165.43 29.8135V29.5547Z" fill="#F7A481"/>
<path d="M39.9296 142.236C40.9192 142.058 44.1114 144.469 45.2482 145.083C66.7611 156.689 94.4554 160.409 118.678 159.516C123.972 159.323 131.046 159.176 136.162 158.136C142.12 156.923 141.013 152.366 144.896 150.594C147.875 149.234 153.442 149.848 155.345 152.802C157.03 155.416 154.34 157.375 152.889 156.035C152.118 155.319 152.61 154.467 151.016 153.776C145.15 151.234 144.835 157.496 141.257 159.877C137.679 162.257 129.615 162.358 125.388 162.607C100.281 164.104 73.0287 161.648 49.9019 151.29C47.9633 150.422 38.9095 146.083 38.4883 144.347C38.3005 143.56 39.1125 142.388 39.9346 142.241L39.9296 142.236Z" fill="#F7A481"/>
<path d="M55.9418 164.722C57.6013 164.23 59.2963 166.991 60.5448 168.021C62.0318 169.249 66.1425 170.888 66.2998 172.614C66.4013 173.71 65.5437 174.106 64.5896 174.177C62.9453 174.299 58.8396 171.178 57.5607 169.97C56.5609 169.026 53.1607 165.55 55.9418 164.722Z" fill="#F7A481"/>
</g>
<defs>
<clipPath id="clip0_1618_196">
<rect width="185" height="203" fill="white"/>
</clipPath>
</defs>
</svg>
