<svg width="340" height="263" viewBox="0 0 340 263" fill="none" xmlns="http://www.w3.org/2000/svg">
<g opacity="0.4" clip-path="url(#clip0_1640_1580)">
<path d="M171.856 109.233L178.902 111.644C180.872 113.081 181.821 113.611 180.328 115.902C178.717 118.379 174.905 122.867 172.31 124.204C170.156 125.313 165.63 126.26 165.614 122.668C165.595 119.448 167.453 121.133 168.879 121.054C169.951 120.994 174.974 117.116 175.069 115.961C175.148 114.889 172.827 114.102 172.037 114.254C171.734 114.32 171.718 116.749 169.218 116.418C165.733 115.951 167.796 110.242 167.928 107.853C168.059 105.463 168.228 96.9588 167.735 94.977C167.617 94.4898 166.178 94.4405 166.979 92.2643C167.354 91.2545 172.825 88.3748 174.227 87.0043C180.447 80.9327 181.106 73.4614 180.2 65.2399C180.072 64.0595 179.165 57.5325 178.273 57.2731C177.833 57.1384 174.272 57.8701 173.256 57.8904C167.535 57.9832 161.023 56.9171 155.616 55.1116C153.132 65.7275 153.55 80.7598 161.779 88.8948C162.754 89.8523 165.652 91.4655 165.568 92.7923C165.473 94.2676 163.845 94.3341 163.724 94.7314C163.478 95.5682 164.128 97.6027 164.155 98.6808C164.203 101.274 163.71 104.152 162.619 106.512C160.699 110.652 156.423 113.033 152.769 115.389C164.909 115.472 164.409 128.996 162.572 137.681C159.49 152.309 148.848 167.242 139.661 178.783C133.657 186.318 127.272 193.626 119.73 199.656C128.064 199.954 135.744 204.313 142.435 208.939C149.564 213.882 156.912 222.6 166.142 216.23C182.77 204.759 164.842 184.079 161.792 169.785C161.364 167.796 159.427 159.658 162.788 159.543C165.765 159.435 165.605 166.789 166.085 169.132C169.356 185.156 186.337 201.769 171.418 217.249C157.153 232.047 145.315 214.356 132.986 207.856C130.361 206.474 126.065 204.494 123.205 203.949C121.844 203.692 118.453 203.923 117.815 203.04C117.541 202.66 117.698 201.871 117.413 201.821C116.695 201.679 110.518 204.737 109.131 205.213C100.886 208.033 90.4214 210.476 81.8459 212.614C59.5712 218.172 39.6117 224.442 24.1046 202.819C0.97742 170.553 -3.45191 134.877 28.861 106.791C37.8524 98.9784 54.2133 90.3467 66.3083 89.9683C67.903 89.921 73.5299 89.9607 71.7481 92.9375C71.0178 94.1698 62.6063 94.9113 60.69 95.3111C42.6221 99.0593 24.2085 113.571 15.6324 129.765C3.10983 153.392 13.3182 182.211 28.8038 201.83C42.2339 218.844 59.3474 213.65 77.7278 209.357C84.3641 207.809 92.5321 206.029 98.8965 203.888C100.796 203.253 107.388 199.72 108.549 199.943C109.119 200.054 109.414 200.777 110.095 200.66C110.57 200.584 115.612 197.059 116.431 196.45C131.699 185.202 155.237 154.179 158.77 135.499C160.092 128.507 160.173 118.217 150.134 119.686C149.034 120.351 150.433 126.547 148.378 126.938C144.81 127.605 145.759 122.284 145.361 120.159C145.241 119.523 143.796 115.05 142.737 115.75C140.68 119.689 136.146 122.277 132.943 125.419C132.362 125.989 129.921 128.413 129.731 128.891C129.478 129.493 129.867 132.107 129.597 133.326C129.105 135.501 119.386 149.182 117.384 151.772C110.083 161.217 100.5 169.93 87.8274 163.461C76.3346 157.59 72.9834 143.831 69.169 132.642C68.8158 131.649 70.107 130.165 71.0407 130.097C74.1757 129.85 74.3489 134.998 75.0644 137.175C77.8937 145.892 81.9998 155.693 90.8221 159.89C98.3698 163.474 105.883 159.062 110.688 153.241C108.661 153.208 105.629 151.17 104.081 149.814C102.625 148.538 101.291 146.502 99.888 145.059C89.2605 134.17 78.9106 123.118 69.0207 111.552C68.4293 106.932 71.4379 108.328 73.7772 110.503C79.1706 115.536 84.2054 122.338 89.3269 127.78C92.8679 131.545 96.7138 135.052 100.3 138.776C102.444 141.002 104.951 144.562 107.303 146.375C107.567 146.583 107.603 146.863 108.112 146.757C108.199 145.718 109.053 144.899 109.681 144.097C118.719 132.535 129.028 122.835 140.226 113.415C140.462 112.897 139.613 112.641 139.253 112.426C137.69 111.484 135.848 110.876 134.355 109.843C130.98 107.496 127.121 104.02 123.633 101.442C122.582 100.661 121.422 100.928 121.475 98.9383C121.531 96.5441 123.689 97.0443 125.251 97.8474C129.047 99.7951 132.92 103.378 136.505 105.781C140.09 108.184 144.895 109.898 147.737 113.735C148.261 113.886 148.918 112.638 149.48 112.195C152.829 109.606 156.801 108.794 158.877 104.386C160.237 101.5 159.374 99.7821 159.591 97.0571C159.659 96.1662 160.457 94.0324 160.325 93.5977C160.246 93.3262 157.09 90.3857 156.44 89.5342C150.985 82.2798 149.338 70.0998 150.246 61.2483C150.417 59.5753 151.822 52.2902 152.72 51.2712C153.331 50.5749 155.523 50.5338 156.502 50.6069C157.309 50.6692 157.605 51.3914 158.393 51.6016C162.036 52.591 168.491 53.5575 172.233 53.4982C175.976 53.4389 180.314 51.073 183.055 54.328C184.087 63.5806 186.515 72.56 182.946 81.6039C180.742 87.1861 176.869 91.127 171.862 94.2495C171.917 99.2512 172.334 104.255 171.887 109.257L171.856 109.233ZM112.105 151.967L123.373 134.762C119.158 138.713 115.842 143.467 111.97 147.728C111.598 148.365 111.607 149.058 111.583 149.771C111.569 150.154 111.645 151.81 112.105 151.967Z" fill="#F7A481"/>
<path d="M260.07 177.709C262.096 175.089 265.363 170.086 265.356 166.686C265.345 157.669 260.238 142.465 255.262 134.911C254.298 133.443 251.547 131.7 253.592 130.115C256.334 127.999 259.2 133.127 260.377 135.099C263.419 140.164 265.323 145.966 267.298 151.506L269.393 161.69C271.543 157.799 273.943 153.998 276.402 150.287C283.164 140.083 289.628 130.712 300.342 124.192C306.476 120.47 311.275 119.082 317.518 123.691C330.525 133.282 321.221 154.525 316.896 166.717C310.958 183.411 297.462 220.937 282.458 230.241C273.537 235.778 262.821 234.635 256.496 225.95C247.647 213.811 240.054 198.736 232.699 185.616C222.092 166.714 208.468 149.89 199.748 129.883C199.012 128.195 196.603 123.427 197.482 121.874C198.289 120.444 200.836 120.873 201.417 122.477C208.043 140.826 220.035 155.936 230.011 172.347C240.818 190.121 249.559 209.297 262.303 225.852C280.908 238.945 294.443 209.841 300.514 196.407C305.378 185.644 309.976 173.703 313.83 162.536C317.185 152.817 325.611 132.457 313.325 126.119C310.027 124.417 307.502 125.481 304.382 126.987C290.594 133.641 281.941 149.703 274.421 162.235C270.846 168.198 267.311 173.717 264.071 179.958C263.133 181.763 263.38 183.91 260.775 184.053C259.607 184.117 258.467 183.564 257.777 182.657C248.87 165.739 238.594 149.694 230.228 132.491C227.783 127.465 225.45 122.339 223.257 117.2C219.942 118.427 216.828 120.189 213.355 121.055C211.542 121.504 203.823 122.939 202.498 122.45C200.86 121.844 201.847 119.264 203.273 118.513C205.019 117.591 215.014 116.823 215.288 115.54C214.201 112.156 212.941 108.794 212.007 105.366C211.496 103.49 209.861 97.8222 209.948 96.2931C209.963 96.0489 210.089 95.7585 210.302 95.6016C201.87 96.0008 193.857 91.8335 190.494 83.9454C187.744 77.4926 186.846 64.2947 189.992 58.0266C191.289 55.4558 194.63 55.6586 195.037 57.816C195.163 58.5168 193.897 59.4377 193.515 60.234C191.85 63.7297 192.085 73.7627 192.975 77.7095C196.433 93.149 214.87 95.8295 222.041 81.5592C224.342 76.9743 225.563 67.2369 222.916 62.6876C222.569 62.09 222.565 62.4947 222.256 62.6455C213.803 67.0399 205.178 68.4498 196.216 71.4582C193.133 72.231 192.662 69.0677 195.328 67.9698C196.063 67.6651 196.966 67.744 197.69 67.4493C203.21 65.1482 208.25 63.8502 213.699 61.8217C216.15 60.902 218.393 59.2441 220.989 58.909C221.976 57.9917 216.05 51.7729 215.883 51.0375C215.675 50.1183 216.154 48.966 217.064 48.6085C219.464 47.6641 222.865 52.7837 223.934 54.6105C232.418 69.1136 229.552 87.2185 213.714 94.8604C215.704 101.169 216.519 107.967 219.332 113.934C221.684 113.743 227.475 106.866 229.338 110.139C230.577 112.318 227.215 114.107 225.726 115.184C226.599 115.89 227.217 116.42 227.85 117.377C229.878 120.416 231.678 125.849 233.419 129.359C241.631 145.955 251.504 161.293 260.05 177.676L260.07 177.709Z" fill="#F7A481"/>
<path d="M252.042 50.283C235.934 47.4316 238.882 26.0282 253.664 23.381C260.526 22.1567 273.379 24.1288 280.627 25.1993C294.48 27.2352 311.723 32.7169 309.543 49.7999C309.222 52.3052 307.84 55.7231 307.747 58.0085C307.652 60.5069 312.961 63.0095 315.063 63.7087C323.147 66.4205 330.38 64.2289 328.49 76.5985C327.354 84.018 323.633 86.0717 319.25 90.9712C316.42 94.1474 314.175 99.695 318.614 102.44C324.224 105.921 331.454 107.79 333.506 115.296C335.16 121.338 331.156 125.153 331.056 129.911C331.015 131.88 333.75 133.386 331.929 135.135C329.585 137.383 327.808 134.595 327.078 132.481C324.859 126.083 332.683 120.988 327.911 114.256C322.639 106.822 309.777 107.503 311.985 95.5053C313.542 87.0256 324.155 84.4318 324.564 74.3441C324.809 68.3384 319.68 69.5241 315.542 68.5883C312.057 67.7902 304.42 64.1051 303.514 60.4024C302.253 55.2277 308.031 47.039 304.263 41.3204C299.432 33.9992 288.915 30.7483 280.682 29.5297C274.227 28.5738 259.598 26.3071 253.799 27.791C250.313 28.6874 247.671 30.5861 246.488 34.0488C243.283 43.4143 249.674 46.2205 257.888 46.7239L259.148 48.7334C264.319 42.7119 271.698 34.8813 279.711 33.0166C283.03 32.2374 285.5 31.8624 287.685 34.9434C290.42 38.7842 287.823 43.1583 287.096 47.1724C293 49.7342 298.039 51.9638 296.46 59.4509C295.585 63.6154 289.121 74.1688 289.867 77.3817C290.185 78.7555 295.166 78.7113 296.553 78.7254C297.941 78.7394 300.392 78.0007 301.373 78.5217C302.706 79.2356 305.725 87.155 305.705 88.8057C305.633 94.9503 293.977 98.49 293.778 103.603C293.736 104.762 294.582 108.248 295.292 109.167C297.057 111.476 306.71 113.201 309.909 114.46C311.712 115.172 313.858 116.865 311.678 118.548C309.498 120.231 303.646 117.183 301.054 116.292C296.905 114.865 292.647 114.956 290.877 110.228C288.85 104.834 288.924 100.331 293.254 96.2591C295.47 94.1839 301.041 91.5771 300.954 88.2677C300.929 87.4775 299.666 83.6774 299.089 83.3527C298.346 82.9323 291.96 83.249 290.041 82.8494C280.079 80.7742 288.877 67.9613 290.819 62.9805C291.93 60.1314 293.379 56.8456 290.927 54.2697C289.104 52.3628 282.512 50.7161 281.857 49.097C281.064 47.128 285.946 40.5979 284.379 37.5351C283.667 36.1467 282.248 36.7914 281.058 37.0138C272.569 38.635 262.46 50.5755 258.447 57.8752C257.335 59.893 251.731 72.537 252.428 73.839C252.81 74.5455 257.162 74.9728 256.716 77.6086C256.24 80.381 253.119 78.4125 251.8 77.9872C250.324 77.5093 247.589 77.5158 247.605 75.0869C247.611 72.9984 250.122 66.2849 251.006 63.9967C252.789 59.3255 255.158 55.0114 257.532 50.6337C255.785 50.3836 253.764 50.5848 252.053 50.2837L252.042 50.283Z" fill="#F7A481"/>
<path d="M81.2058 7.8333C78.9626 7.99907 74.3419 11.1036 73.7368 13.2177C73.0383 15.6243 76.2444 18.1097 75.378 21.8058C74.0137 27.6121 67.8468 25.9926 64.3442 28.8168C60.1893 32.1536 60.1714 38.6214 64.4059 41.8973C65.0882 42.4205 67.5673 43.4101 67.6861 43.5563C67.9324 43.8811 69.2246 50.2408 69.5656 51.4242C73.8218 66.2327 79.6272 81.2041 79.8514 96.7568C78.4767 98.0438 71.5986 102.038 71.2579 103.359C70.9458 104.565 71.0326 107.554 72.4519 107.911C75.311 108.637 74.3326 107.733 74.7481 106.246C75.3144 104.236 78.1096 103.456 79.5031 102.042C80.21 103.686 79.5428 107.608 82.1547 107.188C83.3313 106.997 83.6385 105.866 83.8234 104.812C87.1843 85.8112 76.186 62.8348 72.0798 44.5083C72.0235 42.7143 75.2179 42.2043 76.5728 40.8948C80.4901 37.0952 79.988 31.7452 76.057 28.2329L76.0876 27.7553C80.867 25.343 80.8405 18.2328 77.6567 14.3953C82.8057 8.87335 89.5173 14.8439 88.8413 21.0779C88.5857 23.4062 85.6859 25.9918 86.884 27.8055C88.4331 30.1425 90.1447 29.1009 91.3487 27.1422C96.2388 19.1526 91.4007 7.09911 81.2157 7.84459L81.2058 7.8333ZM74.4272 36.3562C72.0222 41.5632 64.3794 39.6363 65.6958 33.9121C66.0816 32.2209 68.9014 30.8877 70.4682 30.7747C73.774 30.5276 75.852 33.282 74.4272 36.3562Z" fill="#F7A481"/>
<path d="M89.697 76.8866C93.1925 73.3372 95.6028 81.5908 97.0275 83.5362C101.821 90.0982 112.686 91.7515 119.759 88.0576C129.781 82.8363 128.012 71.224 125.959 61.8956C123.906 52.5671 117.333 40.7439 116.496 31.7809C116.438 31.1804 116.724 29.5468 116.586 29.3568C116.33 29.0207 112.62 28.5812 112.548 26.5304C112.547 26.3705 113.217 24.2498 113.318 24.1711C114.137 23.552 118.43 25.9151 120.415 24.9441C123.899 23.2378 124.197 17.2354 122.241 14.2436C121.463 13.0536 118.82 11.6165 118.794 10.6877C118.756 9.43834 119.768 8.31999 121.062 8.46659C124.868 8.91224 127.47 14.162 127.656 17.6056C127.921 22.4822 126.704 25.4845 122.844 28.3924C122.294 28.8049 121.301 28.9653 120.909 29.4092C120.299 30.1055 121.058 33.0955 121.293 34.1122C124.766 48.9666 133.743 61.114 131.534 77.6303C128.692 98.87 98.6565 99.8394 90.6781 81.5959C90.2212 80.5543 88.944 77.6378 89.6871 76.8753L89.697 76.8866Z" fill="#F7A481"/>
<path d="M202.244 147.837C204.014 147.556 205.218 148.933 204.597 150.471C203.849 152.309 198.846 156.551 197.198 158.439C192.024 164.353 185.66 173.837 184.528 181.693C182.938 192.707 188.035 206.728 201.102 206.518C204.118 206.466 207.261 204.908 210.237 204.81C213.213 204.713 223.467 207.073 225.888 208.805C227.165 209.718 227.494 211.923 225.63 212.337C224.211 212.652 215.606 209.555 212.924 209.245C204.727 208.295 201.301 213.266 192.125 208.758C181.456 203.526 178.684 191.072 180.293 180.101C181.712 170.43 190.959 158.445 197.77 151.654C198.638 150.783 201.316 147.991 202.243 147.848L202.244 147.837Z" fill="#F7A481"/>
<path d="M246.569 58.9496C247.922 58.6737 249.346 60.1288 248.82 61.502C243.451 69.6316 237.865 81.4881 241.199 91.3353C242.808 96.0847 250.945 100.814 255.802 101.039C262.501 101.339 266.56 98.1774 272.081 95.6847C273.313 95.1239 274.724 94.2762 275.79 95.6551C277.86 98.3664 271.121 101.527 269.218 102.376C259.622 106.622 249.827 106.444 241.636 99.3881C232.361 91.3995 236.451 74.6943 241.536 65.3316C242.286 63.9514 245.129 59.252 246.569 58.9496Z" fill="#F7A481"/>
<path d="M105.313 133.267C105.897 126.963 106.388 119.95 108.869 114.055C109.827 111.771 111.409 108.068 114.4 108.578C117.728 109.143 113.906 113.289 113.136 114.988C111.469 118.665 110.567 123.755 110.002 127.758C109.496 131.328 109.695 136.914 108.459 140.203C108.201 140.89 107.031 142.328 106.253 142.3C104.185 142.221 99.6192 132.935 98.2771 130.867C95.2626 126.219 91.627 120.925 88.4002 116.424C87.7038 115.452 83.4327 110.575 83.5216 110.187C83.5504 110.071 84.83 108.267 84.9298 108.209C86.4796 107.36 89.8721 111.275 90.8356 112.412L105.323 133.278L105.313 133.267Z" fill="#F7A481"/>
<path d="M105.042 42.3114C111.296 42.0714 111.768 43.7109 113.756 48.8682C114.875 51.7638 117.809 59.8483 118.073 62.5721C118.25 64.4698 117.833 66.3188 116.494 67.7147C115.956 68.2771 111.324 70.7202 110.723 70.7776C108.981 70.9541 108.39 68.6677 108.916 67.2839C109.34 66.1706 113.626 64.9524 113.726 63.893L108.465 47.2512C101.309 46.2293 94.5768 48.2823 87.2831 47.4114C85.4281 47.1864 75.6208 45.8671 78.4825 42.3732C79.5134 41.1175 85.1595 42.8636 86.8981 43.0706C93.5363 43.8357 98.7672 42.55 105.042 42.3114Z" fill="#F7A481"/>
<path d="M94.1158 28.4709C93.3876 27.4972 94.7617 24.5476 95.62 24.1549C96.8629 23.5948 97.9992 26.3744 99.3592 26.8236C103.575 28.2119 107.337 22.3349 107.273 18.6541C107.193 14.0557 102.476 9.47007 97.91 9.21036C98.0764 2.59213 103.593 6.03515 106.578 8.63441C109.371 11.0615 111.526 14.4497 111.613 18.2706C111.791 25.8487 104.441 34.5657 96.5561 30.2361C96.1846 30.0311 94.2825 28.7054 94.1152 28.4815L94.1158 28.4709Z" fill="#F7A481"/>
<path d="M242.81 120.384C242.574 119.9 242.864 119.044 243.109 118.559C244.121 116.588 249.592 116.064 251.889 115.39C256.734 113.962 269.968 108.786 274.204 109.526C276.656 109.949 278.013 112.785 275.213 113.8C273.53 114.406 269.719 114.355 267.42 114.901C261.119 116.384 254.649 119.669 248.29 120.894C247.025 121.132 243.509 121.824 242.81 120.394L242.81 120.384Z" fill="#F7A481"/>
<path d="M265.566 84.7914C267.152 84.882 268.353 87.4739 266.584 88.7569C263.963 90.657 255.333 90.969 252.149 90.4779C250.234 90.185 241.739 87.724 243.988 84.7877C245.655 82.6135 248.932 85.6577 251.128 86.0644C254.169 86.621 257.975 86.5658 261.004 85.9706C262.335 85.704 264.331 84.7231 265.566 84.7914Z" fill="#F7A481"/>
<path d="M122.13 71.9635C125.243 71.5655 125.97 74.2336 123.407 75.8923C120.219 77.9693 108.142 80.5762 104.654 79.3303C102.429 78.5381 104.011 75.1755 105.612 74.8621C106.294 74.7245 107.282 75.3098 108.167 75.3344C111.132 75.4172 114.993 74.3317 117.865 73.524C119.159 73.1591 120.838 72.126 122.12 71.9628L122.13 71.9635Z" fill="#F7A481"/>
<path d="M286.361 56.8769C287.861 56.8022 289.767 56.5722 290.198 58.3476C290.52 59.6577 290.126 60.304 288.937 60.8568C285.734 62.3467 274.361 61.9505 271.332 60.2117C269.59 59.2159 270.083 56.5191 272.065 56.262C273.304 56.0961 274.403 56.9443 275.601 57.0954C279.818 57.6312 282.428 57.0732 286.361 56.8769Z" fill="#F7A481"/>
<path d="M267.29 63.2716C268.226 63.1715 270.223 64.0131 271.474 64.1676C272.501 64.2972 273.759 64.3456 274.805 64.3591C275.851 64.3726 277.05 63.8311 278.018 64.0528C280.103 64.5271 281.422 67.7872 278.391 68.4248C275.868 68.9564 267.452 68.5893 265.634 66.7893C264.468 65.6384 265.849 63.4246 267.29 63.2716Z" fill="#F7A481"/>
<path d="M93.5647 52.5347C94.0627 52.0976 98.3729 52.1811 99.5368 52.021C101.003 51.8163 103.614 50.7362 104.773 50.8209C105.55 50.8705 106.821 52.0387 106.794 52.7937C106.671 56.2175 94.7957 57.3452 93.283 55.6074C92.7551 55.0088 93.0209 53.0222 93.5647 52.5347Z" fill="#F7A481"/>
</g>
<defs>
<clipPath id="clip0_1640_1580">
<rect width="325.142" height="242.059" fill="white" transform="translate(15.4336) rotate(3.65518)"/>
</clipPath>
</defs>
</svg>
