<svg fill="none" height="204" viewBox="0 0 568 204" width="568" xmlns="http://www.w3.org/2000/svg"><g fill="#000"><path d="m383.208 203.241c-1.28 0-2.248-.36-2.904-1.08-.656-.736-.984-1.784-.984-3.144v-.96h2.496v1.152c0 1.088.456 1.632 1.368 1.632.448 0 .784-.128 1.008-.384.24-.272.36-.704.36-1.296 0-.704-.16-1.32-.48-1.848-.32-.544-.912-1.192-1.776-1.944-1.088-.96-1.848-1.824-2.28-2.592-.432-.784-.648-1.664-.648-2.64 0-1.328.336-2.352 1.008-3.072.672-.736 1.648-1.104 2.928-1.104 1.264 0 2.216.368 2.856 1.104.656.72.985 1.76.985 3.12v.696h-2.497v-.864c0-.576-.111-.992-.336-1.248-.223-.272-.552-.408-.984-.408-.88 0-1.32.536-1.32 1.608 0 .608.16 1.176.48 1.704.336.528.936 1.168 1.8 1.92 1.104.96 1.864 1.832 2.28 2.616s.624 1.704.624 2.76c0 1.376-.344 2.432-1.032 3.168-.672.736-1.656 1.104-2.952 1.104z" opacity=".7"/><path d="m363.738 188.603h-2.76v-2.4h8.16v2.4h-2.76v14.4h-2.64z" opacity=".7"/><path d="m342.682 186.203h3.912c1.36 0 2.352.32 2.976.96.624.624.936 1.592.936 2.904v1.032c0 1.744-.576 2.848-1.728 3.312v.048c.64.192 1.088.584 1.344 1.176.272.592.408 1.384.408 2.376v2.952c0 .48.016.872.048 1.176.032.288.112.576.24.864h-2.688c-.096-.272-.16-.528-.192-.768s-.048-.672-.048-1.296v-3.072c0-.768-.128-1.304-.384-1.608-.24-.304-.664-.456-1.272-.456h-.912v7.2h-2.64zm3.6 7.2c.528 0 .92-.136 1.176-.408.272-.272.408-.728.408-1.368v-1.296c0-.608-.112-1.048-.336-1.32-.208-.272-.544-.408-1.008-.408h-1.2v4.8z" opacity=".7"/><path d="m327.528 203.241c-1.296 0-2.288-.368-2.976-1.104s-1.032-1.776-1.032-3.12v-8.832c0-1.344.344-2.384 1.032-3.12s1.68-1.104 2.976-1.104 2.288.368 2.976 1.104 1.032 1.776 1.032 3.12v8.832c0 1.344-.344 2.384-1.032 3.12s-1.68 1.104-2.976 1.104zm0-2.4c.912 0 1.368-.552 1.368-1.656v-9.168c0-1.104-.456-1.656-1.368-1.656s-1.368.552-1.368 1.656v9.168c0 1.104.456 1.656 1.368 1.656z" opacity=".7"/><path d="m305.094 186.203h3.888c1.312 0 2.296.352 2.952 1.056s.984 1.736.984 3.096v1.656c0 1.36-.328 2.392-.984 3.096s-1.64 1.056-2.952 1.056h-1.248v6.84h-2.64zm3.888 7.56c.432 0 .752-.12.96-.36.224-.24.336-.648.336-1.224v-1.992c0-.576-.112-.984-.336-1.224-.208-.24-.528-.36-.96-.36h-1.248v5.16z" opacity=".7"/><path d="m282.82 186.203h3.768l1.68 12.024h.048l1.68-12.024h3.768v16.8h-2.496v-12.72h-.048l-1.92 12.72h-2.208l-1.92-12.72h-.048v12.72h-2.304z" opacity=".7"/><path d="m268.843 186.203h2.64v16.8h-2.64z" opacity=".7"/><path d="m237.561 186.203h7.2v2.4h-4.56v4.44h3.624v2.4h-3.624v5.16h4.56v2.4h-7.2z" opacity=".7"/><path d="m217.958 186.203h3.312l2.568 10.056h.048v-10.056h2.352v16.8h-2.712l-3.168-12.264h-.048v12.264h-2.352z" opacity=".7"/><path d="m203.981 186.203h2.64v16.8h-2.64z" opacity=".7"/><path d="m180.638 186.203h2.544l1.176 12.912h.048l1.248-12.912h2.88l1.248 12.912h.048l1.176-12.912h2.28l-1.704 16.8h-3.288l-1.2-11.328h-.048l-1.2 11.328h-3.504z" opacity=".7"/><path d="m39.5624 23.686c-.6781-4.8493-2.583-16.47079-7.7848-16.26558-4.5459.17845-8.3513 8.84658-8.5967 13.79848-.5353 10.7426 11.8445 15.989 19.8702 20.5662 10.7426 6.1341 19.9104 13.6914 19.8434 27.1598-.0892 17.7422-15.0878 30.5771-31.7682 33.0311-16.0693 2.364-31.2239723-9.6767-31.12582587-26.2189.10706887-18.0277 21.17282587-15.1323 23.36332587.406.629 4.4568 2.7972 18.8665 7.7714 18.3936 5.2866-.5042 8.6994-11.6304 8.6994-17.5013 0-10.3188-12.5048-14.7666-19.9059-19.0271-11.56345-6.6561-20.0174456-15.6945-19.92376031-29.7874.10706931-16.5645 16.39936031-28.09224 31.78606031-28.23945946 14.7175-.13829754 31.0723 9.68973946 31.1838 25.79915946.125 17.9028-21.4539 11.8579-23.4034-2.1235z"/><path d="m116.741 59.9291c-.049-13.5041-.205-27.2892-.129-40.7085.036-6.1342-2.605-11.41174-3.306-16.38152-.232-1.63726 1.12-1.92725 3.351-1.931711 4.327 0 6.491-.00447 10.818-.008931 2.231 0 3.912.289972 3.676 1.891542-.732 4.91179-3.435 10.08232-3.382 16.21652.116 13.3702.032 26.9501.13 40.2445.129 17.3987-11.14 34.32-28.8464 36.3231-19.3616 2.1905-33.004-12.7412-33.0263-32.2054.0268-14.2313.0491-28.458.0758-42.6893-.2275-6.5401-2.7079-11.92033-3.3146-17.38976-.2008-1.80679 1.1197-2.05215 3.3503-2.05215 6.9506-.00892 13.9056-.02231 20.8561-.03123 2.2306 0 3.5824.28551 3.3415 1.97185-.7316 5.15269-3.4128 10.63109-3.3816 16.96599.0223 4.6039-.0178 8.3424-.0223 11.6526.0223 6.1788.0491 12.3576.0714 18.5363-.0089 3.3102-.1606 7.1736-.0223 11.6527.2587 8.4272 3.8143 20.7446 14.4454 19.9193 10.693-.8298 15.36-12.139 15.324-21.9759z"/><path d="m145.703 26.2683c.152 14.6729.304 29.3503.455 44.0232-.191 6.2368 4.698 11.2735 5.769 15.4848.343 1.3518-1.008 1.9317-1.678 1.9853-5.393.4149-10.791.8565-16.18 1.316-.781.067-1.722-.0535-1.557-1.7532.548-5.5899 6.218-9.5604 6.508-16.5645.045-18.5318.085-37.0637.13-55.5955.227-4.3452-1.936-8.7261-2.539-12.13892-.267-1.5302.786-1.88262 2.012-1.88708 5.019-.00446 10.038-.00894 15.057-.0134 2.119 0 3.23 2.58749 3.23 2.58749 2.873 4.69319 5.764 9.37741 8.668 14.04831 8.316 14.9406 16.734 29.8187 25.237 44.6522-.009-14.6684-.018-29.3324-.031-44.0008.067-6.4554-4.698-11.0415-5.773-15.37779-.33-1.32944 1.008-1.81128 1.677-1.81128 5.39 0 10.783-.0089 16.172-.01337.781 0 1.78.27214 1.557 1.78895-.736 4.98317-6.455 8.71719-6.495 15.33319-.076 20.9542-.147 41.904-.223 62.8583 0 1.4365-1.267 3.6225-3.69 3.7787-4.376.2766-8.869.4818-13.29.7361-1.673.0937-3.118-2.7214-3.564-3.4263-10.649-18.5719-21.146-37.2331-31.456-55.997z"/><path d="m221.013 24.9701c.165 13.9591.335 27.9137.5 41.8684-.174 6.0449 4.733 10.9166 5.79 14.9495.335 1.2759-1.008 1.8023-1.677 1.8246-5.398.1784-10.801.3881-16.199.6156-.781.0313-1.771-.1918-1.561-1.7175.714-5.1482 6.232-8.6547 6.5-15.4536.027-17.5638.053-35.1275.08-52.6913.013-8.54319-2.552-9.48896-2.547-11.50989 0-1.78448.785-1.78448 2.012-1.78448 5.019 0 10.037-.00447 15.056-.00893 2.119 0 3.23 2.4715 3.23 2.4715 2.891 4.50581 5.786 9.0027 8.686 13.4996 8.405 14.5524 16.855 29.0871 25.309 43.6127-.032-14.2535-.063-28.5115-.094-42.7651.053-6.3259-4.72-10.75593-5.795-14.95392-.326-1.2759 1.004-1.75325 1.673-1.75325h16.172c.78 0 1.78.27659 1.561 1.74878-.723 4.85826-6.438 8.44509-6.473 14.94949-.04 20.4323-.085 40.8691-.125 61.3059 0 1.4008-1.258 3.4797-3.69 3.5288-4.38.0848-8.873.1026-13.298.1606-1.673.0223-3.128-2.757-3.574-3.453-10.564-18.1169-21.097-36.2517-31.541-54.4401z"/><path d="m285.178 12.7339c-1.298-4.23816-5.411-7.59745-6.134-10.73813-.223-.96808.781-1.284832 2.008-1.284832h23.867c1.004 0 2.231.000002 2.231 1.284832 0 1.16883-3.123 2.80163-.665 10.75593 4.631 11.1486 9.248 22.3016 13.861 33.4546 4.39-11.1173 8.771-22.2391 13.138-33.3698 2.668-7.99449-2.908-9.89052-2.913-10.83183 0-1.293749.892-1.293732 1.45-1.293732h15.949c.669 0 1.597.392582 1.338 1.302662-.919 3.28791-6.607 5.98694-8.351 10.8541-5.354 13.8788-10.738 27.7487-16.136 41.6097-.032 5.2419-.067 10.4838-.098 15.7301.678 8.231 3.247 9.2303 3.252 11.3449 0 1.7622-1.116 1.7354-3.351 1.6819-6.964-.1651-13.928-.2811-20.896-.3614-2.235-.0268-3.587-.3301-3.355-1.7889.723-4.5103 3.471-9.1098 3.346-14.9272 0-4.8627 0-7.2941-.004-12.1568-6.17-13.7628-12.353-27.5212-18.537-41.275z"/><path d="m383.584 20.2929c-.616-4.43-2.731-14.20447-7.834-14.0394-4.359.14276-8.325 6.839-8.57 11.3225-.518 9.4667 12.928 14.5391 19.95 18.4828 10.19 5.7237 19.964 13.1739 19.973 25.9954.009 17.6887-17.113 24.26-31.764 23.8228-13.16-.3881-31.273-10.6622-31.308-25.9508-.036-15.7525 21.404-8.4361 23.452 3.2032.803 4.5727 2.869 16.2298 7.847 16.5064 4.957.2722 8.771-8.1952 8.682-13.562-.156-9.605-13.143-14.3919-20.013-18.3088-9.859-5.6167-20.468-13.2855-20.013-25.4199.544-14.49895 18.768-22.3417468 31.755-22.3372856 13.424.0044612 31.063 7.5349756 31.277 23.2249856.228 16.4307-21.77 9.0429-23.434-2.9354z"/><path d="m413.59 69.9224c-.04-17.0463-.076-34.0925-.116-51.1432.076-6.0316-2.655-11.03707-3.382-15.81948-.236-1.55696 1.111-1.84694 3.342-1.84248 6.95.00892 13.905.01338 20.856.0223 2.23 0 3.582.29444 3.35 1.90048-.7 4.88055-3.413 9.98868-3.31 16.10498.04 17.3719.08 34.7483.12 52.1202-.071 6.1832 2.664 11.4251 3.386 16.3994.232 1.6105-1.11 1.7934-3.341 1.6016-6.951-.6023-13.91-1.1599-20.865-1.6774-2.231-.1651-3.587-.5443-3.351-2.0924.71-4.7065 3.418-9.5916 3.315-15.5696z"/><path d="m467.954 92.4826c-.335-.0357-.669-.0714-1.004-.107-6.946-.7317-13.896-1.4187-20.851-2.0701-2.231-.2096-3.574-.5888-3.351-2.2127.607-4.4077 3.266-8.8243 3.31-14.3472-.044-19.7855-.093-39.5709-.138-59.3519-.798-8.03462-3.145-9.18561-3.149-11.34483 0-.63349.107-1.01716.33-1.26699.223-.50858.892-.76285 2.119-.75838 8.4.00892 16.805.01784 25.206.02676 25.308.20522 37.09 25.93294 36.662 47.97134-.424 21.7394-10.39 46.3876-36.462 43.7465-1.07-.116-1.606-.174-2.676-.2855zm2.882-6.4955c10.301 2.1637 13.201-30.7912 13.183-38.6518-.023-8.8065-2.9-40.44088-13.353-39.47726-3.502.3212-3.622 9.09636-3.542 12.74116.04 17.2917.076 34.5833.116 51.8749-.067 3.9616.014 12.7635 3.596 13.5175z"/><path d="m513.15 78.1333c-.031-19.0448-.058-38.0942-.089-57.139-.25-6.6294-2.739-12.13005-3.372-17.67979-.21-1.82017 1.11-2.0611 3.341-2.05664 16.506.02677 33.013.058 49.515.08923 5.978.58888 4.898 11.849 5.13 15.5473.205 3.3191 1.049 12.768-3.787 13.5665-6.295 1.035-7.95-6.7542-9.587-11.269-2.008-5.2285-6.777-10.72917-12.38-10.8407-6.478-.12938-7.58 7.9677-8.013 13.2587.009 8.3826.018 16.7652.027 25.1478 3.565.2365 5.349.3614 8.909.6067 5.363.5443 7.901-5.5363 10.355-6.4286.945-.3435 1.784 1.8693 1.784 2.4537-.009 6.1877-.098 12.4066-.102 18.5987 0 .5845-.799 2.4983-1.78 2.0254-2.682-1.2937-4.966-7.3699-10.248-7.7268-3.564-.2944-5.344-.4372-8.909-.7182.009 8.2889.018 16.5734.027 24.8623.464 5.6211 1.499 13.3479 7.914 14.2892 5.371.7896 10.381-3.8277 12.451-8.7752 1.629-4.256 3.342-11.8311 9.561-9.7343 4.795 1.6149 4.015 10.4436 3.783 14.1911-.192 3.1273.861 15.1633-5.113 14.7083-16.435-2.614-32.892-5.028-49.385-7.2314-2.226-.2944-3.587-.7405-3.342-2.4982.723-5.2821 3.087-10.756 3.315-17.2381z"/><path d="m176.338 116.388c-2.467-7.508-5.175-7.651-5.175-9.953 0-1.236.656-1.316 1.642-1.441 6.094-.749 12.201-1.432 18.313-2.061.821-.085 1.892-.192 1.892 1.097 0 1.29-2.628 3.052-.562 10.948 3.627 11.109 7.2 22.23 10.733 33.366 3.422-11.608 6.808-23.225 10.163-34.856 2.293-8.449-2.485-9.975-2.485-11.032 0-1.321.741-1.383 1.231-1.419 4.172-.33 8.343-.629 12.519-.901.575-.036 1.378.236 1.155 1.271-.772 3.583-5.675 6.942-7.067 11.769-4.184 15.596-8.409 31.184-12.701 46.753-.245 1.053-1.003 2.606-2.962 2.628-4.323.049-5.929.009-10.292.013-1.316 0-2.226-1.963-2.391-2.56-4.582-14.566-9.244-29.105-14.013-43.613z"/><path d="m228.793 149.934c-.018-12.407-.031-24.809-.049-37.215-.013-8.9-2.485-9.565-2.485-11.359 0-1.347.821-1.4004 2.472-1.4986 5.139-.2944 10.274-.5621 15.413-.803 1.651-.0714 2.472-.1026 2.476 1.2626 0 1.825-2.471 2.744-2.462 11.755.013 12.563.026 25.126.04 37.684.009 9.012 2.48 9.824 2.48 11.648 0 1.37-.821 1.37-2.467 1.37-5.135 0-10.265 0-15.4.009-1.646 0-2.472 0-2.472-1.343 0-1.794 2.468-2.61 2.454-11.51z"/><path d="m259.906 117.065c.142 10.832.29 21.664.432 32.496.156 4.559 3.453 8.641 4.292 11.75.268.986-.741 1.379-1.236 1.379-2.306 0-4.858 0-11.942 0-.576 0-1.352-.259-1.156-1.37.647-3.644 4.8-6.741 4.769-11.728-.009-13.558-.022-27.115-.031-40.673-.005-6.594-1.905-7.267-1.905-8.824 0-1.3742.576-1.3921 1.486-1.4233 6.598-.2097 9.074-.2454 11.135-.2855 1.566-.0313 2.391 1.8918 2.391 1.8918 2.574 4.193 3.863 6.294 6.437 10.515 6.26 11.483 12.487 22.979 18.715 34.476-.022-11.247-.049-22.489-.071-33.736.196-4.608-3.449-8.757-4.287-11.8308-.268-.9859.74-1.3785 1.235-1.374 2.311.0178 4.868.0223 11.965.165.576.0134 1.357.29 1.156 1.4053-.647 3.5645-4.47 6.9015-4.792 11.6975-.035 16.114-.066 32.223-.102 48.337 0 1.106-.928 2.744-2.717 2.761-3.988.045-5.764 0-9.801 0-1.236 0-2.307-2.212-2.637-2.766-7.74-14.307-15.503-28.6-23.336-42.858z"/><path d="m308.368 149.661c.009-12.665.017-25.326.026-37.991.005-9.083-2.467-9.971-2.467-11.8089 0-1.3786.826-1.3607 2.476-1.3161 12.215.3658 24.408.9458 36.6 1.735 2.882.197 3.462 2.74 3.774 9.516.246 5.26-.348 8.066-2.81 8.039-4.27-.044-4.198-.727-7.076-6.982-1.807-3.957-5.759-6.874-9.136-7.035-3.217-.152-5.938 2.195-5.943 8.289-.004 5.367-.013 10.738-.018 16.105 2.637.062 3.958.098 6.594.174 6.014.259 6.018-4.234 7.669-4.171 1.236.044 1.316 1.128 1.316 1.485 0 1.798-.089 5.479-.098 11.403 0 .362-.085 1.347-1.321 1.316-1.646-.04-1.806-4.376-7.575-4.421-2.636-.062-3.952-.093-6.589-.147-.004 5.309-.013 10.613-.018 15.922-.004 6.094 2.708 8.472 5.84 8.485 3.457.014 7.334-2.587 9.23-6.428 2.891-6.081 2.82-6.768 7.089-6.518 2.463.143 3.047 2.998 2.788 8.24-.334 6.749-.919 9.248-3.801 9.248-12.188-.009-24.376-.014-36.564-.014-1.646 0-2.471 0-2.471-1.378 0-1.838 2.471-2.659 2.48-11.747z"/><path d="m378.886 116.758c-.482-3.453-1.99-9.721-5.746-10.43-2.94-.558-6.393 5.046-6.344 7.682.299 15.208 29.426 14.227 29.337 32.036-.058 11.885-13.013 17.251-23.47 17.292-10.431.04-23.047-6.772-23.034-18.479.014-12.116 15.824-6.129 17.288 2.244.66 3.783 2.4 11.608 5.75 11.76 3.145.143 6.674-5.719 6.433-9.824-.415-6.963-9.618-10.14-14.717-13.129-7.522-4.412-14.83-10.131-14.714-19.299.139-11.01 13.919-15.721 23.471-14.753 9.56.972 22.872 6.834 22.993 18.166.125 11.786-16.221 4.144-17.252-3.266z"/><path d="m452.57 118.359c.333-.844 1.527-.844 1.86 0l4.709 11.939c.102.257.306.461.563.563l11.939 4.709c.844.333.844 1.527 0 1.86l-11.939 4.709c-.257.102-.461.306-.563.563l-4.709 11.939c-.333.844-1.527.844-1.86 0l-4.709-11.939c-.102-.257-.306-.461-.563-.563l-11.939-4.709c-.844-.333-.844-1.527 0-1.86l11.939-4.709c.257-.102.461-.306.563-.563z" opacity=".3"/><path d="m517.57 118.359c.333-.844 1.527-.844 1.86 0l4.709 11.939c.102.257.306.461.563.563l11.939 4.709c.844.333.844 1.527 0 1.86l-11.939 4.709c-.257.102-.461.306-.563.563l-4.709 11.939c-.333.844-1.527.844-1.86 0l-4.709-11.939c-.102-.257-.306-.461-.563-.563l-11.939-4.709c-.844-.333-.844-1.527 0-1.86l11.939-4.709c.257-.102.461-.306.563-.563z" opacity=".3"/><path d="m55.5697 118.359c.333-.844 1.5276-.844 1.8606 0l4.7086 11.939c.1017.257.3057.461.5634.563l11.939 4.709c.8441.333.8441 1.527 0 1.86l-11.939 4.709c-.2577.102-.4617.306-.5634.563l-4.7086 11.939c-.333.844-1.5276.844-1.8606 0l-4.7086-11.939c-.1017-.257-.3057-.461-.5634-.563l-11.939-4.709c-.8441-.333-.8441-1.527 0-1.86l11.939-4.709c.2577-.102.4617-.306.5634-.563z" opacity=".3"/><path d="m120.57 118.359c.333-.844 1.527-.844 1.86 0l4.709 11.939c.102.257.306.461.563.563l11.939 4.709c.844.333.844 1.527 0 1.86l-11.939 4.709c-.257.102-.461.306-.563.563l-4.709 11.939c-.333.844-1.527.844-1.86 0l-4.709-11.939c-.102-.257-.306-.461-.563-.563l-11.939-4.709c-.844-.333-.844-1.527 0-1.86l11.939-4.709c.257-.102.461-.306.563-.563z" opacity=".3"/></g></svg>