<svg width="568" height="209" viewBox="0 0 568 209" fill="none" xmlns="http://www.w3.org/2000/svg">
<g opacity="0.7" filter="url(#filter0_n_1783_11010)">
<path d="M180.638 184.2H183.182L184.358 197.112H184.406L185.654 184.2H188.534L189.782 197.112H189.83L191.006 184.2H193.286L191.582 201H188.294L187.094 189.672H187.046L185.846 201H182.342L180.638 184.2ZM203.981 184.2H206.621V201H203.981V184.2ZM217.958 184.2H221.27L223.838 194.256H223.886V184.2H226.238V201H223.526L220.358 188.736H220.31V201H217.958V184.2ZM237.561 184.2H244.761V186.6H240.201V191.04H243.825V193.44H240.201V198.6H244.761V201H237.561V184.2ZM268.843 184.2H271.483V201H268.843V184.2ZM282.82 184.2H286.588L288.268 196.224H288.316L289.996 184.2H293.764V201H291.268V188.28H291.22L289.3 201H287.092L285.172 188.28H285.124V201H282.82V184.2ZM305.094 184.2H308.982C310.294 184.2 311.278 184.552 311.934 185.256C312.59 185.96 312.918 186.992 312.918 188.352V190.008C312.918 191.368 312.59 192.4 311.934 193.104C311.278 193.808 310.294 194.16 308.982 194.16H307.734V201H305.094V184.2ZM308.982 191.76C309.414 191.76 309.734 191.64 309.942 191.4C310.166 191.16 310.278 190.752 310.278 190.176V188.184C310.278 187.608 310.166 187.2 309.942 186.96C309.734 186.72 309.414 186.6 308.982 186.6H307.734V191.76H308.982ZM327.528 201.24C326.232 201.24 325.24 200.872 324.552 200.136C323.864 199.4 323.52 198.36 323.52 197.016V188.184C323.52 186.84 323.864 185.8 324.552 185.064C325.24 184.328 326.232 183.96 327.528 183.96C328.824 183.96 329.816 184.328 330.504 185.064C331.192 185.8 331.536 186.84 331.536 188.184V197.016C331.536 198.36 331.192 199.4 330.504 200.136C329.816 200.872 328.824 201.24 327.528 201.24ZM327.528 198.84C328.44 198.84 328.896 198.288 328.896 197.184V188.016C328.896 186.912 328.44 186.36 327.528 186.36C326.616 186.36 326.16 186.912 326.16 188.016V197.184C326.16 198.288 326.616 198.84 327.528 198.84ZM342.682 184.2H346.594C347.954 184.2 348.946 184.52 349.57 185.16C350.194 185.784 350.506 186.752 350.506 188.064V189.096C350.506 190.84 349.93 191.944 348.778 192.408V192.456C349.418 192.648 349.866 193.04 350.122 193.632C350.394 194.224 350.53 195.016 350.53 196.008V198.96C350.53 199.44 350.546 199.832 350.578 200.136C350.61 200.424 350.69 200.712 350.818 201H348.13C348.034 200.728 347.97 200.472 347.938 200.232C347.906 199.992 347.89 199.56 347.89 198.936V195.864C347.89 195.096 347.762 194.56 347.506 194.256C347.266 193.952 346.842 193.8 346.234 193.8H345.322V201H342.682V184.2ZM346.282 191.4C346.81 191.4 347.202 191.264 347.458 190.992C347.73 190.72 347.866 190.264 347.866 189.624V188.328C347.866 187.72 347.754 187.28 347.53 187.008C347.322 186.736 346.986 186.6 346.522 186.6H345.322V191.4H346.282ZM363.738 186.6H360.978V184.2H369.138V186.6H366.378V201H363.738V186.6ZM383.208 201.24C381.928 201.24 380.96 200.88 380.304 200.16C379.648 199.424 379.32 198.376 379.32 197.016V196.056H381.816V197.208C381.816 198.296 382.272 198.84 383.184 198.84C383.632 198.84 383.968 198.712 384.192 198.456C384.432 198.184 384.552 197.752 384.552 197.16C384.552 196.456 384.392 195.84 384.072 195.312C383.752 194.768 383.16 194.12 382.296 193.368C381.208 192.408 380.448 191.544 380.016 190.776C379.584 189.992 379.368 189.112 379.368 188.136C379.368 186.808 379.704 185.784 380.376 185.064C381.048 184.328 382.024 183.96 383.304 183.96C384.568 183.96 385.52 184.328 386.16 185.064C386.816 185.784 387.144 186.824 387.144 188.184V188.88H384.648V188.016C384.648 187.44 384.536 187.024 384.312 186.768C384.088 186.496 383.76 186.36 383.328 186.36C382.448 186.36 382.008 186.896 382.008 187.968C382.008 188.576 382.168 189.144 382.488 189.672C382.824 190.2 383.424 190.84 384.288 191.592C385.392 192.552 386.152 193.424 386.568 194.208C386.984 194.992 387.192 195.912 387.192 196.968C387.192 198.344 386.848 199.4 386.16 200.136C385.488 200.872 384.504 201.24 383.208 201.24Z" fill="black"/>
</g>
<path d="M39.5624 23.686C38.8843 18.8367 36.9794 7.21521 31.7776 7.42042C27.2317 7.59887 23.4263 16.267 23.1809 21.2189C22.6456 31.9615 35.0254 37.2079 43.0511 41.7851C53.7937 47.9192 62.9615 55.4765 62.8945 68.9449C62.8053 86.6871 47.8067 99.522 31.1263 101.976C15.057 104.34 -0.0976723 92.2993 0.00047413 75.7571C0.107543 57.7294 21.1733 60.6248 23.3638 76.1631C23.9928 80.6199 26.161 95.0296 31.1352 94.5567C36.4218 94.0525 39.8346 82.9263 39.8346 77.0554C39.8346 66.7366 27.3298 62.2888 19.9287 58.0283C8.36525 51.3722 -0.0887456 42.3338 0.00493969 28.2409C0.112009 11.6764 16.4043 0.14866 31.791 0.00144054C46.5085 -0.136857 62.8633 9.69118 62.9748 25.8006C63.0998 43.7034 41.5209 37.6585 39.5714 23.6771L39.5624 23.686Z" fill="black"/>
<path d="M116.741 59.9291C116.692 46.425 116.536 32.6399 116.612 19.2206C116.648 13.0864 114.007 7.80886 113.306 2.83908C113.074 1.20182 114.426 0.91183 116.657 0.907369C120.984 0.907369 123.148 0.902899 127.475 0.898438C129.706 0.898438 131.387 1.18841 131.151 2.78998C130.419 7.70177 127.716 12.8723 127.769 19.0065C127.885 32.3767 127.801 45.9566 127.899 59.251C128.028 76.6497 116.759 93.571 99.0526 95.5741C79.691 97.7646 66.0486 82.8329 66.0263 63.3687C66.0531 49.1374 66.0754 34.9107 66.1021 20.6794C65.8746 14.1393 63.3942 8.75907 62.7875 3.28964C62.5867 1.48285 63.9072 1.23749 66.1378 1.23749C73.0884 1.22857 80.0434 1.21518 86.9939 1.20626C89.2245 1.20626 90.5763 1.49177 90.3354 3.17811C89.6038 8.3308 86.9226 13.8092 86.9538 20.1441C86.9761 24.748 86.936 28.4865 86.9315 31.7967C86.9538 37.9755 86.9806 44.1543 87.0029 50.333C86.994 53.6432 86.8423 57.5066 86.9806 61.9857C87.2393 70.4129 90.7949 82.7303 101.426 81.905C112.119 81.0752 116.786 69.766 116.75 59.9291H116.741Z" fill="black"/>
<path d="M145.703 26.2683C145.855 40.9412 146.007 55.6186 146.158 70.2915C145.967 76.5283 150.856 81.565 151.927 85.7763C152.27 87.1281 150.919 87.708 150.249 87.7616C144.856 88.1765 139.458 88.6181 134.069 89.0776C133.288 89.1446 132.347 89.0241 132.512 87.3244C133.06 81.7345 138.73 77.764 139.02 70.7599C139.065 52.2281 139.105 33.6962 139.15 15.1644C139.377 10.8192 137.214 6.4383 136.611 3.02548C136.344 1.49528 137.397 1.14286 138.623 1.1384C143.642 1.13394 148.661 1.12946 153.68 1.125C155.799 1.125 156.91 3.71249 156.91 3.71249C159.783 8.40568 162.674 13.0899 165.578 17.7608C173.894 32.7014 182.312 47.5795 190.815 62.413C190.806 47.7446 190.797 33.0806 190.784 18.4122C190.851 11.9568 186.086 7.3707 185.011 3.03441C184.681 1.70497 186.019 1.22313 186.688 1.22313C192.078 1.22313 197.471 1.21423 202.86 1.20976C203.641 1.20976 204.64 1.4819 204.417 2.99871C203.681 7.98188 197.962 11.7159 197.922 18.3319C197.846 39.2861 197.775 60.2359 197.699 81.1902C197.699 82.6267 196.432 84.8127 194.009 84.9689C189.633 85.2455 185.14 85.4507 180.719 85.705C179.046 85.7987 177.601 82.9836 177.155 82.2787C166.506 63.7068 156.009 45.0456 145.699 26.2817L145.703 26.2683Z" fill="black"/>
<path d="M221.013 24.9701C221.178 38.9292 221.348 52.8838 221.513 66.8385C221.339 72.8834 226.246 77.7551 227.303 81.788C227.638 83.0639 226.295 83.5903 225.626 83.6126C220.228 83.791 214.825 84.0007 209.427 84.2282C208.646 84.2595 207.656 84.0364 207.866 82.5107C208.58 77.3625 214.098 73.856 214.366 67.0571C214.393 49.4933 214.419 31.9296 214.446 14.3658C214.459 5.82261 211.894 4.87684 211.899 2.85591C211.899 1.07143 212.684 1.07143 213.911 1.07143C218.93 1.07143 223.948 1.06696 228.967 1.0625C231.086 1.0625 232.197 3.534 232.197 3.534C235.088 8.03981 237.983 12.5367 240.883 17.0336C249.288 31.586 257.738 46.1207 266.192 60.6463C266.16 46.3928 266.129 32.1348 266.098 17.8812C266.151 11.5553 261.378 7.12527 260.303 2.92728C259.977 1.65138 261.307 1.17403 261.976 1.17403C267.365 1.17403 272.758 1.17403 278.148 1.17403C278.928 1.17403 279.928 1.45062 279.709 2.92281C278.986 7.78107 273.271 11.3679 273.236 17.8723C273.196 38.3046 273.151 58.7414 273.111 79.1782C273.111 80.579 271.853 82.6579 269.421 82.707C265.041 82.7918 260.548 82.8096 256.123 82.8676C254.45 82.8899 252.995 80.1106 252.549 79.4146C241.985 61.2977 231.452 43.1629 221.008 24.9745L221.013 24.9701Z" fill="black"/>
<path d="M285.178 12.7339C283.88 8.49574 279.767 5.13645 279.044 1.99577C278.821 1.02769 279.825 0.710938 281.052 0.710938C289.006 0.710938 296.965 0.710938 304.919 0.710938C305.923 0.710938 307.15 0.71094 307.15 1.99577C307.15 3.1646 304.027 4.7974 306.485 12.7517C311.116 23.9003 315.733 35.0533 320.346 46.2063C324.736 35.089 329.117 23.9672 333.484 12.8365C336.152 4.84201 330.576 2.94598 330.571 2.00467C330.571 0.710921 331.463 0.710938 332.021 0.710938C337.339 0.710938 342.652 0.710938 347.97 0.710938C348.639 0.710938 349.567 1.10352 349.308 2.0136C348.389 5.30151 342.701 8.00054 340.957 12.8677C335.603 26.7465 330.219 40.6164 324.821 54.4774C324.789 59.7193 324.754 64.9612 324.723 70.2075C325.401 78.4385 327.97 79.4378 327.975 81.5524C327.975 83.3146 326.859 83.2878 324.624 83.2343C317.66 83.0692 310.696 82.9532 303.728 82.8729C301.493 82.8461 300.141 82.5428 300.373 81.084C301.096 76.5737 303.844 71.9742 303.719 66.1568C303.719 61.2941 303.719 58.8627 303.715 54C297.545 40.2372 291.362 26.4788 285.178 12.725V12.7339Z" fill="black"/>
<path d="M383.584 20.2929C382.968 15.8629 380.853 6.08843 375.75 6.2535C371.391 6.39626 367.425 13.0925 367.18 17.576C366.662 27.0427 380.108 32.1151 387.13 36.0588C397.32 41.7825 407.094 49.2327 407.103 62.0542C407.112 79.7429 389.99 86.3142 375.339 85.877C362.179 85.4889 344.066 75.2148 344.031 59.9262C343.995 44.1737 365.435 51.4901 367.483 63.1294C368.286 67.7021 370.352 79.3592 375.33 79.6358C380.287 79.908 384.101 71.4406 384.012 66.0738C383.856 56.4688 370.869 51.6819 363.999 47.765C354.14 42.1483 343.531 34.4795 343.986 22.3451C344.53 7.84615 362.754 0.0033532 375.741 0.0078144C389.165 0.0122756 406.804 7.54279 407.018 23.2328C407.246 39.6635 385.248 32.2757 383.584 20.2974V20.2929Z" fill="black"/>
<path d="M413.59 69.9224C413.55 52.8761 413.514 35.8299 413.474 18.7792C413.55 12.7476 410.819 7.74213 410.092 2.95972C409.856 1.40276 411.203 1.11278 413.434 1.11724C420.384 1.12616 427.339 1.13062 434.29 1.13954C436.52 1.13954 437.872 1.43398 437.64 3.04002C436.94 7.92057 434.227 13.0287 434.33 19.145C434.37 36.5169 434.41 53.8933 434.45 71.2652C434.379 77.4484 437.114 82.6903 437.836 87.6646C438.068 89.2751 436.726 89.458 434.495 89.2662C427.544 88.6639 420.585 88.1063 413.63 87.5888C411.399 87.4237 410.043 87.0445 410.279 85.4964C410.989 80.7899 413.697 75.9048 413.594 69.9268L413.59 69.9224Z" fill="black"/>
<path d="M467.954 92.4826C467.619 92.4469 467.285 92.4112 466.95 92.3756C460.004 91.6439 453.054 90.9569 446.099 90.3055C443.868 90.0959 442.525 89.7167 442.748 88.0928C443.355 83.6851 446.014 79.2685 446.058 73.7456C446.014 53.9601 445.965 34.1747 445.92 14.3937C445.122 6.35908 442.775 5.20809 442.771 3.04887C442.771 2.41538 442.878 2.03171 443.101 1.78188C443.324 1.2733 443.993 1.01903 445.22 1.0235C453.62 1.03242 462.025 1.04134 470.426 1.05026C495.734 1.25548 507.516 26.9832 507.088 49.0216C506.664 70.761 496.698 95.4092 470.626 92.7681C469.556 92.6521 469.02 92.5941 467.95 92.4826H467.954ZM470.836 85.9871C481.137 88.1508 484.037 55.1959 484.019 47.3353C483.996 38.5288 481.119 6.89442 470.666 7.85804C467.164 8.17924 467.044 16.9544 467.124 20.5992C467.164 37.8909 467.2 55.1825 467.24 72.4741C467.173 76.4357 467.254 85.2376 470.836 85.9916V85.9871Z" fill="black"/>
<path d="M513.15 78.1333C513.119 59.0885 513.092 40.0391 513.061 20.9943C512.811 14.3649 510.322 8.86425 509.689 3.31451C509.479 1.49434 510.799 1.25341 513.03 1.25787C529.536 1.28464 546.043 1.31587 562.545 1.3471C568.523 1.93598 567.443 13.1961 567.675 16.8944C567.88 20.2135 568.724 29.6624 563.888 30.4609C557.593 31.4959 555.938 23.7067 554.301 19.1919C552.293 13.9634 547.524 8.46273 541.921 8.3512C535.443 8.22182 534.341 16.3189 533.908 21.6099C533.917 29.9925 533.926 38.3751 533.935 46.7577C537.5 46.9942 539.284 47.1191 542.844 47.3644C548.207 47.9087 550.745 41.8281 553.199 40.9358C554.144 40.5923 554.983 42.8051 554.983 43.3895C554.974 49.5772 554.885 55.7961 554.881 61.9882C554.881 62.5727 554.082 64.4865 553.101 64.0136C550.419 62.7199 548.135 56.6437 542.853 56.2868C539.289 55.9924 537.509 55.8496 533.944 55.5686C533.953 63.8575 533.962 72.142 533.971 80.4309C534.435 86.052 535.47 93.7788 541.885 94.7201C547.256 95.5097 552.266 90.8924 554.336 85.9449C555.965 81.6889 557.678 74.1138 563.897 76.2106C568.692 77.8255 567.912 86.6542 567.68 90.4017C567.488 93.529 568.541 105.565 562.567 105.11C546.132 102.496 529.675 100.082 513.182 97.8786C510.956 97.5842 509.595 97.1381 509.84 95.3804C510.563 90.0983 512.927 84.6244 513.155 78.1423L513.15 78.1333Z" fill="black"/>
<path d="M176.338 116.388C173.871 108.88 171.163 108.737 171.163 106.435C171.163 105.199 171.819 105.119 172.805 104.994C178.899 104.245 185.006 103.562 191.118 102.933C191.939 102.848 193.01 102.741 193.01 104.03C193.01 105.32 190.382 107.082 192.448 114.978C196.075 126.087 199.648 137.208 203.181 148.344C206.603 136.736 209.989 125.119 213.344 113.488C215.637 105.039 210.859 103.513 210.859 102.456C210.859 101.135 211.6 101.073 212.09 101.037C216.262 100.707 220.433 100.408 224.609 100.136C225.184 100.1 225.987 100.372 225.764 101.407C224.992 104.99 220.089 108.349 218.697 113.176C214.513 128.772 210.288 144.36 205.996 159.929C205.751 160.982 204.993 162.535 203.034 162.557C198.711 162.606 197.105 162.566 192.742 162.57C191.426 162.57 190.516 160.607 190.351 160.01C185.769 145.444 181.107 130.905 176.338 116.397V116.388Z" fill="black"/>
<path d="M228.793 149.934C228.775 137.527 228.762 125.125 228.744 112.719C228.731 103.819 226.259 103.154 226.259 101.36C226.259 100.013 227.08 99.9596 228.731 99.8614C233.87 99.567 239.005 99.2993 244.144 99.0584C245.795 98.987 246.616 98.9558 246.62 100.321C246.62 102.146 244.149 103.065 244.158 112.076C244.171 124.639 244.184 137.202 244.198 149.76C244.207 158.772 246.678 159.584 246.678 161.408C246.678 162.778 245.857 162.778 244.211 162.778C239.076 162.778 233.946 162.778 228.811 162.787C227.165 162.787 226.339 162.787 226.339 161.444C226.339 159.65 228.807 158.834 228.793 149.934Z" fill="black"/>
<path d="M259.906 117.065C260.048 127.897 260.196 138.729 260.338 149.561C260.494 154.12 263.791 158.202 264.63 161.311C264.898 162.297 263.889 162.69 263.394 162.69C261.088 162.69 258.536 162.69 251.452 162.69C250.876 162.69 250.1 162.431 250.296 161.32C250.943 157.676 255.096 154.579 255.065 149.592C255.056 136.034 255.043 122.477 255.034 108.919C255.029 102.325 253.129 101.652 253.129 100.095C253.129 98.7208 253.705 98.7029 254.615 98.6717C261.213 98.462 263.689 98.4263 265.75 98.3862C267.316 98.3549 268.141 100.278 268.141 100.278C270.715 104.471 272.004 106.572 274.578 110.793C280.838 122.276 287.065 133.772 293.293 145.269C293.271 134.022 293.244 122.78 293.222 111.533C293.418 106.925 289.773 102.776 288.935 99.7022C288.667 98.7163 289.675 98.3237 290.17 98.3282C292.481 98.346 295.038 98.3505 302.135 98.4932C302.711 98.5066 303.492 98.7832 303.291 99.8985C302.644 103.463 298.821 106.8 298.499 111.596C298.464 127.71 298.433 143.819 298.397 159.933C298.397 161.039 297.469 162.677 295.68 162.694C291.692 162.739 289.916 162.694 285.879 162.694C284.643 162.694 283.572 160.482 283.242 159.928C275.502 145.621 267.739 131.328 259.906 117.07V117.065Z" fill="black"/>
<path d="M308.368 149.661C308.377 136.996 308.385 124.335 308.394 111.67C308.399 102.587 305.927 101.699 305.927 99.8611C305.927 98.4825 306.753 98.5004 308.403 98.545C320.618 98.9108 332.811 99.4908 345.003 100.28C347.885 100.477 348.465 103.02 348.777 109.796C349.023 115.056 348.429 117.862 345.967 117.835C341.697 117.791 341.769 117.108 338.891 110.853C337.084 106.896 333.132 103.979 329.755 103.818C326.538 103.666 323.817 106.013 323.812 112.107C323.808 117.474 323.799 122.845 323.794 128.212C326.431 128.274 327.752 128.31 330.388 128.386C336.402 128.645 336.406 124.152 338.057 124.215C339.293 124.259 339.373 125.343 339.373 125.7C339.373 127.498 339.284 131.179 339.275 137.103C339.275 137.465 339.19 138.45 337.954 138.419C336.308 138.379 336.148 134.043 330.379 133.998C327.743 133.936 326.427 133.905 323.79 133.851C323.786 139.16 323.777 144.464 323.772 149.773C323.768 155.867 326.48 158.245 329.612 158.258C333.069 158.272 336.946 155.671 338.842 151.83C341.733 145.749 341.662 145.062 345.931 145.312C348.394 145.455 348.978 148.31 348.719 153.552C348.385 160.301 347.8 162.8 344.918 162.8C332.73 162.791 320.542 162.786 308.354 162.786C306.708 162.786 305.883 162.786 305.883 161.408C305.883 159.57 308.354 158.749 308.363 149.661H308.368Z" fill="black"/>
<path d="M378.886 116.758C378.404 113.305 376.896 107.037 373.14 106.328C370.2 105.77 366.747 111.374 366.796 114.01C367.095 129.218 396.222 128.237 396.133 146.046C396.075 157.931 383.12 163.297 372.663 163.338C362.232 163.378 349.616 156.566 349.629 144.859C349.643 132.743 365.453 138.73 366.917 147.103C367.577 150.886 369.317 158.711 372.667 158.863C375.812 159.006 379.341 153.144 379.1 149.039C378.685 142.076 369.482 138.899 364.383 135.91C356.861 131.498 349.553 125.779 349.669 116.611C349.808 105.601 363.588 100.89 373.14 101.858C382.7 102.83 396.012 108.692 396.133 120.024C396.258 131.81 379.912 124.168 378.881 116.758H378.886Z" fill="black"/>
<g opacity="0.2">
<path d="M452.57 118.359C452.903 117.515 454.097 117.515 454.43 118.359L459.139 130.298C459.241 130.555 459.445 130.759 459.702 130.861L471.641 135.57C472.485 135.903 472.485 137.097 471.641 137.43L459.702 142.139C459.445 142.241 459.241 142.445 459.139 142.702L454.43 154.641C454.097 155.485 452.903 155.485 452.57 154.641L447.861 142.702C447.759 142.445 447.555 142.241 447.298 142.139L435.359 137.43C434.515 137.097 434.515 135.903 435.359 135.57L447.298 130.861C447.555 130.759 447.759 130.555 447.861 130.298L452.57 118.359Z" fill="black"/>
<path d="M517.57 118.359C517.903 117.515 519.097 117.515 519.43 118.359L524.139 130.298C524.241 130.555 524.445 130.759 524.702 130.861L536.641 135.57C537.485 135.903 537.485 137.097 536.641 137.43L524.702 142.139C524.445 142.241 524.241 142.445 524.139 142.702L519.43 154.641C519.097 155.485 517.903 155.485 517.57 154.641L512.861 142.702C512.759 142.445 512.555 142.241 512.298 142.139L500.359 137.43C499.515 137.097 499.515 135.903 500.359 135.57L512.298 130.861C512.555 130.759 512.759 130.555 512.861 130.298L517.57 118.359Z" fill="black"/>
<path d="M55.5697 118.359C55.9027 117.515 57.0973 117.515 57.4303 118.359L62.1389 130.298C62.2406 130.555 62.4446 130.759 62.7023 130.861L74.6413 135.57C75.4854 135.903 75.4854 137.097 74.6413 137.43L62.7023 142.139C62.4446 142.241 62.2406 142.445 62.1389 142.702L57.4303 154.641C57.0973 155.485 55.9027 155.485 55.5697 154.641L50.8611 142.702C50.7594 142.445 50.5554 142.241 50.2977 142.139L38.3587 137.43C37.5146 137.097 37.5146 135.903 38.3587 135.57L50.2977 130.861C50.5554 130.759 50.7594 130.555 50.8611 130.298L55.5697 118.359Z" fill="black"/>
<path d="M120.57 118.359C120.903 117.515 122.097 117.515 122.43 118.359L127.139 130.298C127.241 130.555 127.445 130.759 127.702 130.861L139.641 135.57C140.485 135.903 140.485 137.097 139.641 137.43L127.702 142.139C127.445 142.241 127.241 142.445 127.139 142.702L122.43 154.641C122.097 155.485 120.903 155.485 120.57 154.641L115.861 142.702C115.759 142.445 115.555 142.241 115.298 142.139L103.359 137.43C102.515 137.097 102.515 135.903 103.359 135.57L115.298 130.861C115.555 130.759 115.759 130.555 115.861 130.298L120.57 118.359Z" fill="black"/>
</g>
<defs>
<filter id="filter0_n_1783_11010" x="180.638" y="183.961" width="206.555" height="17.2812" filterUnits="userSpaceOnUse" color-interpolation-filters="sRGB">
<feFlood flood-opacity="0" result="BackgroundImageFix"/>
<feBlend mode="normal" in="SourceGraphic" in2="BackgroundImageFix" result="shape"/>
<feTurbulence type="fractalNoise" baseFrequency="2 2" stitchTiles="stitch" numOctaves="3" result="noise" seed="3761" />
<feColorMatrix in="noise" type="luminanceToAlpha" result="alphaNoise" />
<feComponentTransfer in="alphaNoise" result="coloredNoise1">
<feFuncA type="discrete" tableValues="1 1 1 1 1 1 1 1 1 1 1 1 1 1 1 1 1 1 1 1 1 1 1 1 1 1 1 1 1 1 1 1 1 1 1 1 1 1 1 1 1 1 1 1 1 1 1 1 1 1 1 0 0 0 0 0 0 0 0 0 0 0 0 0 0 0 0 0 0 0 0 0 0 0 0 0 0 0 0 0 0 0 0 0 0 0 0 0 0 0 0 0 0 0 0 0 0 0 0 0 "/>
</feComponentTransfer>
<feComposite operator="in" in2="shape" in="coloredNoise1" result="noise1Clipped" />
<feFlood flood-color="rgba(255, 255, 255, 0.22)" result="color1Flood" />
<feComposite operator="in" in2="noise1Clipped" in="color1Flood" result="color1" />
<feMerge result="effect1_noise_1783_11010">
<feMergeNode in="shape" />
<feMergeNode in="color1" />
</feMerge>
</filter>
</defs>
</svg>
